<svg width="250" height="250" viewBox="0 0 250 250" fill="none" xmlns="http://www.w3.org/2000/svg">
<rect width="250" height="250" rx="35" fill="#024a70"/>
<path d="M125 219.285C178.636 219.285 222.117 177.072 222.117 125C222.117 72.9281 178.636 30.7155 125 30.7155C71.3641 30.7155 27.8835 72.9281 27.8835 125C27.8835 177.072 71.3641 219.285 125 219.285Z" stroke="white" stroke-width="13.8414" stroke-linecap="round"/>
<path d="M85.4097 40.8527C111.774 50.806 134.32 69.839 148.004 93.6936C155.352 106.504 160.214 120.75 161.147 135.354C162.08 149.959 158.973 164.918 151.374 177.593C143.774 190.267 131.563 200.512 117.131 205.133C102.699 209.753 86.1369 208.46 73.1455 200.851C61.2639 193.893 52.7188 181.657 51.1588 168.361C50.3789 161.713 51.3005 154.875 53.8997 148.669C56.4989 142.464 60.7786 136.906 66.2475 132.772C71.9735 128.444 78.9356 125.716 86.1279 124.62C93.3207 123.524 100.735 124.033 107.792 125.763C121.905 129.223 134.334 137.421 144.937 147.028C150.337 151.921 155.353 157.217 161.037 161.805C166.722 166.392 173.206 170.304 180.45 171.851C188.137 173.494 196.439 172.305 203.295 168.581C210.152 164.857 215.498 158.632 218.006 151.451" stroke="white" stroke-width="13.8426" stroke-linecap="round"/>
</svg>
