<svg fill="none" height="40" viewBox="0 0 40 40" width="40" xmlns="http://www.w3.org/2000/svg">
    <g clip-path="url(#clip0_5874_43354)">
        <path
            d="M30.1881 0H7.6119C3.40796 0 0 3.40796 0 7.6119V30.1881C0 34.392 3.40796 37.8 7.6119 37.8H30.1881C34.392 37.8 37.8 34.392 37.8 30.1881V7.6119C37.8 3.40796 34.392 0 30.1881 0Z"
            fill="#0A62BC"></path>
        <path clip-rule="evenodd"
            d="M19.9156 9.98998L30.8491 20.6293H30.8318C30.9087 20.7042 30.9794 20.7836 31.0438 20.8667L28.7966 24.4872H23.6351L19.9329 28.1893C19.9044 28.2168 19.8752 28.2435 19.8454 28.2694L19.0637 29.0511L16.0935 27.1751V26.6694C16.0928 26.6456 16.0924 26.6217 16.0924 26.5978V12.7752H15.8848H7.75391V9.36719H18.3414C18.9469 9.36719 19.5177 9.59208 19.9156 9.98998ZM19.5177 14.3495V23.8298L20.5903 22.7572L22.2338 21.0964H26.455L23.5659 18.2766L19.5177 14.3495ZM7.77121 20.6812L7.75391 17.3077L11.1447 17.2904L11.162 20.6985H7.77121V20.6812Z"
            fill="white" fill-rule="evenodd"></path>
    </g>
    <defs>
        <clipPath id="clip0_5874_43354">
            <rect fill="white" height="37.8" width="37.8"></rect>
        </clipPath>
    </defs>
</svg>