<svg width="54" height="54" viewBox="0 0 54 54" fill="none" xmlns="http://www.w3.org/2000/svg">
<!-- Rounded square background -->
<path d="M38.5714 0H15.4286C6.90761 0 0 6.90761 0 15.4286V38.5714C0 47.0924 6.90761 54 15.4286 54H38.5714C47.0924 54 54 47.0924 54 38.5714V15.4286C54 6.90761 47.0924 0 38.5714 0Z" fill="#024a70"/>
<!-- Hard hat brim -->
<path d="M13 30 Q27 20 41 30 L41 33 Q27 23 13 33 Z" fill="white"/>
<!-- Hard hat dome -->
<path d="M18 30 Q18 18 27 17 Q36 18 36 30 Z" fill="white"/>
<!-- Hard hat center ridge -->
<rect x="25" y="13" width="4" height="5" rx="2" fill="white"/>
<!-- Ground / base line -->
<rect x="10" y="38" width="34" height="3" rx="1.5" fill="white"/>
<!-- Building blocks -->
<rect x="14" y="33" width="8" height="5" rx="1" fill="white" opacity="0.7"/>
<rect x="32" y="33" width="8" height="5" rx="1" fill="white" opacity="0.7"/>
</svg>
