<svg fill="none" height="40" viewBox="0 0 40 40" width="40" xmlns="http://www.w3.org/2000/svg">
    <path
        d="M30.1881 0.148438H7.6119C3.40796 0.148438 0 3.5564 0 7.76034V30.3365C0 34.5405 3.40796 37.9484 7.6119 37.9484H30.1881C34.392 37.9484 37.8 34.5405 37.8 30.3365V7.76034C37.8 3.5564 34.392 0.148438 30.1881 0.148438Z"
        fill="#DB4EE0"></path>
    <path
        d="M6.7832 9.03516V12.4268H27.6249V14.9706L20.1124 22.2626V26.2309L17.6704 27.0618V22.2626C17.6704 22.2626 13.2104 17.9383 11.6502 16.412H6.80016L13.6852 23.1105C14.0753 23.4836 14.2957 24.0093 14.2957 24.552V28.5541L23.5041 28.5881V24.552C23.5041 24.0093 23.7245 23.4836 24.1146 23.1105L31.0166 16.395V9.03516H6.7832Z"
        fill="#F1FCFF"></path>
</svg>