<svg fill="none" height="40" viewBox="0 0 40 40" width="40" xmlns="http://www.w3.org/2000/svg">
    <g clip-path="url(#clip0_5821_21479)">
        <path
            d="M30.3345 0.148438H7.46069C3.34026 0.148438 0 3.4887 0 7.60913V30.4829C0 34.6033 3.34026 37.9436 7.46069 37.9436H30.3345C34.4549 37.9436 37.7952 34.6033 37.7952 30.4829V7.60913C37.7952 3.4887 34.4549 0.148438 30.3345 0.148438Z"
            fill="#1C2925"></path>
        <path
            d="M20.6037 12.3717C20.6037 10.5065 19.0946 8.98047 17.2125 8.98047H7.19141V12.3717H17.1955V25.7162H10.5826V16.1868H7.19141V25.7331C7.19141 27.5983 8.7005 29.1243 10.5826 29.1243H27.2166C29.0817 29.1243 30.6078 27.6152 30.6078 25.7331V15.7629C30.6078 13.8977 29.0987 12.3717 27.2166 12.3717H20.5867H20.6037ZM27.2166 25.7331H20.6037V15.7629H27.2166V25.7331Z"
            fill="#FFDE32"></path>
    </g>
    <defs>
        <clipPath id="clip0_5821_21479">
            <rect fill="white" height="37.7952" transform="translate(0 0.148438)" width="37.7952"></rect>
        </clipPath>
    </defs>
</svg>