<svg width="250" height="250" viewBox="-125 82.675 250 250" fill="none" xmlns="http://www.w3.org/2000/svg">
  <path d="M 0 301.96 C 53.636 301.96 97.117 259.747 97.117 207.675 C 97.117 155.603 53.636 113.39 0 113.39 C -53.636 113.39 -97.116 155.603 -97.116 207.675 C -97.116 259.747 -53.636 301.96 0 301.96 Z" stroke="#024a70" stroke-width="13.8414" stroke-linecap="round" style="stroke-width: 13.841;"></path>
  <path d="M -39.59 123.528 C -13.226 133.481 9.32 152.514 23.004 176.369 C 30.352 189.179 35.214 203.425 36.147 218.029 C 37.08 232.634 33.973 247.593 26.374 260.268 C 18.774 272.942 6.563 283.187 -7.869 287.808 C -22.301 292.428 -38.863 291.135 -51.854 283.526 C -63.736 276.568 -72.281 264.332 -73.841 251.036 C -74.621 244.388 -73.699 237.55 -71.1 231.344 C -68.501 225.139 -64.221 219.581 -58.752 215.447 C -53.026 211.119 -46.064 208.391 -38.872 207.295 C -31.679 206.199 -24.265 206.708 -17.208 208.438 C -3.095 211.898 9.334 220.096 19.937 229.703 C 25.337 234.596 30.353 239.892 36.037 244.48 C 41.722 249.067 48.206 252.979 55.45 254.526 C 63.137 256.169 71.439 254.98 78.295 251.256 C 85.152 247.532 90.498 241.307 93.006 234.126" stroke="#024a70" stroke-width="13.8426" stroke-linecap="round" style="stroke-width: 13.843;"></path>
</svg>
