<svg width="250" height="250" viewBox="-125 82.675 250 334.96" fill="none" xmlns="http://www.w3.org/2000/svg">
  <rect width="250" height="250" rx="35" fill="#ffffff" x="-125" y="82.675" style="stroke-width: 1;"></rect>
  <path d="M 0 301.96 C 53.636 301.96 97.117 259.747 97.117 207.675 C 97.117 155.603 53.636 113.39 0 113.39 C -53.636 113.39 -97.116 155.603 -97.116 207.675 C -97.116 259.747 -53.636 301.96 0 301.96 Z" stroke="#024a70" stroke-width="13.8414" stroke-linecap="round" style="stroke-width: 13.841;"></path>
  <path d="M -39.59 123.528 C -13.226 133.481 9.32 152.514 23.004 176.369 C 30.352 189.179 35.214 203.425 36.147 218.029 C 37.08 232.634 33.973 247.593 26.374 260.268 C 18.774 272.942 6.563 283.187 -7.869 287.808 C -22.301 292.428 -38.863 291.135 -51.854 283.526 C -63.736 276.568 -72.281 264.332 -73.841 251.036 C -74.621 244.388 -73.699 237.55 -71.1 231.344 C -68.501 225.139 -64.221 219.581 -58.752 215.447 C -53.026 211.119 -46.064 208.391 -38.872 207.295 C -31.679 206.199 -24.265 206.708 -17.208 208.438 C -3.095 211.898 9.334 220.096 19.937 229.703 C 25.337 234.596 30.353 239.892 36.037 244.48 C 41.722 249.067 48.206 252.979 55.45 254.526 C 63.137 256.169 71.439 254.98 78.295 251.256 C 85.152 247.532 90.498 241.307 93.006 234.126" stroke="#024a70" stroke-width="13.8426" stroke-linecap="round" style="stroke-width: 13.843;"></path>
  <path d="M -90.171 397.762 L -90.171 351.081 L -76.091 351.081 C -70.671 351.081 -66.211 352.048 -62.721 353.982 C -59.231 355.916 -56.631 358.628 -54.921 362.118 C -53.211 365.608 -52.351 369.709 -52.351 374.421 C -52.351 379.089 -53.211 383.18 -54.921 386.692 C -56.631 390.204 -59.231 392.927 -62.721 394.861 C -66.211 396.795 -70.671 397.762 -76.091 397.762 L -90.171 397.762 Z M -80.831 389.76 L -76.561 389.76 C -72.871 389.76 -69.961 389.148 -67.831 387.926 C -65.691 386.703 -64.171 384.947 -63.261 382.658 C -62.351 380.368 -61.891 377.622 -61.891 374.421 C -61.891 371.22 -62.351 368.475 -63.261 366.185 C -64.171 363.896 -65.691 362.129 -67.831 360.884 C -69.961 359.639 -72.871 359.017 -76.561 359.017 L -80.831 359.017 L -80.831 389.76 Z M -31.241 398.562 C -34.581 398.562 -37.531 397.784 -40.111 396.228 C -42.691 394.672 -44.691 392.505 -46.111 389.726 C -47.531 386.947 -48.251 383.78 -48.251 380.223 C -48.251 376.622 -47.521 373.443 -46.081 370.687 C -44.631 367.93 -42.621 365.774 -40.041 364.218 C -37.461 362.662 -34.511 361.884 -31.171 361.884 C -27.791 361.884 -24.841 362.662 -22.301 364.218 C -19.771 365.774 -17.781 367.93 -16.331 370.687 C -14.891 373.443 -14.171 376.622 -14.171 380.223 C -14.171 383.78 -14.891 386.947 -16.331 389.726 C -17.781 392.505 -19.781 394.672 -22.341 396.228 C -24.891 397.784 -27.861 398.562 -31.241 398.562 Z M -31.241 390.493 C -29.731 390.493 -28.411 390.104 -27.271 389.326 C -26.141 388.548 -25.261 387.403 -24.641 385.892 C -24.021 384.38 -23.711 382.491 -23.711 380.223 C -23.711 377.956 -24.001 376.055 -24.601 374.522 C -25.201 372.988 -26.061 371.843 -27.171 371.087 C -28.281 370.331 -29.621 369.953 -31.171 369.953 C -32.691 369.953 -34.011 370.331 -35.141 371.087 C -36.281 371.843 -37.171 372.988 -37.811 374.522 C -38.461 376.055 -38.781 377.956 -38.781 380.223 C -38.781 382.491 -38.461 384.38 -37.841 385.892 C -37.221 387.403 -36.341 388.548 -35.211 389.326 C -34.081 390.104 -32.751 390.493 -31.241 390.493 Z M 12.169 397.762 L -1.771 378.823 L 11.099 362.684 L 22.169 362.684 L 5.239 382.757 L 5.299 375.288 L 23.709 397.762 L 12.169 397.762 Z M -9.771 397.762 L -9.771 349.747 L -0.431 349.747 L -0.431 397.762 L -9.771 397.762 Z M 40.479 398.562 C 37.149 398.562 34.189 397.784 31.609 396.228 C 29.029 394.672 27.029 392.505 25.609 389.726 C 24.189 386.947 23.479 383.78 23.479 380.223 C 23.479 376.622 24.199 373.443 25.639 370.687 C 27.089 367.93 29.099 365.774 31.679 364.218 C 34.259 362.662 37.219 361.884 40.549 361.884 C 43.929 361.884 46.879 362.662 49.419 364.218 C 51.949 365.774 53.939 367.93 55.389 370.687 C 56.829 373.443 57.549 376.622 57.549 380.223 C 57.549 383.78 56.829 386.947 55.389 389.726 C 53.939 392.505 51.939 394.672 49.389 396.228 C 46.829 397.784 43.859 398.562 40.479 398.562 Z M 40.479 390.493 C 41.989 390.493 43.319 390.104 44.449 389.326 C 45.579 388.548 46.459 387.403 47.079 385.892 C 47.709 384.38 48.019 382.491 48.019 380.223 C 48.019 377.956 47.719 376.055 47.119 374.522 C 46.519 372.988 45.659 371.843 44.549 371.087 C 43.439 370.331 42.099 369.953 40.549 369.953 C 39.039 369.953 37.719 370.331 36.579 371.087 C 35.449 371.843 34.559 372.988 33.909 374.522 C 33.269 376.055 32.949 377.956 32.949 380.223 C 32.949 382.491 33.259 384.38 33.879 385.892 C 34.499 387.403 35.379 388.548 36.509 389.326 C 37.649 390.104 38.969 390.493 40.479 390.493 Z M 75.629 398.562 C 72.119 398.562 69.239 398.051 66.989 397.029 C 64.749 396.006 63.069 394.617 61.959 392.86 C 60.849 391.105 60.219 389.137 60.089 386.959 L 69.359 386.959 C 69.489 387.759 69.779 388.503 70.229 389.193 C 70.669 389.882 71.329 390.437 72.189 390.86 C 73.059 391.282 74.159 391.493 75.489 391.493 C 76.609 391.493 77.569 391.327 78.399 390.993 C 79.219 390.66 79.829 390.204 80.229 389.626 C 80.629 389.048 80.829 388.359 80.829 387.559 C 80.829 386.581 80.559 385.803 80.029 385.225 C 79.489 384.647 78.729 384.18 77.729 383.824 C 76.729 383.469 75.469 383.224 73.959 383.091 C 71.919 382.735 70.069 382.313 68.419 381.824 C 66.779 381.335 65.379 380.69 64.219 379.89 C 63.069 379.089 62.199 378.078 61.619 376.856 C 61.039 375.633 60.759 374.155 60.759 372.421 C 60.759 370.42 61.309 368.62 62.419 367.019 C 63.539 365.419 65.159 364.163 67.289 363.251 C 69.419 362.34 71.979 361.884 74.959 361.884 C 79.269 361.884 82.609 362.796 84.969 364.618 C 87.319 366.441 88.719 368.909 89.169 372.021 L 80.429 372.021 C 80.159 371.043 79.549 370.298 78.599 369.787 C 77.639 369.275 76.389 369.02 74.829 369.02 C 73.179 369.02 71.929 369.309 71.059 369.887 C 70.189 370.465 69.759 371.243 69.759 372.221 C 69.759 372.888 69.949 373.488 70.329 374.021 C 70.699 374.555 71.389 375.022 72.389 375.422 C 73.389 375.822 74.759 376.155 76.499 376.422 C 79.739 376.911 82.359 377.511 84.359 378.223 C 86.359 378.934 87.839 379.979 88.799 381.357 C 89.749 382.735 90.209 384.647 90.169 387.092 C 90.169 389.493 89.569 391.549 88.359 393.261 C 87.159 394.972 85.469 396.284 83.299 397.195 C 81.119 398.107 78.559 398.562 75.629 398.562 Z" style="fill: #024a70; text-wrap-mode: nowrap; stroke-width: 1;"></path>
</svg>
