<svg xmlns="http://www.w3.org/2000/svg" xmlns:xlink="http://www.w3.org/1999/xlink" width="379" zoomAndPan="magnify" viewBox="0 0 284.25 449.999982" height="600" preserveAspectRatio="xMidYMid meet" version="1.0"><defs><filter x="0%" y="0%" width="100%" height="100%" id="697f1f01aa"><feColorMatrix values="0 0 0 0 1 0 0 0 0 1 0 0 0 0 1 0 0 0 1 0" color-interpolation-filters="sRGB"/></filter><clipPath id="eaca79049f"><path d="M 0 0.59375 L 283.503906 0.59375 L 283.503906 449.40625 L 0 449.40625 Z M 0 0.59375 " clip-rule="nonzero"/></clipPath><mask id="c5204c7f13"><g filter="url(#697f1f01aa)"><rect x="-28.425" width="341.1" fill="#000000" y="-44.999998" height="539.999978" fill-opacity="0.7"/></g></mask><clipPath id="1cbe126e31"><path d="M 0 0.59375 L 283.503906 0.59375 L 283.503906 449.40625 L 0 449.40625 Z M 0 0.59375 " clip-rule="nonzero"/></clipPath><clipPath id="f583112697"><path d="M 18 0.59375 L 254 0.59375 L 254 246 L 18 246 Z M 18 0.59375 " clip-rule="nonzero"/></clipPath><clipPath id="63e49a68d5"><path d="M 0 280 L 252 280 L 252 282 L 0 282 Z M 0 280 " clip-rule="nonzero"/></clipPath><clipPath id="c6d511c800"><path d="M 164 110 L 283.503906 110 L 283.503906 137 L 164 137 Z M 164 110 " clip-rule="nonzero"/></clipPath><clipPath id="dd8b9287fe"><rect x="0" width="284" y="0" height="450"/></clipPath><clipPath id="d9843a7c42"><rect x="0" width="284" y="0" height="450"/></clipPath></defs><g clip-path="url(#eaca79049f)"><g mask="url(#c5204c7f13)"><g transform="matrix(1, 0, 0, 1, 0, -0.000000000000044187)"><g clip-path="url(#d9843a7c42)"><g clip-path="url(#1cbe126e31)"><g transform="matrix(1, 0, 0, 1, 0, -0.000000000000044187)"><g clip-path="url(#dd8b9287fe)"><g clip-path="url(#f583112697)"><path stroke-linecap="butt" transform="matrix(0.0694827, -0.0730088, 0.0730088, 0.0694827, 20.61454, 242.777455)" fill="none" stroke-linejoin="miter" d="M -0.00318749 2.018941 L 3317.217782 2.004124 " stroke="#a8e6cf" stroke-width="4" stroke-opacity="1" stroke-miterlimit="4"/></g><path stroke-linecap="butt" transform="matrix(0.0695834, -0.0729128, 0.0729128, 0.0695834, 70.801286, 217.862497)" fill="none" stroke-linejoin="miter" d="M -0.000384457 1.975689 L 2756.540672 2.015349 " stroke="#a8e6cf" stroke-width="4" stroke-opacity="1" stroke-miterlimit="4"/><path stroke-linecap="butt" transform="matrix(0.100788, -0.000000000000000075, 0.000000000000000075, 0.100788, 128.266303, 113.237008)" fill="none" stroke-linejoin="miter" d="M -0.00672429 1.989251 L 1220.226915 1.989251 " stroke="#a8e6cf" stroke-width="4" stroke-opacity="1" stroke-miterlimit="4"/><g clip-path="url(#63e49a68d5)"><path stroke-linecap="butt" transform="matrix(0.100788, 0, 0, 0.100788, 0, 280.96985)" fill="none" stroke-linejoin="miter" d="M 0 2.00446 L 2492.867098 2.00446 " stroke="#a8e6cf" stroke-width="4" stroke-opacity="1" stroke-miterlimit="4"/></g><path stroke-linecap="butt" transform="matrix(0, -0.100788, 0.100788, 0, 133.811456, 299.751299)" fill="none" stroke-linejoin="miter" d="M 0.0128895 1.986976 L 1485.191173 1.986976 " stroke="#a8e6cf" stroke-width="4" stroke-opacity="1" stroke-miterlimit="4"/><path stroke-linecap="butt" transform="matrix(0.000404352, -0.100787, 0.100787, 0.000404352, 60.502575, 435.514158)" fill="none" stroke-linejoin="miter" d="M -0.00656747 1.989869 L 2566.94643 2.000881 " stroke="#a8e6cf" stroke-width="4" stroke-opacity="1" stroke-miterlimit="4"/><path stroke-linecap="butt" transform="matrix(0.100788, 0.00000000000000049, -0.00000000000000049, 0.100788, 210.1587, 353.556014)" fill="none" stroke-linejoin="miter" d="M 0.014445 2.002221 L 374.370839 2.002221 " stroke="#a8e6cf" stroke-width="4" stroke-opacity="1" stroke-miterlimit="4"/><path stroke-linecap="butt" transform="matrix(0.0759267, -0.0662817, 0.0662817, 0.0759267, 142.440494, 435.363261)" fill="none" stroke-linejoin="miter" d="M 0.00535021 2.011399 L 1033.698724 2.002327 " stroke="#a8e6cf" stroke-width="4" stroke-opacity="1" stroke-miterlimit="4"/><path stroke-linecap="butt" transform="matrix(0.0866947, -0.0514019, 0.0514019, 0.0866947, 83.457271, 158.476192)" fill="none" stroke-linejoin="miter" d="M 0.698942 100.040861 C 357.924326 -30.685045 705.989625 -30.678196 1044.914605 100.028071 " stroke="#a8e6cf" stroke-width="4" stroke-opacity="1" stroke-miterlimit="4"/><path stroke-linecap="butt" transform="matrix(0.0346222, -0.0946543, 0.0946543, 0.0346222, 37.923008, 277.935494)" fill="none" stroke-linejoin="miter" d="M 0.580745 95.064796 C 409.313918 -29.01815 810.979973 -29.021377 1205.578911 95.055116 " stroke="#a8e6cf" stroke-width="4" stroke-opacity="1" stroke-miterlimit="4"/><path stroke-linecap="butt" transform="matrix(-0.0218035, -0.0984009, 0.0984009, -0.0218035, 59.567664, 368.471978)" fill="none" stroke-linejoin="miter" d="M 0.544728 65.052689 C 288.122448 -19.019363 578.866789 -19.02544 872.77775 65.034458 " stroke="#a8e6cf" stroke-width="4" stroke-opacity="1" stroke-miterlimit="4"/><path stroke-linecap="butt" transform="matrix(-0.071665, -0.0708679, 0.0708679, -0.071665, 138.392037, 449.154041)" fill="none" stroke-linejoin="miter" d="M 0.620647 74.248196 C 304.351364 -22.084486 665.507042 -22.09301 1084.169742 74.250488 " stroke="#a8e6cf" stroke-width="4" stroke-opacity="1" stroke-miterlimit="4"/><g clip-path="url(#c6d511c800)"><path stroke-linecap="butt" transform="matrix(0.0997367, 0.0145162, -0.0145162, 0.0997367, 168.398803, 106.298884)" fill="none" stroke-linejoin="miter" d="M 0.826345 112.264912 C 321.304203 -34.760518 705.520046 -34.752713 1153.42994 112.255555 " stroke="#a8e6cf" stroke-width="4" stroke-opacity="1" stroke-miterlimit="4"/></g><path stroke-linecap="butt" transform="matrix(0.100753, -0.00262422, 0.00262422, 0.100753, 143.200692, 129.064895)" fill="none" stroke-linejoin="miter" d="M 0.722005 128.014917 C 423.042786 -39.988311 779.149743 -40.018071 1069.079603 128.004135 " stroke="#a8e6cf" stroke-width="4" stroke-opacity="1" stroke-miterlimit="4"/><path stroke-linecap="butt" transform="matrix(0.0671742, -0.0751382, 0.0751382, 0.0671742, 69.307951, 212.421174)" fill="none" stroke-linejoin="miter" d="M 0.533768 83.647148 C 396.256141 -25.218844 733.597357 -25.225214 1012.528522 83.653871 " stroke="#a8e6cf" stroke-width="4" stroke-opacity="1" stroke-miterlimit="4"/><path stroke-linecap="butt" transform="matrix(0.00954818, -0.100334, 0.100334, 0.00954818, 57.8608, 317.911771)" fill="none" stroke-linejoin="miter" d="M 0.526773 80.642455 C 382.63716 -24.202604 714.418814 -24.202023 995.910318 80.640528 " stroke="#a8e6cf" stroke-width="4" stroke-opacity="1" stroke-miterlimit="4"/><path stroke-linecap="butt" transform="matrix(-0.0507335, -0.0870876, 0.0870876, -0.0507335, 107.177608, 405.87707)" fill="none" stroke-linejoin="miter" d="M 0.57955 82.355104 C 356.73706 -24.770718 674.487963 -24.776296 953.865748 82.357878 " stroke="#a8e6cf" stroke-width="4" stroke-opacity="1" stroke-miterlimit="4"/><path stroke-linecap="butt" transform="matrix(-0.0893921, -0.046553, 0.046553, -0.0893921, 177.313642, 439.526188)" fill="none" stroke-linejoin="miter" d="M 0.445931 44.632621 C 239.236567 -12.209864 481.720478 -12.201992 727.932039 44.638334 " stroke="#a8e6cf" stroke-width="4" stroke-opacity="1" stroke-miterlimit="4"/><path stroke-linecap="butt" transform="matrix(0.100375, 0.00911452, -0.00911452, 0.100375, 170.444903, 135.07574)" fill="none" stroke-linejoin="miter" d="M 0.623707 68.538391 C 263.194639 -20.178561 536.623537 -20.178429 820.910403 68.538788 " stroke="#a8e6cf" stroke-width="4" stroke-opacity="1" stroke-miterlimit="4"/><path stroke-linecap="butt" transform="matrix(0.0999752, 0.012771, -0.012771, 0.0999752, 179.955094, 144.930094)" fill="none" stroke-linejoin="miter" d="M 0.512678 51.271315 C 251.245703 -14.43801 503.261735 -14.435494 756.555864 51.240418 " stroke="#a8e6cf" stroke-width="4" stroke-opacity="1" stroke-miterlimit="4"/><path stroke-linecap="butt" transform="matrix(-0.0620328, -0.0794359, 0.0794359, -0.0620328, 251.128466, 242.290448)" fill="none" stroke-linejoin="miter" d="M 0.521071 1.936873 C 380.99784 108.406421 767.372846 108.395993 1159.567833 1.942828 " stroke="#a8e6cf" stroke-width="4" stroke-opacity="1" stroke-miterlimit="4"/><path stroke-linecap="butt" transform="matrix(0.0211481, -0.0985439, 0.0985439, 0.0211481, 157.507818, 154.273395)" fill="none" stroke-linejoin="miter" d="M 1.831289 94.425128 C 54.183386 -28.831766 101.952492 -28.816611 145.206264 94.416436 " stroke="#a8e6cf" stroke-width="4" stroke-opacity="1" stroke-miterlimit="4"/><path stroke-linecap="butt" transform="matrix(0.0595792, 0.0812924, -0.0812924, 0.0595792, 177.024145, 148.550628)" fill="none" stroke-linejoin="miter" d="M 0.670106 125.626819 C 460.912423 -39.203553 904.24488 -39.211959 1330.613306 125.609951 " stroke="#a8e6cf" stroke-width="4" stroke-opacity="1" stroke-miterlimit="4"/><path stroke-linecap="butt" transform="matrix(0.0607408, -0.0804281, 0.0804281, 0.0607408, 67.782621, 233.948992)" fill="none" stroke-linejoin="miter" d="M 0.708631 97.02133 C 336.980419 -29.688819 662.915284 -29.697335 978.505656 97.050069 " stroke="#a8e6cf" stroke-width="4" stroke-opacity="1" stroke-miterlimit="4"/><path stroke-linecap="butt" transform="matrix(0.0737794, 0.0686639, -0.0686639, 0.0737794, 142.753556, 151.302022)" fill="none" stroke-linejoin="miter" d="M 0.721932 113.354809 C 377.226682 -35.112684 765.950347 -35.11098 1166.864557 113.386326 " stroke="#a8e6cf" stroke-width="4" stroke-opacity="1" stroke-miterlimit="4"/><path stroke-linecap="butt" transform="matrix(0.0165611, 0.0994176, -0.0994176, 0.0165611, 227.729282, 238.611664)" fill="none" stroke-linejoin="miter" d="M 0.647782 67.205562 C 262.470959 -19.744731 526.818182 -19.715772 793.66396 67.209609 " stroke="#a8e6cf" stroke-width="4" stroke-opacity="1" stroke-miterlimit="4"/><path stroke-linecap="butt" transform="matrix(0.0732023, 0.0692789, -0.0692789, 0.0732023, 143.553988, 163.14335)" fill="none" stroke-linejoin="miter" d="M 0.767314 98.063808 C 310.447785 -30.022278 644.400681 -30.010841 1002.708942 98.072986 " stroke="#a8e6cf" stroke-width="4" stroke-opacity="1" stroke-miterlimit="4"/><path stroke-linecap="butt" transform="matrix(0.0573199, -0.0829009, 0.0829009, 0.0573199, 75.299964, 242.235967)" fill="none" stroke-linejoin="miter" d="M 0.70775 96.539589 C 337.40706 -29.490678 648.386626 -29.504074 933.582689 96.543483 " stroke="#a8e6cf" stroke-width="4" stroke-opacity="1" stroke-miterlimit="4"/><path stroke-linecap="butt" transform="matrix(0, -0.100788, 0.100788, 0, 78.729987, 310.790532)" fill="none" stroke-linejoin="miter" d="M 0.518426 45.77711 C 224.302858 -12.591327 432.77817 -12.591327 625.86685 45.77711 " stroke="#a8e6cf" stroke-width="4" stroke-opacity="1" stroke-miterlimit="4"/><path stroke-linecap="butt" transform="matrix(0.0411224, 0.0920168, -0.0920168, 0.0411224, 191.824196, 197.084677)" fill="none" stroke-linejoin="miter" d="M 0.70586 95.151871 C 335.323545 -29.034462 692.817927 -29.057322 1073.192765 95.169874 " stroke="#a8e6cf" stroke-width="4" stroke-opacity="1" stroke-miterlimit="4"/><path stroke-linecap="butt" transform="matrix(0, -0.100788, 0.100788, 0, 70.897632, 331.253259)" fill="none" stroke-linejoin="miter" d="M 0.458667 60.004233 C 343.770494 -17.316505 664.758139 -17.316505 963.460358 60.004233 " stroke="#a8e6cf" stroke-width="4" stroke-opacity="1" stroke-miterlimit="4"/><path stroke-linecap="butt" transform="matrix(-0.100021, -0.0124096, 0.0124096, -0.100021, 87.400961, 342.977665)" fill="none" stroke-linejoin="miter" d="M 1.976239 117.397764 C 14.870728 -36.475269 53.924819 -36.477976 119.100049 117.394415 " stroke="#a8e6cf" stroke-width="4" stroke-opacity="1" stroke-miterlimit="4"/><path stroke-linecap="butt" transform="matrix(0.100495, -0.00767617, 0.00767617, 0.100495, 79.788026, 266.490984)" fill="none" stroke-linejoin="miter" d="M 1.740699 440.427255 C 337.646052 -144.13772 814.817082 -144.149846 1433.212192 440.426571 " stroke="#a8e6cf" stroke-width="4" stroke-opacity="1" stroke-miterlimit="4"/><path stroke-linecap="butt" transform="matrix(0.0906545, -0.0440442, 0.0440442, 0.0906545, 75.233891, 303.881165)" fill="none" stroke-linejoin="miter" d="M 1.442208 300.448809 C 381.185936 -97.493606 758.718643 -97.459195 1134.004483 300.448446 " stroke="#a8e6cf" stroke-width="4" stroke-opacity="1" stroke-miterlimit="4"/><path stroke-linecap="butt" transform="matrix(0.0806274, 0.0604761, -0.0604761, 0.0806274, 171.86497, 267.703751)" fill="none" stroke-linejoin="miter" d="M 0.28664 33.158034 C 283.026782 -8.379039 548.870599 -8.367576 797.880103 33.145911 " stroke="#a8e6cf" stroke-width="4" stroke-opacity="1" stroke-miterlimit="4"/><path stroke-linecap="butt" transform="matrix(-0.091284, -0.0427243, 0.0427243, -0.091284, 230.642932, 338.613955)" fill="none" stroke-linejoin="miter" d="M 0.861467 1.78659 C 527.29904 256.705606 905.540327 256.706105 1135.585326 1.788089 " stroke="#a8e6cf" stroke-width="4" stroke-opacity="1" stroke-miterlimit="4"/><path stroke-linecap="butt" transform="matrix(-0.0438785, 0.0907348, -0.0907348, -0.0438785, 127.267366, 289.936933)" fill="none" stroke-linejoin="miter" d="M 0.87197 1.879225 C 183.498056 90.374516 397.368728 90.357773 642.500858 1.863887 " stroke="#a8e6cf" stroke-width="4" stroke-opacity="1" stroke-miterlimit="4"/><path stroke-linecap="butt" transform="matrix(0.0689746, 0.073489, -0.073489, 0.0689746, 98.941956, 340.85479)" fill="none" stroke-linejoin="miter" d="M 1.203707 1.615634 C 314.953357 232.360002 622.843718 232.337457 924.876525 1.602783 " stroke="#a8e6cf" stroke-width="4" stroke-opacity="1" stroke-miterlimit="4"/><path stroke-linecap="butt" transform="matrix(0.0803845, -0.0607986, 0.0607986, 0.0803845, 143.418627, 404.173676)" fill="none" stroke-linejoin="miter" d="M 1.153685 1.676285 C 355.406012 248.523913 716.308809 248.535934 1083.800253 1.665591 " stroke="#a8e6cf" stroke-width="4" stroke-opacity="1" stroke-miterlimit="4"/><path stroke-linecap="butt" transform="matrix(-0.0906422, -0.0440695, 0.0440695, -0.0906422, 221.322671, 342.402094)" fill="none" stroke-linejoin="miter" d="M 0.866331 1.816998 C 457.79371 218.070849 778.903039 218.08434 964.125569 1.804707 " stroke="#a8e6cf" stroke-width="4" stroke-opacity="1" stroke-miterlimit="4"/><path stroke-linecap="butt" transform="matrix(-0.0182029, 0.0991302, -0.0991302, -0.0182029, 134.194424, 299.634918)" fill="none" stroke-linejoin="miter" d="M 1.450448 1.576747 C 218.123174 234.750297 474.489137 234.724758 770.600458 1.569371 " stroke="#a8e6cf" stroke-width="4" stroke-opacity="1" stroke-miterlimit="4"/><path stroke-linecap="butt" transform="matrix(0.098208, 0.0226566, -0.0226566, 0.098208, 114.21571, 366.824537)" fill="none" stroke-linejoin="miter" d="M 1.402642 1.463054 C 256.408605 253.039279 517.574987 253.047576 784.93084 1.441467 " stroke="#a8e6cf" stroke-width="4" stroke-opacity="1" stroke-miterlimit="4"/><path stroke-linecap="butt" transform="matrix(0.0576178, -0.0826941, 0.0826941, 0.0576178, 191.067916, 384.690299)" fill="none" stroke-linejoin="miter" d="M 0.657572 1.979917 C 110.542426 39.825555 286.685741 39.818839 529.087519 1.959767 " stroke="#a8e6cf" stroke-width="4" stroke-opacity="1" stroke-miterlimit="4"/><path stroke-linecap="butt" transform="matrix(0.0558624, -0.08389, 0.08389, 0.0558624, 187.436101, 415.894973)" fill="none" stroke-linejoin="miter" d="M 1.14979 1.858613 C 254.288297 179.636277 626.23668 179.629235 1116.984161 1.891228 " stroke="#a8e6cf" stroke-width="4" stroke-opacity="1" stroke-miterlimit="4"/><path stroke-linecap="butt" transform="matrix(0.0527135, -0.0859035, 0.0859035, 0.0527135, 209.966552, 415.842264)" fill="none" stroke-linejoin="miter" d="M 0.496596 1.949009 C 290.812468 73.49029 553.73366 73.488839 789.173834 1.952164 " stroke="#a8e6cf" stroke-width="4" stroke-opacity="1" stroke-miterlimit="4"/><path stroke-linecap="butt" transform="matrix(0.0969556, -0.0275272, 0.0275272, 0.0969556, 210.05278, 415.73237)" fill="none" stroke-linejoin="miter" d="M 0.564262 1.913312 C 163.062757 48.12966 304.322487 48.107522 424.359564 1.932049 " stroke="#a8e6cf" stroke-width="4" stroke-opacity="1" stroke-miterlimit="4"/><path stroke-linecap="butt" transform="matrix(0.100121, -0.0115722, 0.0115722, 0.100121, 187.572062, 423.071405)" fill="none" stroke-linejoin="miter" d="M 0.62187 1.894679 C 226.356617 77.573917 438.09142 77.584001 635.79223 1.88198 " stroke="#a8e6cf" stroke-width="4" stroke-opacity="1" stroke-miterlimit="4"/><path stroke-linecap="butt" transform="matrix(0.0779739, -0.0638608, 0.0638608, 0.0779739, 181.798688, 420.643444)" fill="none" stroke-linejoin="miter" d="M 56.287174 79.577971 C -72.071472 -23.844722 27.18413 -23.861425 354.059407 79.582404 " stroke="#a8e6cf" stroke-width="4" stroke-opacity="1" stroke-miterlimit="4"/><path stroke-linecap="butt" transform="matrix(0.0970395, -0.0272298, 0.0272298, 0.0970395, 214.470049, 434.767161)" fill="none" stroke-linejoin="miter" d="M 0.538518 1.906463 C 164.846692 48.132945 307.67297 48.117536 428.959094 1.924397 " stroke="#a8e6cf" stroke-width="4" stroke-opacity="1" stroke-miterlimit="4"/></g></g></g></g></g></g></g></svg>