<?xml version="1.0" encoding="UTF-8" standalone="no"?>
<!DOCTYPE svg PUBLIC "-//W3C//DTD SVG 1.1//EN" "http://www.w3.org/Graphics/SVG/1.1/DTD/svg11.dtd">
<svg width="120px" height="41px" viewBox="0 0 1762 567" version="1.1" xmlns="http://www.w3.org/2000/svg" xmlns:xlink="http://www.w3.org/1999/xlink" xml:space="preserve" style="fill-rule:evenodd;clip-rule:evenodd;stroke-linejoin:round;stroke-miterlimit:1.41421;">
    <g transform="matrix(1,0,0,1,-34.3208,-23.575)">
        <g transform="matrix(4.16667,0,0,4.16667,0,0)">
            <path d="M112.304,80.571C110.416,80.571 108.323,81.741 106.026,84.079C103.728,86.418 101.758,89.557 100.118,93.497C98.393,97.684 97.531,101.664 97.531,105.438C97.531,110.855 99.09,113.563 102.21,113.563C104.097,113.563 106.189,112.414 108.488,110.117C110.785,107.82 112.776,104.639 114.459,100.574C116.141,96.512 116.982,92.594 116.982,88.819C116.982,83.323 115.422,80.571 112.304,80.571ZM92.977,125.506C85.261,121.73 81.404,114.508 81.404,103.838C81.404,98.094 82.759,92.471 85.467,86.973C88.338,80.983 92.238,76.202 97.162,72.631C102.086,69.061 107.092,67.276 112.182,67.276C115.136,67.276 117.885,67.935 120.43,69.245C128.144,72.938 132.002,80.122 132.002,90.79C132.002,96.534 130.647,102.156 127.939,107.654C125.065,113.646 121.168,118.426 116.244,121.996C111.32,125.566 106.313,127.352 101.225,127.352C98.27,127.352 95.519,126.736 92.977,125.506Z" style="fill:rgb(12,12,23);fill-rule:nonzero;"/>
            <path d="M178.427,89.68C176.046,84.592 173.01,81.721 169.317,81.063C168.905,80.901 168.496,80.817 168.086,80.817C166.116,80.817 163.9,81.926 161.438,84.141C158.73,86.604 156.637,89.805 155.16,93.745C153.929,96.944 153.313,100.105 153.313,103.223C153.313,105.438 153.64,107.49 154.298,109.377C155.282,111.922 156.718,113.193 158.606,113.193C163.531,113.277 168.825,110.445 174.487,104.699L169.932,122.428C165.335,125.301 160.739,126.736 156.144,126.736C153.271,126.736 150.605,126.119 148.143,124.889C140.428,121.195 136.57,114.055 136.57,103.469C136.57,97.807 137.883,92.225 140.51,86.727C143.382,80.901 147.26,76.202 152.144,72.631C157.025,69.061 162.011,67.276 167.102,67.276C173.337,67.276 178.385,69.903 182.242,75.155L178.427,89.68Z" style="fill:rgb(12,12,23);fill-rule:nonzero;"/>
            <path d="M211.464,67.769L196.199,126.244L179.21,126.244L194.475,67.769L211.464,67.769Z" style="fill:rgb(12,12,23);fill-rule:nonzero;"/>
            <path d="M239.517,80.325C237.547,80.325 235.433,81.557 233.177,84.018C230.919,86.481 229.053,89.723 227.575,93.745C226.178,97.436 225.482,101.006 225.482,104.453C225.482,109.951 226.918,112.701 229.791,112.701C231.679,112.701 233.771,111.389 236.07,108.762C238.365,106.137 240.256,102.771 241.732,98.668C243.211,94.975 243.948,91.487 243.948,88.204C243.948,82.954 242.471,80.325 239.517,80.325ZM218.958,125.996C212.311,123.125 208.986,116.518 208.986,106.176C208.986,100.434 210.218,94.688 212.68,88.942C215.388,82.541 219.082,77.309 223.76,73.246C228.438,69.185 233.115,67.153 237.793,67.153C242.39,67.153 246.042,69.042 248.75,72.815L250.104,67.769L266.723,67.769L256.014,109.131C255.848,109.707 255.769,110.238 255.769,110.732C255.769,112.375 256.709,113.193 258.597,113.193C259.664,113.193 260.854,112.947 262.168,112.455L259.092,123.289C254.822,126.16 250.883,127.598 247.273,127.598C243.168,127.598 239.721,125.752 236.932,122.057C232.664,125.34 228.438,126.982 224.252,126.982C222.363,126.982 220.6,126.652 218.958,125.996Z" style="fill:rgb(12,12,23);fill-rule:nonzero;"/>
            <path d="M285.174,126.119L268.186,126.119L280.002,80.571L272.247,80.571L275.57,67.892L283.327,67.892L289.976,42.655L306.965,42.655L300.439,67.892L311.148,67.892L307.702,80.571L297.114,80.571L285.174,126.119Z" style="fill:rgb(12,12,23);fill-rule:nonzero;"/>
            <path d="M321.119,95.959C322.678,96.288 324.238,96.452 325.797,96.452C329.9,96.452 333.266,95.467 335.893,93.497C338.6,91.118 339.954,88.739 339.954,86.356C339.954,85.045 339.463,83.772 338.478,82.541C337.492,81.309 336.342,80.694 335.029,80.694C332.156,80.694 329.244,82.582 326.29,86.356C323.828,89.477 322.104,92.678 321.119,95.959ZM320.135,106.67C320.708,110.199 321.899,112.375 323.705,113.193C324.197,113.521 324.813,113.852 325.551,114.178C331.461,114.262 336.589,112.086 340.939,107.654L336.631,124.15C333.184,126.367 329.49,127.475 325.551,127.475C322.104,127.475 318.656,126.613 315.211,124.889C307.658,121.195 303.884,114.137 303.884,103.715C303.884,98.135 305.195,92.635 307.824,87.219C310.695,81.309 314.676,76.571 319.766,73.001C324.854,69.431 329.982,67.645 335.154,67.645C338.025,67.645 340.693,68.22 343.155,69.368C349.639,71.585 352.881,76.508 352.881,84.141C352.881,85.538 352.757,86.809 352.512,87.957C351.36,93.127 348.242,97.684 343.155,101.621C338.065,105.563 332.526,107.531 326.535,107.531C324.32,107.531 322.184,107.244 320.135,106.67Z" style="fill:rgb(12,12,23);fill-rule:nonzero;"/>
            <path d="M400.953,141.521L394.598,124.119L386.212,99.038L367.623,126.119L345.956,126.119L379.934,76.508L372.055,47.702C369.186,38.329 369.186,38.329 368.238,33.791L387.442,33.791L393.598,56.565L409.233,33.791L430.9,33.791L399.877,79.094L411.68,117.119C412.4,121.143 419.987,141.521 419.987,141.521L400.953,141.521Z" style="fill:url(#_Linear1);"/>
            <path d="M251.879,5.658C251.158,11.374 249.625,17.134 247.286,22.94C244.942,28.749 241.97,34.003 238.368,38.702C234.762,43.404 230.62,47.181 225.938,50.041C221.252,52.897 216.209,54.327 210.806,54.327C207.744,54.327 204.907,53.403 202.293,51.561C199.684,49.716 198.375,47.042 198.375,43.542C198.375,40.224 199.413,37.597 201.483,35.661C203.556,33.726 206.212,32.758 209.454,32.758C212.52,32.758 214.77,33.816 216.209,35.938C217.654,38.056 218.371,40.13 218.371,42.16C218.371,43.819 218.193,44.925 217.832,45.478C222.514,45.106 226.702,43.633 230.396,41.054C234.088,38.47 237.287,35.247 239.989,31.376C242.691,27.505 244.896,23.309 246.609,18.794C248.32,14.278 249.536,9.901 250.258,5.658L251.879,5.658Z" style="fill:rgb(186,31,44);fill-rule:nonzero;"/>
            <path d="M95.327,54.327L98.939,54.327L102.296,38.535L92.72,38.535L91.952,42.147L96.992,42.147C95.599,48.699 93.693,51.345 90.048,51.303C86.814,51.303 85.735,48.867 87.789,39.207C89.824,29.631 92.112,27.363 95.514,27.363C98.79,27.363 99.152,30.009 98.679,32.235L98.527,32.949L103.063,32.949L103.179,32.403C103.759,29.673 103.758,23.751 96.24,23.751C89.31,23.751 85.25,28.623 82.974,39.333C80.697,50.043 82.014,54.915 88.566,54.915C92.094,54.915 94.093,53.613 95.984,50.841L96.068,50.841L95.327,54.327Z" style="fill:rgb(186,31,44);fill-rule:nonzero;"/>
            <path d="M102.76,54.327L107.296,54.327L110.171,40.803C111.063,36.603 113.738,35.679 115.796,35.679C116.552,35.679 117.314,35.847 117.632,35.931L118.614,31.311C118.338,31.227 118.062,31.143 117.558,31.143C114.996,31.143 112.977,32.739 111.433,35.259L111.349,35.259L112.099,31.731L107.563,31.731L102.76,54.327Z" style="fill:rgb(186,31,44);fill-rule:nonzero;"/>
            <path d="M117.509,43.029C116.018,50.043 117.125,54.915 123.383,54.915C129.683,54.915 132.86,50.043 134.351,43.029C135.842,36.015 135.03,31.143 128.436,31.143C121.884,31.143 119,36.015 117.509,43.029ZM122.045,43.029C123.107,38.031 124.445,34.503 127.721,34.503C131.039,34.503 130.877,38.031 129.815,43.029C128.592,48.783 127.415,51.555 124.097,51.555C120.821,51.555 120.822,48.783 122.045,43.029Z" style="fill:rgb(186,31,44);fill-rule:nonzero;"/>
            <path d="M146.986,54.327L151.27,54.327L156.073,31.731L151.537,31.731L148.18,47.523C147.645,50.043 145.613,51.303 143.681,51.303C141.749,51.303 140.793,50.463 141.329,47.943L144.775,31.731L140.239,31.731L136.882,47.523C135.641,53.361 137.579,54.915 140.939,54.915C143.459,54.915 145.86,53.697 147.422,51.681L147.548,51.681L146.986,54.327Z" style="fill:rgb(186,31,44);fill-rule:nonzero;"/>
            <path d="M154.066,61.719L158.602,61.719L160.736,51.681L160.82,51.681C161.231,53.697 162.82,54.915 165.256,54.915C168.364,54.915 172.675,52.815 174.692,43.323C176.344,35.553 175.181,31.143 170.015,31.143C167.537,31.143 165.571,32.487 164.219,34.503L164.135,34.503L164.724,31.731L160.44,31.731L154.066,61.719ZM162.376,42.777C163.403,37.947 164.795,34.755 167.903,34.755C171.053,34.755 171.038,37.989 169.949,43.113C168.619,49.371 167.032,51.303 164.428,51.303C161.236,51.303 161.225,48.195 162.376,42.777Z" style="fill:rgb(186,31,44);fill-rule:nonzero;"/>
            <path d="M193.823,43.617L194.332,41.223C195.671,34.923 194.795,31.143 188.495,31.143C181.397,31.143 178.798,37.443 177.539,43.365C175.316,53.823 179.662,54.915 183.358,54.915C188.272,54.915 191.965,51.765 193.028,46.767L188.744,46.767C188.458,48.111 187.294,51.807 184.06,51.807C180.658,51.807 181.102,47.943 181.745,44.919L182.021,43.617L193.823,43.617ZM182.682,40.509L182.78,40.047C183.405,37.107 184.894,34.251 187.792,34.251C190.354,34.251 190.814,36.435 190.207,39.291L189.948,40.509L182.682,40.509Z" style="fill:rgb(186,31,44);fill-rule:nonzero;"/>
            <path d="M48.814,48.804C51.33,47.187 53.757,46.425 56.095,46.513C65.8,46.603 72.024,49.986 78.765,54.658L78.9,53.765C76.315,51.696 76.11,47.05 77.724,39.455C78.236,37.046 78.844,34.948 79.548,33.118C78.377,32.212 76.749,31.243 73.323,30.139C67.822,28.366 64.675,28.313 60.543,28.313C51.916,28.313 43.961,31.056 36.682,36.537C33.626,38.784 21.904,48.819 23.335,63.903C23.786,68.647 25.402,73.296 29.537,77.788C30.345,78.596 31.964,79.723 34.389,81.159L44.906,87.225C50.656,90.461 53.534,94.956 53.534,100.705C53.534,104.75 51.69,107.896 48.006,110.143C44.949,111.941 41.219,112.838 36.816,112.838C28.637,112.838 20.775,110.771 13.225,106.639L8.237,125.51C12.999,127.219 16.684,128.435 19.291,129.15C25.042,131.037 30.66,131.982 36.142,131.982C46.208,131.982 54.477,129.243 60.947,123.758C69.037,116.93 73.35,109.02 73.889,100.033C74.429,92.303 72.495,85.832 68.092,80.62C65.126,77.026 59.778,73.026 52.05,68.622C45.309,64.847 42.389,60.759 43.288,56.353C43.915,53.208 45.758,50.692 48.814,48.804Z" style="fill:rgb(12,12,23);fill-rule:nonzero;"/>
        </g>
    </g>
    <defs>
        <linearGradient id="_Linear1" x1="0" y1="0" x2="1" y2="0" gradientUnits="userSpaceOnUse" gradientTransform="matrix(82.4261,64.3983,-64.3983,82.4261,355.018,53.8511)"><stop offset="0" style="stop-color:black;stop-opacity:1"/><stop offset="0.5" style="stop-color:black;stop-opacity:1"/><stop offset="0.6" style="stop-color:rgb(162,36,43);stop-opacity:1"/><stop offset="0.7" style="stop-color:rgb(156,71,59);stop-opacity:1"/><stop offset="0.8" style="stop-color:rgb(124,79,68);stop-opacity:1"/><stop offset="0.9" style="stop-color:rgb(89,71,67);stop-opacity:1"/><stop offset="1" style="stop-color:rgb(35,31,32);stop-opacity:1"/></linearGradient>
    </defs>
</svg>
