<svg xmlns="http://www.w3.org/2000/svg" xmlns:xlink="http://www.w3.org/1999/xlink" width="1080" zoomAndPan="magnify" viewBox="0 0 810 809.999993" height="1080" preserveAspectRatio="xMidYMid meet" version="1.0"><defs><g/></defs><rect x="-81" width="972" fill="#ffffff" y="-80.999999" height="971.999992" fill-opacity="1"/><rect x="-81" width="972" fill="#ffffff" y="-80.999999" height="971.999992" fill-opacity="1"/><path fill="#162351" d="M 726.132812 172.746094 L 726.132812 202.234375 C 726.132812 205.402344 723.5625 207.976562 720.394531 207.976562 L 709.976562 207.976562 C 710.394531 195.902344 710.792969 178.480469 710.792969 167.003906 L 720.394531 167.003906 C 723.5625 167.003906 726.132812 169.578125 726.132812 172.746094 Z M 726.132812 172.746094 " fill-opacity="1" fill-rule="nonzero"/><path fill="#162351" d="M 232.9375 373.085938 C 232.773438 373.085938 232.605469 373.078125 232.4375 373.0625 C 230.929688 373.0625 229.800781 371.726562 229.910156 370.503906 C 233.671875 326.457031 228.15625 297.878906 227.679688 261.550781 C 227.5 249.117188 223.730469 235.949219 216.78125 223.472656 C 216.148438 222.335938 216.558594 220.902344 217.691406 220.269531 C 218.832031 219.636719 220.257812 220.046875 220.890625 221.179688 C 228.21875 234.335938 232.195312 248.273438 232.386719 261.484375 C 232.847656 296.882812 238.265625 325.625 234.726562 369.355469 C 235.019531 369.742188 235.199219 370.21875 235.199219 370.726562 C 235.199219 372.027344 234.238281 373.085938 232.9375 373.085938 Z M 232.9375 373.085938 " fill-opacity="1" fill-rule="nonzero"/><path fill="#162351" d="M 234.148438 373.121094 C 233.804688 373.121094 233.464844 373.109375 233.121094 373.0625 C 231.835938 372.871094 230.945312 371.675781 231.132812 370.394531 C 231.320312 369.109375 232.539062 368.238281 233.800781 368.40625 C 233.921875 368.421875 234.035156 368.414062 234.148438 368.414062 C 235.445312 368.414062 236.5 369.46875 236.5 370.765625 C 236.5 372.066406 235.445312 373.121094 234.148438 373.121094 Z M 234.148438 373.121094 " fill-opacity="1" fill-rule="nonzero"/><path fill="#162351" d="M 444.988281 368.1875 C 443.71875 368.1875 442.671875 367.175781 442.632812 365.902344 C 442.597656 364.601562 443.621094 363.519531 444.917969 363.480469 L 517.199219 361.410156 C 585.527344 359.433594 593.886719 360.941406 602.042969 360.984375 C 624.742188 361.746094 648.210938 362.523438 670.011719 356.507812 C 695.472656 349.46875 698.765625 322.613281 701.617188 296.964844 C 706.160156 255.914062 707.523438 218.238281 708.324219 179.902344 C 709.097656 122.972656 707.753906 135.183594 710.523438 105.761719 C 713.210938 77.144531 716.261719 44.710938 703.039062 24.191406 C 690.570312 4.878906 655.277344 5.65625 638.285156 6.042969 C 578.449219 7.382812 516.953125 8.144531 457.484375 8.886719 C 313.445312 10.667969 297.585938 11.460938 262 11.867188 C 241.890625 12.097656 221.097656 12.335938 200.824219 13.6875 C 175.222656 15.402344 169.417969 28.128906 167.664062 51.019531 C 167.074219 58.996094 166.683594 65.472656 166.441406 71.390625 C 166.386719 72.691406 165.265625 73.765625 163.992188 73.640625 C 162.695312 73.589844 161.683594 72.492188 161.742188 71.195312 C 161.984375 65.226562 162.378906 58.703125 162.96875 50.664062 C 164.835938 26.363281 171.769531 10.914062 200.511719 8.996094 C 229.09375 7.085938 258.257812 7.386719 286.953125 6.796875 C 343.589844 5.59375 401.460938 4.878906 457.425781 4.183594 C 516.882812 3.445312 578.367188 2.679688 638.183594 1.335938 C 656.015625 0.929688 693.097656 0.117188 706.996094 21.640625 C 725.59375 50.511719 714.199219 99.65625 713.363281 131.113281 C 713.363281 252.113281 706.714844 289.648438 706.097656 299.226562 C 703.574219 321.949219 700.113281 353.066406 671.265625 361.042969 C 646.8125 367.785156 620.511719 366.3125 594.710938 365.457031 C 562.707031 364.453125 535.839844 365.574219 445.054688 368.1875 C 445.03125 368.1875 445.007812 368.1875 444.988281 368.1875 Z M 444.988281 368.1875 " fill-opacity="1" fill-rule="nonzero"/><path fill="#162351" d="M 263.609375 50.417969 C 263.609375 51.15625 263.535156 51.886719 263.390625 52.613281 C 263.246094 53.335938 263.03125 54.039062 262.75 54.722656 C 262.464844 55.402344 262.117188 56.050781 261.703125 56.664062 C 261.292969 57.28125 260.824219 57.847656 260.300781 58.371094 C 259.777344 58.890625 259.207031 59.359375 258.589844 59.769531 C 257.972656 60.179688 257.324219 60.527344 256.636719 60.808594 C 255.953125 61.089844 255.246094 61.304688 254.519531 61.449219 C 253.792969 61.59375 253.058594 61.664062 252.316406 61.664062 C 251.574219 61.664062 250.839844 61.59375 250.113281 61.449219 C 249.386719 61.304688 248.679688 61.089844 247.996094 60.808594 C 247.3125 60.527344 246.660156 60.179688 246.042969 59.769531 C 245.429688 59.359375 244.859375 58.890625 244.332031 58.371094 C 243.808594 57.847656 243.339844 57.28125 242.929688 56.664062 C 242.519531 56.050781 242.167969 55.402344 241.886719 54.722656 C 241.601562 54.039062 241.386719 53.335938 241.242188 52.613281 C 241.097656 51.886719 241.027344 51.15625 241.027344 50.417969 C 241.027344 49.679688 241.097656 48.949219 241.242188 48.222656 C 241.386719 47.5 241.601562 46.796875 241.886719 46.113281 C 242.167969 45.429688 242.519531 44.785156 242.929688 44.167969 C 243.339844 43.554688 243.808594 42.988281 244.332031 42.464844 C 244.859375 41.941406 245.429688 41.476562 246.042969 41.066406 C 246.660156 40.65625 247.3125 40.308594 247.996094 40.027344 C 248.679688 39.746094 249.386719 39.53125 250.113281 39.386719 C 250.839844 39.242188 251.574219 39.171875 252.316406 39.171875 C 253.058594 39.171875 253.792969 39.242188 254.519531 39.386719 C 255.246094 39.53125 255.953125 39.746094 256.636719 40.027344 C 257.324219 40.308594 257.972656 40.65625 258.589844 41.066406 C 259.207031 41.476562 259.777344 41.941406 260.300781 42.464844 C 260.824219 42.988281 261.292969 43.554688 261.703125 44.167969 C 262.117188 44.785156 262.464844 45.429688 262.75 46.113281 C 263.03125 46.796875 263.246094 47.5 263.390625 48.222656 C 263.535156 48.949219 263.609375 49.679688 263.609375 50.417969 Z M 263.609375 50.417969 " fill-opacity="1" fill-rule="nonzero"/><path fill="#162351" d="M 313.175781 50.417969 C 313.175781 51.15625 313.105469 51.886719 312.960938 52.613281 C 312.816406 53.335938 312.601562 54.039062 312.316406 54.722656 C 312.035156 55.402344 311.6875 56.050781 311.273438 56.664062 C 310.863281 57.28125 310.394531 57.847656 309.871094 58.371094 C 309.347656 58.890625 308.777344 59.359375 308.160156 59.769531 C 307.542969 60.179688 306.890625 60.527344 306.207031 60.808594 C 305.523438 61.089844 304.816406 61.304688 304.089844 61.449219 C 303.363281 61.59375 302.628906 61.664062 301.886719 61.664062 C 301.144531 61.664062 300.410156 61.59375 299.683594 61.449219 C 298.957031 61.304688 298.25 61.089844 297.566406 60.808594 C 296.882812 60.527344 296.230469 60.179688 295.613281 59.769531 C 294.996094 59.359375 294.425781 58.890625 293.902344 58.371094 C 293.378906 57.847656 292.910156 57.28125 292.5 56.664062 C 292.085938 56.050781 291.738281 55.402344 291.457031 54.722656 C 291.171875 54.039062 290.957031 53.335938 290.8125 52.613281 C 290.667969 51.886719 290.597656 51.15625 290.597656 50.417969 C 290.597656 49.679688 290.667969 48.949219 290.8125 48.222656 C 290.957031 47.5 291.171875 46.796875 291.457031 46.113281 C 291.738281 45.429688 292.085938 44.785156 292.5 44.167969 C 292.910156 43.554688 293.378906 42.988281 293.902344 42.464844 C 294.425781 41.941406 294.996094 41.476562 295.613281 41.066406 C 296.230469 40.65625 296.882812 40.308594 297.566406 40.027344 C 298.25 39.746094 298.957031 39.53125 299.683594 39.386719 C 300.410156 39.242188 301.144531 39.171875 301.886719 39.171875 C 302.628906 39.171875 303.363281 39.242188 304.089844 39.386719 C 304.816406 39.53125 305.523438 39.746094 306.207031 40.027344 C 306.890625 40.308594 307.542969 40.65625 308.160156 41.066406 C 308.777344 41.476562 309.347656 41.941406 309.871094 42.464844 C 310.394531 42.988281 310.863281 43.554688 311.273438 44.167969 C 311.6875 44.785156 312.035156 45.429688 312.316406 46.113281 C 312.601562 46.796875 312.816406 47.5 312.960938 48.222656 C 313.105469 48.949219 313.175781 49.679688 313.175781 50.417969 Z M 313.175781 50.417969 " fill-opacity="1" fill-rule="nonzero"/><path fill="#b9e1c9" d="M 357.832031 50.988281 C 357.832031 51.726562 357.761719 52.457031 357.617188 53.183594 C 357.472656 53.90625 357.257812 54.609375 356.972656 55.292969 C 356.691406 55.976562 356.34375 56.621094 355.929688 57.238281 C 355.519531 57.851562 355.050781 58.417969 354.527344 58.941406 C 354.003906 59.464844 353.433594 59.929688 352.816406 60.339844 C 352.199219 60.75 351.546875 61.097656 350.863281 61.378906 C 350.179688 61.660156 349.472656 61.875 348.746094 62.019531 C 348.019531 62.164062 347.285156 62.234375 346.542969 62.234375 C 345.800781 62.234375 345.066406 62.164062 344.339844 62.019531 C 343.613281 61.875 342.90625 61.660156 342.222656 61.378906 C 341.539062 61.097656 340.886719 60.75 340.269531 60.339844 C 339.652344 59.929688 339.082031 59.464844 338.558594 58.941406 C 338.035156 58.417969 337.566406 57.851562 337.15625 57.238281 C 336.742188 56.621094 336.394531 55.976562 336.113281 55.292969 C 335.828125 54.609375 335.613281 53.90625 335.46875 53.183594 C 335.324219 52.457031 335.253906 51.726562 335.253906 50.988281 C 335.253906 50.25 335.324219 49.519531 335.46875 48.792969 C 335.613281 48.070312 335.828125 47.367188 336.113281 46.683594 C 336.394531 46.003906 336.742188 45.355469 337.15625 44.742188 C 337.566406 44.125 338.035156 43.558594 338.558594 43.035156 C 339.082031 42.515625 339.652344 42.046875 340.269531 41.636719 C 340.886719 41.226562 341.539062 40.878906 342.222656 40.597656 C 342.90625 40.316406 343.613281 40.101562 344.339844 39.957031 C 345.066406 39.8125 345.800781 39.742188 346.542969 39.742188 C 347.285156 39.742188 348.019531 39.8125 348.746094 39.957031 C 349.472656 40.101562 350.179688 40.316406 350.863281 40.597656 C 351.546875 40.878906 352.199219 41.226562 352.816406 41.636719 C 353.433594 42.046875 354.003906 42.515625 354.527344 43.035156 C 355.050781 43.558594 355.519531 44.125 355.929688 44.742188 C 356.34375 45.355469 356.691406 46.003906 356.972656 46.683594 C 357.257812 47.367188 357.472656 48.070312 357.617188 48.792969 C 357.761719 49.519531 357.832031 50.25 357.832031 50.988281 Z M 357.832031 50.988281 " fill-opacity="1" fill-rule="nonzero"/><path fill="#162351" d="M 256.765625 95.953125 C 255.476562 95.953125 254.425781 94.914062 254.414062 93.621094 C 254.402344 92.320312 255.445312 91.257812 256.746094 91.246094 L 660.484375 87.59375 C 660.492188 87.59375 660.5 87.59375 660.507812 87.59375 C 661.796875 87.59375 662.847656 88.632812 662.859375 89.925781 C 662.871094 91.222656 661.828125 92.289062 660.527344 92.300781 L 256.789062 95.953125 C 256.78125 95.953125 256.773438 95.953125 256.765625 95.953125 Z M 256.765625 95.953125 " fill-opacity="1" fill-rule="nonzero"/><path fill="#b9e1c9" d="M 628.3125 330.789062 L 502.617188 330.789062 C 493.851562 330.789062 486.722656 323.660156 486.722656 314.894531 L 486.722656 249.601562 C 486.722656 240.835938 493.851562 233.707031 502.617188 233.707031 L 628.3125 233.707031 C 637.074219 233.707031 644.203125 240.835938 644.203125 249.601562 L 644.203125 314.894531 C 644.203125 323.660156 637.074219 330.789062 628.3125 330.789062 Z M 502.617188 238.414062 C 496.445312 238.414062 491.425781 243.433594 491.425781 249.601562 L 491.425781 314.894531 C 491.425781 321.066406 496.445312 326.085938 502.617188 326.085938 L 628.3125 326.085938 C 634.480469 326.085938 639.5 321.066406 639.5 314.894531 L 639.5 249.601562 C 639.5 243.433594 634.480469 238.414062 628.3125 238.414062 Z M 502.617188 238.414062 " fill-opacity="1" fill-rule="nonzero"/><path fill="#162351" d="M 565.742188 256.03125 C 551.953125 256.03125 540.773438 267.167969 540.773438 280.90625 C 540.773438 294.617188 551.953125 305.753906 565.742188 305.753906 C 579.535156 305.753906 590.714844 294.617188 590.714844 280.90625 C 590.714844 267.167969 579.535156 256.03125 565.742188 256.03125 Z M 558.011719 291.550781 L 558.011719 271.4375 L 580.960938 280.5625 Z M 558.011719 291.550781 " fill-opacity="1" fill-rule="nonzero"/><path fill="#b9e1c9" d="M 311.136719 285.390625 C 290.761719 284.675781 273.589844 284.058594 263.824219 283.730469 C 258.730469 283.539062 254.195312 287.308594 252.824219 292.839844 L 249.132812 307.703125 C 247.828125 312.289062 246.390625 317.589844 244.890625 323.347656 C 235.09375 316.027344 225.757812 307.960938 220.042969 297.261719 L 197.125 198.066406 C 286.472656 267.152344 269.804688 253.738281 311.136719 285.390625 Z M 311.136719 285.390625 " fill-opacity="1" fill-rule="nonzero"/><path fill="#b9e1c9" d="M 256.199219 679.53125 C 261.0625 664.332031 278.804688 651.613281 294.011719 648.234375 C 295.117188 647.992188 296.222656 647.871094 297.324219 647.835938 C 298.050781 603.140625 277.039062 562.894531 241.261719 536.117188 C 241.261719 536.117188 241.261719 536.085938 241.234375 536.117188 C 202.667969 507.492188 153.367188 500.335938 109.660156 512.746094 C 45.226562 531.003906 0.0820312 589.792969 4.570312 656.175781 C 9.746094 732.84375 79.453125 790.753906 160.199219 785.328125 C 194.363281 783.039062 225.042969 769.800781 248.699219 749.472656 C 248.636719 747.308594 248.699219 745.140625 249.011719 743.007812 C 249.042969 743.386719 249.074219 743.792969 249.074219 744.199219 C 250.1875 739.945312 245.054688 759.558594 259.898438 702.855469 C 255.078125 696.175781 253.621094 687.601562 256.199219 679.53125 Z M 109.566406 708.941406 L 101.976562 596.445312 L 239.820312 638.480469 Z M 109.566406 708.941406 " fill-opacity="1" fill-rule="nonzero"/><path fill="#162351" d="M 363.160156 745.039062 C 361.863281 744.945312 360.886719 743.820312 360.980469 742.523438 L 362.175781 725.996094 C 362.265625 724.691406 363.492188 723.738281 364.691406 723.816406 C 365.984375 723.910156 366.964844 725.035156 366.867188 726.332031 L 365.671875 742.863281 C 365.585938 744.097656 364.542969 745.117188 363.160156 745.039062 Z M 363.160156 745.039062 " fill-opacity="1" fill-rule="nonzero"/><path fill="#162351" d="M 410.519531 738.9375 L 409.300781 726.390625 C 409.171875 725.097656 410.117188 723.949219 411.414062 723.824219 C 412.679688 723.667969 413.859375 724.640625 413.980469 725.9375 L 415.203125 738.484375 C 415.332031 739.777344 414.382812 740.925781 413.089844 741.050781 C 411.871094 741.199219 410.648438 740.277344 410.519531 738.9375 Z M 410.519531 738.9375 " fill-opacity="1" fill-rule="nonzero"/><path fill="#162351" d="M 435.628906 751.222656 C 434.742188 756.21875 431.707031 760.496094 427.742188 762.75 C 429.496094 763.484375 431.398438 764.234375 433.253906 764.570312 C 440.421875 765.867188 447.1875 761.132812 447.902344 755.417969 C 447.972656 754.851562 448.265625 754.382812 448.648438 754.019531 C 444.398438 753.554688 440.523438 752.757812 435.617188 750.667969 C 435.628906 750.851562 435.664062 751.03125 435.628906 751.222656 Z M 435.628906 751.222656 " fill-opacity="1" fill-rule="nonzero"/><path fill="#162351" d="M 413.65625 756.371094 C 416.308594 757.707031 419.011719 758.957031 421.753906 760.167969 C 422.054688 759.914062 422.398438 759.703125 422.816406 759.628906 C 426.730469 758.917969 430.171875 755.035156 431 750.398438 C 431.109375 749.769531 431.46875 749.25 431.953125 748.90625 C 429.785156 747.753906 427.683594 746.429688 425.667969 744.941406 C 423.378906 748.6875 417.121094 753.671875 413.65625 756.371094 Z M 413.65625 756.371094 " fill-opacity="1" fill-rule="nonzero"/><path fill="#162351" d="M 409.113281 753.960938 C 412.109375 751.714844 419.875 745.585938 421.78125 742.304688 C 421.847656 742.191406 421.953125 742.121094 422.035156 742.019531 C 419.917969 740.148438 418.492188 738.007812 416.769531 736.683594 C 415.292969 735.550781 415.871094 735.601562 414.519531 736.929688 C 413.761719 737.671875 413.105469 738.542969 412.324219 739.261719 C 408.117188 743.132812 402.863281 745.09375 397.078125 745.816406 C 400.871094 748.945312 404.902344 751.605469 409.113281 753.960938 Z M 409.113281 753.960938 " fill-opacity="1" fill-rule="nonzero"/><path fill="#162351" d="M 485.925781 792.136719 C 485.894531 792.386719 485.832031 792.605469 485.832031 792.859375 C 485.429688 792.859375 364.410156 799.578125 364.019531 799.632812 C 364.390625 795.488281 364.113281 791.359375 363.234375 787.648438 C 363.75 787.621094 483.671875 780.558594 483.792969 780.496094 L 484.484375 780.464844 L 484.324219 778.207031 C 485.003906 780.578125 485.5625 782.585938 485.863281 786.175781 C 486.085938 788.859375 485.925781 791.332031 485.925781 792.136719 Z M 485.925781 792.136719 " fill-opacity="1" fill-rule="nonzero"/><path fill="#162351" d="M 483.542969 775.824219 C 482.972656 775.824219 450.390625 777.710938 361.886719 783.007812 C 360.675781 779.679688 359.070312 776.703125 356.773438 773.878906 C 357.179688 765.25 358.496094 756.59375 359.816406 748.152344 C 360.191406 745.832031 359.816406 743.917969 360.820312 741.878906 C 368.285156 744.484375 376.066406 745.363281 383.75 745.894531 C 386.292969 746.050781 388.832031 746.175781 391.34375 746.144531 C 391.375 746.773438 391.625 747.371094 392.125 747.839844 C 401.976562 756.5625 413.332031 761.738281 425.066406 766.726562 C 428.734375 768.296875 431.800781 769.484375 435.640625 769.484375 C 443.867188 769.484375 451.601562 763.824219 452.578125 755.996094 C 452.640625 755.402344 452.484375 754.804688 452.140625 754.363281 C 454.835938 754.585938 457.566406 754.773438 460.234375 755.210938 C 470.03125 756.882812 478.882812 763.527344 483.542969 775.824219 Z M 483.542969 775.824219 " fill-opacity="1" fill-rule="nonzero"/><path fill="#162351" d="M 199.832031 417.210938 L 178.121094 417.210938 C 179.769531 414.472656 191.53125 416.9375 195.164062 417.046875 C 196.730469 417.113281 198.300781 417.175781 199.832031 417.210938 Z M 199.832031 417.210938 " fill-opacity="1" fill-rule="nonzero"/><path fill="#162351" d="M 235.367188 535.300781 C 238.382812 536.03125 240.949219 536.320312 242.894531 536.617188 C 242.394531 536.398438 237.507812 535.554688 235.367188 535.300781 Z M 235.367188 535.300781 " fill-opacity="1" fill-rule="nonzero"/><path fill="#162351" d="M 300.660156 742.558594 C 299.367188 742.445312 298.414062 741.304688 298.527344 740.007812 L 300.910156 713.125 C 301.023438 711.828125 302.164062 710.875 303.460938 710.988281 C 304.753906 711.101562 305.710938 712.246094 305.597656 713.539062 L 303.214844 740.421875 C 303.101562 741.699219 301.976562 742.671875 300.660156 742.558594 Z M 300.660156 742.558594 " fill-opacity="1" fill-rule="nonzero"/><path fill="#162351" d="M 250.867188 737.378906 C 249.605469 737.050781 248.855469 735.765625 249.183594 734.507812 L 255.488281 710.417969 C 255.820312 709.152344 257.125 708.414062 258.359375 708.734375 C 259.617188 709.0625 260.371094 710.347656 260.042969 711.605469 L 253.738281 735.695312 C 253.40625 736.964844 252.113281 737.703125 250.867188 737.378906 Z M 250.867188 737.378906 " fill-opacity="1" fill-rule="nonzero"/><path fill="#162351" d="M 320.992188 756.648438 C 319.203125 761.402344 315.433594 765.054688 311.121094 766.550781 C 312.714844 767.589844 314.449219 768.671875 316.210938 769.339844 C 322.550781 771.742188 330.410156 768.902344 332.289062 763 C 332.460938 762.460938 332.828125 762.054688 333.265625 761.769531 C 329.273438 760.578125 325.59375 759.101562 321.078125 756.105469 C 321.058594 756.289062 321.058594 756.46875 320.992188 756.648438 Z M 320.992188 756.648438 " fill-opacity="1" fill-rule="nonzero"/><path fill="#162351" d="M 298.441406 757.726562 C 300.804688 759.515625 303.234375 761.238281 305.707031 762.925781 C 306.046875 762.730469 306.425781 762.589844 306.84375 762.589844 C 306.859375 762.59375 306.863281 762.589844 306.871094 762.589844 C 310.847656 762.589844 314.929688 759.398438 316.585938 754.992188 C 316.808594 754.394531 317.253906 753.949219 317.789062 753.695312 C 315.875 752.175781 314.058594 750.492188 312.351562 748.664062 C 309.417969 751.925781 302.328125 755.707031 298.441406 757.726562 Z M 298.441406 757.726562 " fill-opacity="1" fill-rule="nonzero"/><path fill="#162351" d="M 237.324219 778.597656 L 237.242188 776.457031 C 236.84375 780.144531 236.660156 783.855469 236.839844 787.585938 C 236.902344 788.746094 237.46875 789.910156 238.125 790.789062 C 242.023438 791.285156 361.386719 806.519531 362.761719 806.691406 C 362.804688 806.367188 364.472656 801.675781 364.109375 794.242188 C 363.71875 794.273438 237.011719 778.558594 237.324219 778.597656 Z M 237.324219 778.597656 " fill-opacity="1" fill-rule="nonzero"/><path fill="#162351" d="M 294.417969 754.527344 C 297.820312 752.835938 306.535156 748.238281 309.003906 745.363281 C 309.09375 745.261719 309.210938 745.207031 309.3125 745.125 C 307.296875 742.527344 306.609375 740.597656 305.105469 738.929688 C 303.847656 737.550781 304.414062 737.707031 302.84375 738.773438 C 301.964844 739.371094 301.152344 740.089844 300.273438 740.65625 C 295.378906 743.742188 289.871094 744.667969 284.070312 744.339844 C 287.226562 748.101562 290.707031 751.453125 294.417969 754.527344 Z M 294.417969 754.527344 " fill-opacity="1" fill-rule="nonzero"/><path fill="#162351" d="M 237.644531 773.898438 C 238.832031 774.046875 256.277344 776.222656 258.273438 776.441406 C 255.679688 776.125 310.042969 782.886719 363.59375 789.527344 C 361.589844 778.253906 355.085938 768.902344 344.472656 765.0625 C 341.910156 764.125 339.277344 763.433594 336.652344 762.726562 C 336.890625 763.242188 336.960938 763.839844 336.773438 764.425781 C 334.6875 770.972656 327.875 774.917969 320.972656 774.917969 C 315.675781 774.917969 312.152344 772.875 307.761719 769.972656 C 297.136719 762.953125 286.929688 755.789062 278.835938 745.414062 C 278.425781 744.886719 278.28125 744.246094 278.371094 743.632812 C 275.886719 743.1875 273.417969 742.617188 270.972656 741.972656 C 263.472656 740.058594 256.007812 737.800781 249.136719 733.878906 C 247.789062 735.699219 247.789062 737.644531 247.003906 739.871094 C 242.871094 751.527344 238.707031 763.585938 237.289062 775.917969 Z M 237.644531 773.898438 " fill-opacity="1" fill-rule="nonzero"/><path fill="#162351" d="M 405.492188 481.15625 C 396.015625 473.84375 385.164062 468.574219 374.214844 463.679688 C 360.316406 457.4375 346.136719 451.761719 331.769531 446.617188 L 230.566406 446.617188 C 264.628906 457.589844 284.066406 462.820312 300.585938 473.910156 C 315.894531 484.136719 325.902344 498.535156 328.035156 513.375 C 328.191406 514.660156 327.316406 515.851562 326.027344 516.039062 L 325.683594 516.039062 C 324.554688 516.039062 323.519531 515.191406 323.363281 514.03125 C 321.417969 500.511719 312.160156 487.304688 297.980469 477.796875 C 284.964844 469.078125 269.6875 464.152344 254.910156 459.414062 L 223.382812 449.21875 C 222.285156 448.875 221.59375 447.746094 221.78125 446.617188 L 151.007812 446.617188 C 144.890625 446.617188 139.933594 441.0625 139.933594 434.160156 L 139.933594 429.675781 C 139.933594 422.804688 144.890625 417.222656 151.007812 417.222656 L 186.019531 417.222656 C 155.828125 407.625 121.589844 403.5 90.621094 411.824219 C 85.695312 413.144531 80.863281 414.773438 76.285156 416.90625 C 70.511719 419.667969 73.367188 436.042969 73.585938 440.9375 C 74.410156 465.335938 81.511719 484.238281 95.734375 501.921875 C 102.039062 509.777344 111.015625 513.839844 120.453125 517.355469 C 157.234375 530.675781 166.496094 524.246094 193.769531 528.652344 C 235.386719 535.355469 235.035156 535.300781 235.367188 535.300781 C 237.5 535.550781 239.507812 535.710938 241.234375 536.117188 L 241.261719 536.117188 C 244.53125 536.804688 246.238281 538.640625 246.347656 542.546875 C 247.160156 573.792969 244.871094 605.382812 244.148438 636.628906 C 243.554688 661.128906 242.957031 685.695312 242.363281 710.226562 C 269.375 711.601562 303.828125 713.355469 318.78125 714.117188 C 318.78125 714.117188 323.769531 569.308594 324.617188 544.746094 C 327.628906 545.214844 330.640625 545.683594 333.621094 546.1875 C 336.191406 546.625 345.605469 546.75 347.171875 548.789062 C 348.019531 549.890625 347.328125 552.964844 347.328125 554.25 C 347.339844 555.382812 343.855469 725.84375 343.847656 726.164062 L 421.113281 726.164062 C 421.992188 726.445312 422.777344 727.167969 423.71875 727.167969 L 430.429688 556.195312 C 435.542969 525.894531 429.550781 499.671875 405.492188 481.15625 Z M 309.277344 696.203125 L 309.121094 696.203125 L 287.914062 694.886719 L 261.75 693.253906 C 260.460938 693.160156 259.457031 692.03125 259.554688 690.746094 C 259.648438 689.457031 260.746094 688.484375 262.03125 688.550781 L 289.667969 690.273438 L 309.433594 691.496094 C 310.71875 691.59375 311.691406 692.691406 311.628906 693.976562 C 311.535156 695.230469 310.5 696.203125 309.277344 696.203125 Z M 405.679688 700.878906 C 405.648438 700.878906 405.617188 700.878906 405.617188 700.878906 L 367.53125 699.621094 C 366.214844 699.589844 365.210938 698.492188 365.242188 697.207031 C 365.273438 695.921875 366.371094 694.855469 367.65625 694.917969 L 405.742188 696.171875 C 407.058594 696.203125 408.0625 697.300781 408.03125 698.585938 C 408 699.875 406.933594 700.878906 405.679688 700.878906 Z M 405.679688 700.878906 " fill-opacity="1" fill-rule="nonzero"/><path fill="#b9e1c9" d="M 232.253906 370.699219 C 231.914062 374.816406 231.894531 379.289062 230.738281 383.242188 C 229.625 387.042969 228.035156 390.753906 226.878906 394.5625 C 225.742188 398.308594 224.605469 402.058594 223.46875 405.804688 C 222.550781 408.835938 221.601562 411.929688 219.710938 414.46875 C 215.066406 420.71875 205.019531 418.992188 198.113281 419.054688 C 159.410156 419.421875 112.347656 419.867188 73.742188 420.234375 C 73.742188 410.085938 73.21875 400.070312 73.644531 389.921875 C 75.472656 344.488281 83.210938 299.441406 94.929688 255.535156 C 101.460938 231.042969 111.875 204.246094 135.90625 193.871094 C 137.734375 193.089844 139.59375 192.375 141.554688 191.722656 C 141.195312 195.039062 140.804688 198.390625 140.445312 201.707031 C 148.738281 212.082031 162.449219 216.960938 174.890625 213.96875 C 178.285156 213.15625 181.386719 210.878906 183.671875 208.082031 C 185.957031 205.21875 185.628906 201.449219 185.988281 197.835938 C 186.183594 195.660156 186.480469 193.511719 186.742188 191.367188 C 193.695312 193.804688 199.996094 197.640625 204.957031 203.074219 C 219.292969 218.816406 229.738281 240.183594 230.035156 261.519531 C 230.5 297.417969 236.023438 326.570312 232.253906 370.699219 Z M 232.253906 370.699219 " fill-opacity="1" fill-rule="nonzero"/><path fill="#162351" d="M 138.605469 203.179688 C 138.214844 202.691406 138.039062 202.074219 138.105469 201.453125 C 138.148438 201.082031 142.308594 164.394531 142.347656 164.027344 C 142.484375 162.734375 143.675781 161.816406 144.933594 161.933594 C 146.226562 162.066406 147.164062 163.222656 147.03125 164.515625 C 146.785156 166.851562 142.949219 200.460938 142.890625 200.980469 C 150.632812 210.082031 163.144531 214.363281 174.339844 211.679688 C 176.992188 211.046875 179.726562 209.191406 181.851562 206.59375 C 183.570312 204.4375 183.292969 201.203125 183.648438 197.605469 C 184.332031 189.949219 185.011719 188.695312 185.105469 179.953125 C 185.121094 178.664062 186.171875 177.628906 187.460938 177.628906 C 187.46875 177.628906 187.476562 177.628906 187.488281 177.628906 C 188.785156 177.644531 189.828125 178.710938 189.8125 180.011719 C 189.710938 188.871094 188.773438 193.101562 188.332031 198.046875 C 187.964844 201.726562 188.320312 206.027344 185.511719 209.550781 C 182.691406 213 179.125 215.371094 175.4375 216.257812 C 162.242188 219.429688 147.429688 214.214844 138.605469 203.179688 Z M 138.605469 203.179688 " fill-opacity="1" fill-rule="nonzero"/><path fill="#162351" d="M 142.96875 166.058594 C 137.648438 160.457031 134.089844 153.777344 132.132812 145.691406 C 125.632812 147.878906 117.734375 145.480469 114.265625 139.011719 C 112.542969 135.792969 112.0625 131.851562 112.839844 127.304688 C 115.394531 112.25 129.011719 110.191406 137.304688 118.300781 C 138.234375 119.207031 138.253906 120.699219 137.34375 121.628906 C 136.433594 122.558594 134.945312 122.570312 134.015625 121.664062 C 131.824219 119.523438 128.765625 118.238281 126.195312 118.335938 C 121.027344 118.441406 118.347656 122.96875 117.476562 128.089844 C 116.878906 131.589844 117.195312 134.515625 118.414062 136.789062 C 119.644531 139.082031 121.933594 140.820312 124.53125 141.4375 C 127.414062 142.121094 130.515625 141.6875 132.457031 140.335938 C 133.835938 139.382812 135.789062 140.128906 136.113281 141.820312 L 134.105469 142.699219 L 134.132812 142.742188 L 136.210938 142.332031 C 137.839844 150.628906 141.164062 157.332031 146.378906 162.816406 C 147.273438 163.761719 147.234375 165.25 146.292969 166.144531 C 145.347656 167.039062 143.859375 167 142.96875 166.058594 Z M 142.96875 166.058594 " fill-opacity="1" fill-rule="nonzero"/><path fill="#162351" d="M 178.277344 183.640625 C 172.230469 183.640625 166.046875 181.816406 160.550781 179.191406 C 159.375 178.632812 158.878906 177.226562 159.441406 176.054688 C 160 174.882812 161.394531 174.382812 162.578125 174.945312 C 167.183594 177.144531 171.828125 178.492188 176.011719 178.84375 C 184.3125 179.507812 193.015625 176.414062 200 170.292969 C 212.449219 159.378906 218.613281 140.03125 219.320312 123.203125 C 219.917969 108.925781 215.253906 93.75 207.144531 83.597656 C 206.332031 82.585938 206.496094 81.105469 207.511719 80.292969 C 208.519531 79.492188 210.007812 79.648438 210.820312 80.664062 C 219.605469 91.664062 224.664062 108.039062 224.019531 123.398438 C 223.257812 141.511719 216.539062 162.042969 203.101562 173.832031 C 195.894531 180.144531 186.984375 183.640625 178.277344 183.640625 Z M 178.277344 183.640625 " fill-opacity="1" fill-rule="nonzero"/><path fill="#162351" d="M 216.628906 122.074219 C 215.992188 121.503906 214.828125 121.234375 213.789062 121.027344 C 209.960938 120.277344 206.902344 120.101562 204.171875 120.492188 C 202.867188 120.683594 201.691406 119.78125 201.507812 118.496094 C 201.324219 117.210938 202.214844 116.019531 203.503906 115.835938 C 206.777344 115.359375 210.335938 115.546875 214.703125 116.414062 C 216.363281 116.742188 218.257812 117.210938 219.777344 118.582031 C 220.742188 119.453125 220.820312 120.9375 219.949219 121.902344 C 219.078125 122.871094 217.582031 122.945312 216.628906 122.074219 Z M 216.628906 122.074219 " fill-opacity="1" fill-rule="nonzero"/><path fill="#162351" d="M 125.558594 134.332031 C 124.261719 134.226562 123.300781 133.089844 123.40625 131.796875 C 123.527344 130.292969 123.746094 128.691406 124.503906 127.15625 C 127.035156 121.984375 133.386719 122.308594 135.070312 126.316406 C 135.570312 127.515625 135.007812 128.894531 133.808594 129.398438 C 132.617188 129.898438 131.246094 129.339844 130.742188 128.160156 C 130.648438 128.0625 130.320312 127.933594 130.046875 128 C 128.550781 128.339844 128.21875 130.644531 128.09375 132.179688 C 127.984375 133.511719 126.796875 134.449219 125.558594 134.332031 Z M 130.746094 128.164062 Z M 130.746094 128.164062 " fill-opacity="1" fill-rule="nonzero"/><path fill="#162351" d="M 188.6875 146.757812 C 187.398438 146.605469 186.476562 145.4375 186.625 144.144531 C 186.777344 142.855469 187.917969 141.953125 189.238281 142.082031 C 193.28125 142.558594 194.617188 141.808594 195.027344 141.09375 C 195.773438 139.785156 194.230469 137.171875 193.339844 134.964844 C 191.648438 130.8125 191.75 125.96875 193.613281 121.679688 C 194.128906 120.488281 195.535156 119.941406 196.707031 120.460938 C 197.898438 120.976562 198.445312 122.363281 197.925781 123.554688 C 196.5625 126.691406 196.480469 130.207031 197.695312 133.195312 C 198.980469 136.320312 201.152344 139.847656 199.113281 143.425781 C 197.09375 146.964844 192.71875 147.21875 188.6875 146.757812 Z M 188.6875 146.757812 " fill-opacity="1" fill-rule="nonzero"/><path fill="#162351" d="M 175.046875 120.191406 C 175.25 120.230469 175.441406 120.304688 175.625 120.414062 C 175.808594 120.527344 175.980469 120.671875 176.140625 120.855469 C 176.296875 121.035156 176.441406 121.25 176.570312 121.492188 C 176.699219 121.738281 176.808594 122.007812 176.898438 122.304688 C 176.992188 122.605469 177.0625 122.921875 177.117188 123.261719 C 177.167969 123.601562 177.199219 123.953125 177.210938 124.324219 C 177.222656 124.691406 177.210938 125.066406 177.179688 125.449219 C 177.148438 125.832031 177.097656 126.214844 177.027344 126.601562 C 176.953125 126.984375 176.863281 127.359375 176.753906 127.726562 C 176.644531 128.09375 176.519531 128.449219 176.375 128.789062 C 176.230469 129.128906 176.074219 129.445312 175.902344 129.742188 C 175.730469 130.042969 175.546875 130.3125 175.355469 130.558594 C 175.160156 130.800781 174.960938 131.015625 174.753906 131.195312 C 174.546875 131.375 174.335938 131.523438 174.121094 131.636719 C 173.910156 131.746094 173.695312 131.820312 173.484375 131.859375 C 173.273438 131.898438 173.066406 131.898438 172.863281 131.859375 C 172.660156 131.820312 172.46875 131.746094 172.285156 131.636719 C 172.101562 131.523438 171.929688 131.375 171.769531 131.195312 C 171.613281 131.011719 171.46875 130.800781 171.339844 130.554688 C 171.214844 130.3125 171.105469 130.042969 171.011719 129.742188 C 170.917969 129.445312 170.847656 129.128906 170.796875 128.789062 C 170.742188 128.449219 170.710938 128.09375 170.699219 127.726562 C 170.6875 127.359375 170.699219 126.984375 170.730469 126.597656 C 170.761719 126.214844 170.8125 125.832031 170.882812 125.449219 C 170.957031 125.066406 171.046875 124.691406 171.15625 124.324219 C 171.265625 123.953125 171.390625 123.601562 171.535156 123.261719 C 171.679688 122.921875 171.835938 122.601562 172.007812 122.304688 C 172.179688 122.007812 172.363281 121.738281 172.554688 121.492188 C 172.75 121.25 172.949219 121.035156 173.15625 120.855469 C 173.363281 120.671875 173.574219 120.527344 173.789062 120.414062 C 174.003906 120.304688 174.214844 120.230469 174.425781 120.191406 C 174.640625 120.152344 174.84375 120.152344 175.046875 120.191406 Z M 175.046875 120.191406 " fill-opacity="1" fill-rule="nonzero"/><path fill="#162351" d="M 211.144531 126.878906 C 211.34375 126.917969 211.539062 126.992188 211.722656 127.105469 C 211.90625 127.214844 212.074219 127.363281 212.234375 127.542969 C 212.394531 127.726562 212.539062 127.9375 212.664062 128.183594 C 212.792969 128.425781 212.902344 128.699219 212.996094 128.996094 C 213.085938 129.292969 213.160156 129.609375 213.210938 129.949219 C 213.261719 130.289062 213.296875 130.644531 213.304688 131.011719 C 213.316406 131.378906 213.308594 131.757812 213.277344 132.140625 C 213.246094 132.523438 213.195312 132.90625 213.121094 133.289062 C 213.050781 133.671875 212.960938 134.046875 212.851562 134.414062 C 212.742188 134.785156 212.613281 135.136719 212.46875 135.476562 C 212.328125 135.816406 212.167969 136.136719 211.996094 136.433594 C 211.828125 136.730469 211.644531 137 211.449219 137.246094 C 211.257812 137.488281 211.058594 137.703125 210.847656 137.882812 C 210.640625 138.066406 210.429688 138.210938 210.21875 138.324219 C 210.003906 138.4375 209.789062 138.511719 209.578125 138.546875 C 209.367188 138.585938 209.160156 138.585938 208.960938 138.546875 C 208.757812 138.511719 208.566406 138.433594 208.382812 138.324219 C 208.195312 138.210938 208.027344 138.066406 207.867188 137.882812 C 207.707031 137.703125 207.566406 137.488281 207.4375 137.246094 C 207.308594 137 207.199219 136.730469 207.105469 136.433594 C 207.015625 136.136719 206.941406 135.816406 206.890625 135.476562 C 206.839844 135.136719 206.804688 134.785156 206.796875 134.414062 C 206.785156 134.046875 206.792969 133.671875 206.824219 133.289062 C 206.855469 132.90625 206.90625 132.523438 206.980469 132.140625 C 207.050781 131.757812 207.140625 131.378906 207.25 131.011719 C 207.363281 130.644531 207.488281 130.289062 207.632812 129.949219 C 207.773438 129.609375 207.933594 129.292969 208.105469 128.996094 C 208.277344 128.695312 208.457031 128.425781 208.652344 128.183594 C 208.84375 127.9375 209.046875 127.726562 209.253906 127.542969 C 209.460938 127.363281 209.671875 127.214844 209.882812 127.105469 C 210.097656 126.992188 210.3125 126.917969 210.523438 126.878906 C 210.734375 126.84375 210.941406 126.84375 211.144531 126.878906 Z M 211.144531 126.878906 " fill-opacity="1" fill-rule="nonzero"/><path fill="#162351" d="M 158.886719 115.585938 C 158.148438 114.515625 158.417969 113.050781 159.484375 112.3125 C 165.917969 107.875 174.984375 106.855469 182.570312 109.710938 C 183.785156 110.167969 184.402344 111.523438 183.945312 112.738281 C 183.484375 113.957031 182.132812 114.566406 180.914062 114.117188 C 174.808594 111.820312 167.277344 112.65625 162.15625 116.1875 C 161.089844 116.925781 159.621094 116.65625 158.886719 115.585938 Z M 158.886719 115.585938 " fill-opacity="1" fill-rule="nonzero"/><path fill="#162351" d="M 90.328125 131.644531 C 92.199219 135.609375 95.261719 139.078125 98.976562 141.441406 C 105.1875 145.394531 114.855469 147.480469 121.976562 145.15625 C 117.296875 141.472656 114.804688 136.007812 115.074219 130.035156 C 115.644531 117.546875 128.257812 112.066406 137.054688 121.8125 C 146.285156 114.992188 152.90625 104.757812 155.328125 93.566406 C 162.605469 95.472656 170.144531 96.828125 177.640625 96.167969 C 185.136719 95.507812 192.648438 92.664062 197.808594 87.207031 C 196.804688 88.265625 209.527344 98.304688 210.796875 99.140625 C 215.574219 102.292969 221.53125 105.707031 227.335938 105.988281 C 239.160156 106.558594 251.585938 98.402344 257.507812 88.628906 C 249.835938 86.410156 244.691406 79.101562 242.007812 71.605469 C 239.324219 64.109375 238.480469 56.066406 235.917969 48.527344 C 227.6875 24.316406 202.625 12.152344 183.316406 30.328125 C 180.375 33.101562 181.199219 33.234375 178.332031 30.042969 C 176.1875 27.652344 174.09375 25.394531 171.484375 23.476562 C 154.214844 10.761719 124.445312 13.433594 118.640625 33.878906 C 116.375 41.855469 119.023438 49.140625 118.375 56.933594 C 111.699219 55.25 105.25 55.292969 99.054688 58.703125 C 89.761719 63.816406 84.28125 74.753906 84.425781 82.195312 C 84.53125 87.804688 87.632812 93.023438 91.710938 96.898438 C 95.785156 100.769531 100.796875 103.496094 105.746094 106.175781 C 94.816406 105.070312 83.734375 117.683594 90.328125 131.644531 Z M 90.328125 131.644531 " fill-opacity="1" fill-rule="nonzero"/><path fill="#162351" d="M 174.933594 158.210938 C 174.011719 157.300781 174.003906 155.808594 174.921875 154.886719 C 175.832031 153.964844 177.320312 153.953125 178.246094 154.875 C 180.796875 157.402344 185.246094 159.671875 188.484375 158.894531 C 189.738281 158.601562 191.019531 159.367188 191.320312 160.632812 C 191.621094 161.898438 190.839844 163.167969 189.578125 163.46875 C 184.492188 164.683594 178.605469 161.855469 174.933594 158.210938 Z M 174.933594 158.210938 " fill-opacity="1" fill-rule="nonzero"/><path fill="#b9e1c9" d="M 238.847656 346.761719 C 232.972656 370.179688 227.09375 394.929688 223.992188 407.972656 C 222.6875 413.402344 218.3125 417.210938 213.285156 417.210938 L 210.867188 417.210938 C 200.152344 416.433594 191.207031 415.671875 175.476562 410.964844 C 162.101562 406.917969 155.792969 405.117188 143.21875 390.539062 C 123.042969 367.125 109.425781 338.175781 104.269531 307.765625 L 169.566406 244.640625 L 181.679688 335.445312 C 186.25 336.875 191.015625 337.785156 195.359375 339.867188 C 196.566406 340.0625 197.808594 340.257812 199.050781 340.453125 C 212.304688 342.566406 225.59375 344.648438 238.847656 346.761719 Z M 238.847656 346.761719 " fill-opacity="1" fill-rule="nonzero"/><path fill="#162351" d="M 238.609375 349.992188 L 193.144531 343.277344 C 192.09375 343.121094 191.28125 342.285156 191.152344 341.230469 L 185.898438 297.699219 C 185.726562 297.492188 185.597656 297.296875 185.492188 297.140625 C 184.59375 296.207031 184.5625 294.625 185.5 293.722656 C 186.433594 292.820312 187.859375 292.761719 188.765625 293.699219 C 189 293.945312 189.207031 294.230469 189.40625 294.523438 C 189.457031 294.601562 189.472656 294.628906 189.460938 294.628906 C 190.015625 295.011719 190.386719 295.613281 190.464844 296.289062 L 195.609375 338.882812 L 239.296875 345.335938 C 240.582031 345.527344 241.46875 346.722656 241.28125 348.007812 C 241.097656 349.230469 239.980469 350.171875 238.609375 349.992188 Z M 238.609375 349.992188 " fill-opacity="1" fill-rule="nonzero"/><path fill="#162351" d="M 203.90625 416.753906 C 192.105469 416.023438 179.902344 415.269531 168.160156 412.191406 C 154.851562 408.699219 143.898438 402.460938 136.488281 394.15625 C 122.941406 378.972656 120.683594 357.714844 119.417969 335.433594 C 119.34375 334.136719 120.335938 333.023438 121.632812 332.949219 C 122.90625 332.808594 124.042969 333.867188 124.117188 335.164062 C 125.332031 356.585938 127.460938 376.972656 140 391.027344 C 146.789062 398.636719 156.941406 404.382812 169.355469 407.640625 C 180.652344 410.601562 192.617188 411.339844 204.191406 412.054688 C 205.492188 412.136719 206.476562 413.253906 206.398438 414.546875 C 206.316406 415.863281 205.179688 416.832031 203.90625 416.753906 Z M 203.90625 416.753906 " fill-opacity="1" fill-rule="nonzero"/><path fill="#162351" d="M 412.894531 448.96875 L 151.007812 448.96875 C 143.605469 448.96875 137.582031 442.324219 137.582031 434.160156 L 137.582031 429.675781 C 137.582031 421.511719 143.605469 414.867188 151.007812 414.867188 L 213.277344 414.867188 C 217.191406 414.867188 220.648438 411.804688 221.6875 407.425781 C 243.128906 317.984375 239.808594 334.59375 250.523438 292.273438 C 252.179688 285.628906 257.601562 281.171875 263.90625 281.386719 C 266.757812 281.476562 452.175781 287.894531 452.628906 287.910156 C 452.953125 288 458.632812 287.816406 462.726562 293.542969 C 465.535156 297.476562 466.359375 302.660156 464.929688 307.410156 L 425.628906 438.785156 C 423.859375 444.867188 418.742188 448.96875 412.894531 448.96875 Z M 151.007812 419.574219 C 146.199219 419.574219 142.285156 424.101562 142.285156 429.675781 L 142.285156 434.160156 C 142.285156 439.730469 146.199219 444.261719 151.007812 444.261719 L 412.894531 444.261719 C 416.628906 444.261719 419.929688 441.527344 421.117188 437.457031 L 460.425781 306.058594 C 462.304688 299.808594 458.484375 292.84375 452.460938 292.613281 C 451.9375 292.59375 264.253906 286.105469 263.742188 286.089844 C 259.8125 285.847656 256.203125 288.953125 255.089844 293.40625 C 245.40625 331.496094 245.460938 328.414062 228.769531 398.089844 L 226.261719 408.519531 C 224.722656 415.023438 219.382812 419.574219 213.277344 419.574219 Z M 151.007812 419.574219 " fill-opacity="1" fill-rule="nonzero"/><path fill="#162351" d="M 359.957031 352.8125 L 362.066406 362.808594 C 362.289062 363.867188 363.019531 364.648438 364.019531 364.890625 L 373.464844 367.191406 C 375.984375 367.808594 376.207031 371.382812 373.835938 373.242188 L 364.964844 380.21875 C 364.023438 380.957031 363.410156 382.078125 363.324219 383.214844 L 362.492188 393.960938 C 362.273438 396.828125 359.027344 398.777344 357 397.261719 L 349.410156 391.574219 C 348.605469 390.972656 347.496094 390.886719 346.4375 391.347656 L 336.484375 395.6875 C 333.824219 396.84375 331.597656 394.472656 332.714844 391.675781 L 336.894531 381.1875 C 337.339844 380.078125 337.265625 378.902344 336.703125 378.046875 L 331.378906 369.984375 C 329.957031 367.832031 331.828125 364.417969 334.542969 364.207031 L 344.71875 363.410156 C 345.796875 363.324219 346.863281 362.683594 347.570312 361.695312 L 354.234375 352.375 C 356.015625 349.886719 359.398438 350.148438 359.957031 352.8125 Z M 359.957031 352.8125 " fill-opacity="1" fill-rule="nonzero"/><path fill="#162351" d="M 230.390625 312.039062 C 230.109375 306.183594 229.058594 300.378906 227.269531 294.800781 C 226.871094 293.5625 227.550781 292.238281 228.789062 291.84375 C 230.023438 291.449219 231.355469 292.121094 231.75 293.363281 C 233.667969 299.335938 234.792969 305.546875 235.089844 311.820312 C 235.148438 313.117188 234.148438 314.21875 232.847656 314.28125 C 231.683594 314.378906 230.453125 313.417969 230.390625 312.039062 Z M 230.390625 312.039062 " fill-opacity="1" fill-rule="nonzero"/><path fill="#162351" d="M 584.769531 212.433594 C 584.261719 211.804688 583.375 211.867188 582.5625 211.867188 L 499.996094 212.199219 C 498.109375 212.324219 496.027344 212.339844 494.542969 211.167969 C 493.050781 209.996094 492.621094 207.945312 492.441406 206.058594 C 492.105469 202.546875 491.476562 195.730469 493.988281 192.773438 C 496.707031 189.578125 504.511719 188.335938 508.402344 187.28125 C 543.4375 177.800781 572.453125 191.136719 584.769531 212.433594 Z M 584.769531 212.433594 " fill-opacity="1" fill-rule="nonzero"/><path fill="#162351" d="M 603.097656 181.539062 C 608.546875 179.800781 614.074219 178.171875 619.75 177.378906 C 622.976562 176.929688 631.28125 175.375 633.4375 178.433594 C 634.46875 179.894531 634.203125 183.519531 634.367188 185.226562 C 635.144531 193.390625 635.023438 201.71875 632.375 209.503906 C 631.4375 212.25 630.519531 213.234375 627.417969 213.960938 C 617.429688 216.296875 607.03125 213.585938 596.773438 213.402344 C 590.121094 213.28125 583.429688 214.230469 576.828125 213.398438 C 570.632812 213.398438 567.605469 209.210938 566.1875 203.992188 C 565.78125 202.488281 565.910156 201.976562 567.050781 200.941406 C 578.808594 190.246094 589.882812 185.753906 603.097656 181.539062 Z M 603.097656 181.539062 " fill-opacity="1" fill-rule="nonzero"/><path fill="#b9e1c9" d="M 622.746094 215.378906 L 503.796875 215.378906 C 496 215.378906 489.652344 209.035156 489.652344 201.234375 L 489.652344 128.960938 C 489.652344 121.164062 496 114.820312 503.796875 114.820312 L 622.746094 114.820312 C 630.542969 114.820312 636.886719 121.164062 636.886719 128.960938 L 636.886719 201.234375 C 636.886719 209.035156 630.542969 215.378906 622.746094 215.378906 Z M 503.796875 119.527344 C 498.59375 119.527344 494.359375 123.757812 494.359375 128.960938 L 494.359375 201.234375 C 494.359375 206.4375 498.59375 210.671875 503.796875 210.671875 L 622.746094 210.671875 C 627.945312 210.671875 632.179688 206.4375 632.179688 201.234375 L 632.179688 128.960938 C 632.179688 123.757812 627.945312 119.527344 622.746094 119.527344 Z M 503.796875 119.527344 " fill-opacity="1" fill-rule="nonzero"/><path fill="#162351" d="M 585.679688 148.691406 C 582.777344 146.210938 579.917969 144.027344 576.914062 144.1875 C 575.652344 144.351562 574.496094 143.285156 574.417969 141.992188 C 574.332031 140.691406 575.316406 139.574219 576.613281 139.492188 C 580.621094 139.253906 583.90625 141.222656 586.945312 143.625 C 588.652344 142.21875 590.984375 141.4375 593.503906 141.554688 C 596.472656 141.699219 599.125 142.957031 601.324219 144.167969 C 602.464844 144.796875 602.878906 146.226562 602.253906 147.363281 C 601.625 148.503906 600.191406 148.910156 599.058594 148.292969 C 597.324219 147.339844 595.285156 146.351562 593.28125 146.253906 C 591.566406 146.234375 589.898438 146.910156 589.265625 148.046875 C 588.921875 148.664062 588.320312 149.09375 587.625 149.21875 C 586.910156 149.34375 586.199219 149.136719 585.679688 148.691406 Z M 585.679688 148.691406 " fill-opacity="1" fill-rule="nonzero"/><path fill="#b9e1c9" d="M 540.902344 148.890625 C 540.902344 149.5625 540.835938 150.230469 540.703125 150.886719 C 540.574219 151.546875 540.378906 152.1875 540.121094 152.808594 C 539.863281 153.429688 539.546875 154.019531 539.171875 154.578125 C 538.796875 155.136719 538.371094 155.652344 537.890625 156.128906 C 537.414062 156.605469 536.894531 157.027344 536.335938 157.402344 C 535.773438 157.777344 535.179688 158.089844 534.558594 158.347656 C 533.933594 158.605469 533.292969 158.800781 532.628906 158.929688 C 531.96875 159.0625 531.300781 159.128906 530.625 159.128906 C 529.949219 159.128906 529.28125 159.0625 528.621094 158.929688 C 527.957031 158.800781 527.316406 158.605469 526.691406 158.347656 C 526.070312 158.089844 525.476562 157.777344 524.914062 157.402344 C 524.355469 157.027344 523.835938 156.605469 523.359375 156.128906 C 522.882812 155.652344 522.453125 155.136719 522.078125 154.578125 C 521.707031 154.019531 521.386719 153.429688 521.128906 152.808594 C 520.871094 152.1875 520.675781 151.546875 520.546875 150.886719 C 520.414062 150.230469 520.347656 149.5625 520.347656 148.890625 C 520.347656 148.21875 520.414062 147.554688 520.546875 146.894531 C 520.675781 146.234375 520.871094 145.59375 521.128906 144.972656 C 521.386719 144.351562 521.707031 143.761719 522.078125 143.203125 C 522.453125 142.644531 522.882812 142.128906 523.359375 141.652344 C 523.835938 141.179688 524.355469 140.753906 524.914062 140.378906 C 525.476562 140.007812 526.070312 139.691406 526.691406 139.433594 C 527.316406 139.175781 527.957031 138.984375 528.621094 138.851562 C 529.28125 138.71875 529.949219 138.65625 530.625 138.65625 C 531.300781 138.65625 531.96875 138.71875 532.628906 138.851562 C 533.292969 138.984375 533.933594 139.175781 534.558594 139.433594 C 535.179688 139.691406 535.773438 140.007812 536.335938 140.378906 C 536.894531 140.753906 537.414062 141.179688 537.890625 141.652344 C 538.371094 142.128906 538.796875 142.644531 539.171875 143.203125 C 539.546875 143.761719 539.863281 144.351562 540.121094 144.972656 C 540.378906 145.59375 540.574219 146.234375 540.703125 146.894531 C 540.835938 147.554688 540.902344 148.21875 540.902344 148.890625 Z M 540.902344 148.890625 " fill-opacity="1" fill-rule="nonzero"/><path fill="#162351" d="M 517.074219 644.933594 C 501.457031 642.996094 478.9375 638.675781 463.789062 623.601562 C 451.019531 610.894531 444.28125 591.195312 444.828125 568.125 C 445.175781 553.414062 448.203125 538.835938 451.132812 524.734375 C 454.40625 508.96875 456.824219 499.320312 454.160156 491.695312 C 453.140625 488.777344 451.382812 486.328125 449.210938 484.789062 C 441.554688 479.386719 429.96875 484.601562 419.394531 483.777344 C 409.640625 483.042969 400.550781 476.296875 396.230469 466.59375 C 394.195312 462.019531 395.496094 455.976562 394.203125 453.214844 C 392.996094 450.621094 386.425781 449.128906 382.898438 448.332031 L 381.238281 447.945312 C 379.976562 447.644531 379.199219 446.371094 379.503906 445.105469 C 379.808594 443.84375 381.078125 443.085938 382.34375 443.371094 C 387.859375 444.625 396.101562 446.15625 398.46875 451.226562 C 400.351562 455.257812 398.945312 461.121094 400.527344 464.675781 C 404.101562 472.699219 411.820312 478.488281 419.746094 479.082031 C 429.882812 479.878906 442.351562 474.175781 451.925781 480.949219 C 454.894531 483.046875 457.265625 486.3125 458.601562 490.144531 C 460.980469 496.957031 459.941406 504.210938 458.667969 511.058594 C 455.179688 529.84375 449.984375 549.078125 449.53125 568.234375 C 449.234375 580.84375 451.121094 604.359375 467.113281 620.265625 C 481.234375 634.324219 502.722656 638.410156 517.65625 640.261719 C 540.863281 643.144531 564.679688 642.222656 586.964844 640.796875 C 602.46875 639.804688 623.332031 635.214844 634.660156 619 C 643.222656 606.734375 644.828125 589.113281 638.949219 571.859375 C 633.886719 556.996094 624.597656 544.121094 612.210938 529.367188 C 601.191406 516.253906 589.570312 499.242188 597.59375 483.996094 C 602.917969 473.867188 614.679688 470.101562 623.910156 469.957031 C 643.253906 469.8125 657.769531 480.804688 706.03125 486.433594 C 717.894531 487.8125 730.308594 488.398438 740.703125 483.386719 C 759.492188 474.324219 765.066406 449.144531 759.457031 431.011719 C 754 413.367188 740.371094 398.496094 736.277344 379.761719 C 730.535156 353.523438 744.507812 328.027344 760.457031 304.382812 C 781.296875 273.492188 803.375 238.625 777.492188 211.273438 C 773.59375 207.152344 768.664062 204.144531 763.53125 201.175781 C 749.6875 193.160156 733.410156 185.402344 717.667969 188.621094 C 716.398438 188.882812 715.152344 188.0625 714.890625 186.789062 C 714.628906 185.515625 715.453125 184.273438 716.722656 184.015625 C 734.03125 180.472656 751.28125 188.648438 765.890625 197.101562 C 771.117188 200.128906 776.582031 203.464844 780.910156 208.039062 C 810.226562 239.019531 782.914062 279.503906 764.84375 306.292969 L 764.359375 307.011719 C 748.992188 329.792969 735.511719 354.246094 740.871094 378.757812 C 744.714844 396.324219 758.398438 411.660156 763.953125 429.621094 C 770.273438 450.058594 764.074219 477.34375 742.75 487.625 C 731.273438 493.164062 718.054688 492.570312 705.484375 491.105469 C 657.316406 485.488281 642.007812 474.507812 623.980469 474.660156 C 614.082031 474.816406 605.355469 479.34375 601.757812 486.183594 C 595.039062 498.957031 605.742188 514.351562 615.816406 526.339844 C 626.074219 538.5625 637.515625 553.046875 643.40625 570.339844 C 649.761719 589.007812 647.9375 608.207031 638.519531 621.695312 C 626.117188 639.445312 603.800781 644.433594 587.265625 645.488281 C 564 646.984375 540.285156 647.820312 517.074219 644.933594 Z M 517.074219 644.933594 " fill-opacity="1" fill-rule="nonzero"/><path fill="#162351" d="M 455.191406 160.941406 L 248.582031 160.941406 C 247.28125 160.941406 246.226562 159.886719 246.226562 158.589844 C 246.226562 157.289062 247.28125 156.238281 248.582031 156.238281 L 455.191406 156.238281 C 456.492188 156.238281 457.542969 157.289062 457.542969 158.589844 C 457.542969 159.886719 456.492188 160.941406 455.191406 160.941406 Z M 455.191406 160.941406 " fill-opacity="1" fill-rule="nonzero"/><path fill="#162351" d="M 396.632812 189.304688 L 251.023438 189.304688 C 249.722656 189.304688 248.667969 188.25 248.667969 186.953125 C 248.667969 185.652344 249.722656 184.597656 251.023438 184.597656 L 396.632812 184.597656 C 397.933594 184.597656 398.988281 185.652344 398.988281 186.953125 C 398.988281 188.25 397.933594 189.304688 396.632812 189.304688 Z M 396.632812 189.304688 " fill-opacity="1" fill-rule="nonzero"/><path fill="#b9e1c9" d="M 433.070312 249.589844 L 266.6875 249.589844 C 265.386719 249.589844 264.332031 248.535156 264.332031 247.238281 C 264.332031 245.9375 265.386719 244.882812 266.6875 244.882812 L 433.070312 244.882812 C 434.367188 244.882812 435.421875 245.9375 435.421875 247.238281 C 435.421875 248.535156 434.367188 249.589844 433.070312 249.589844 Z M 433.070312 249.589844 " fill-opacity="1" fill-rule="nonzero"/><g fill="#b9e1c9" fill-opacity="1"><g transform="translate(394.489286, 59.674256)"><g><path d="M 6.109375 0 L 2.296875 0 L 2.296875 -18.265625 L 12.765625 -18.265625 L 12.765625 -15.09375 L 6.109375 -15.09375 L 6.109375 -10.375 L 12.296875 -10.375 L 12.296875 -7.21875 L 6.109375 -7.21875 Z M 6.109375 0 "/></g></g></g><g fill="#b9e1c9" fill-opacity="1"><g transform="translate(408.522467, 59.674256)"><g><path d="M 9.796875 -14.21875 C 10.304688 -14.21875 10.734375 -14.179688 11.078125 -14.109375 L 10.796875 -10.546875 C 10.484375 -10.628906 10.109375 -10.671875 9.671875 -10.671875 C 8.453125 -10.671875 7.503906 -10.359375 6.828125 -9.734375 C 6.148438 -9.109375 5.8125 -8.234375 5.8125 -7.109375 L 5.8125 0 L 2 0 L 2 -13.96875 L 4.890625 -13.96875 L 5.453125 -11.609375 L 5.625 -11.609375 C 6.0625 -12.398438 6.648438 -13.03125 7.390625 -13.5 C 8.128906 -13.976562 8.929688 -14.21875 9.796875 -14.21875 Z M 9.796875 -14.21875 "/></g></g></g><g fill="#b9e1c9" fill-opacity="1"><g transform="translate(420.133551, 59.674256)"><g><path d="M 10.859375 0 L 10.125 -1.890625 L 10.03125 -1.890625 C 9.382812 -1.085938 8.722656 -0.53125 8.046875 -0.21875 C 7.367188 0.09375 6.484375 0.25 5.390625 0.25 C 4.054688 0.25 3.003906 -0.128906 2.234375 -0.890625 C 1.460938 -1.660156 1.078125 -2.753906 1.078125 -4.171875 C 1.078125 -5.648438 1.59375 -6.738281 2.625 -7.4375 C 3.664062 -8.144531 5.226562 -8.539062 7.3125 -8.625 L 9.734375 -8.6875 L 9.734375 -9.296875 C 9.734375 -10.710938 9.007812 -11.421875 7.5625 -11.421875 C 6.445312 -11.421875 5.140625 -11.085938 3.640625 -10.421875 L 2.375 -12.984375 C 3.976562 -13.828125 5.757812 -14.25 7.71875 -14.25 C 9.59375 -14.25 11.03125 -13.835938 12.03125 -13.015625 C 13.03125 -12.203125 13.53125 -10.960938 13.53125 -9.296875 L 13.53125 0 Z M 9.734375 -6.46875 L 8.265625 -6.421875 C 7.160156 -6.390625 6.335938 -6.1875 5.796875 -5.8125 C 5.253906 -5.445312 4.984375 -4.890625 4.984375 -4.140625 C 4.984375 -3.066406 5.597656 -2.53125 6.828125 -2.53125 C 7.710938 -2.53125 8.414062 -2.785156 8.9375 -3.296875 C 9.46875 -3.804688 9.734375 -4.484375 9.734375 -5.328125 Z M 9.734375 -6.46875 "/></g></g></g><g fill="#b9e1c9" fill-opacity="1"><g transform="translate(435.577545, 59.674256)"><g><path d="M 9.671875 0.25 C 8.023438 0.25 6.738281 -0.34375 5.8125 -1.53125 L 5.609375 -1.53125 C 5.742188 -0.363281 5.8125 0.304688 5.8125 0.484375 L 5.8125 6.140625 L 2 6.140625 L 2 -13.96875 L 5.09375 -13.96875 L 5.625 -12.15625 L 5.8125 -12.15625 C 6.695312 -13.53125 8.015625 -14.21875 9.765625 -14.21875 C 11.410156 -14.21875 12.695312 -13.582031 13.625 -12.3125 C 14.5625 -11.039062 15.03125 -9.269531 15.03125 -7 C 15.03125 -5.507812 14.8125 -4.210938 14.375 -3.109375 C 13.9375 -2.015625 13.3125 -1.179688 12.5 -0.609375 C 11.695312 -0.0351562 10.753906 0.25 9.671875 0.25 Z M 8.546875 -11.171875 C 7.597656 -11.171875 6.90625 -10.878906 6.46875 -10.296875 C 6.039062 -9.722656 5.820312 -8.769531 5.8125 -7.4375 L 5.8125 -7.03125 C 5.8125 -5.53125 6.03125 -4.453125 6.46875 -3.796875 C 6.914062 -3.148438 7.625 -2.828125 8.59375 -2.828125 C 10.300781 -2.828125 11.15625 -4.238281 11.15625 -7.0625 C 11.15625 -8.4375 10.941406 -9.460938 10.515625 -10.140625 C 10.097656 -10.828125 9.441406 -11.171875 8.546875 -11.171875 Z M 8.546875 -11.171875 "/></g></g></g><g fill="#b9e1c9" fill-opacity="1"><g transform="translate(451.758153, 59.674256)"><g><path d="M 9.671875 0.25 C 8.023438 0.25 6.738281 -0.34375 5.8125 -1.53125 L 5.609375 -1.53125 C 5.742188 -0.363281 5.8125 0.304688 5.8125 0.484375 L 5.8125 6.140625 L 2 6.140625 L 2 -13.96875 L 5.09375 -13.96875 L 5.625 -12.15625 L 5.8125 -12.15625 C 6.695312 -13.53125 8.015625 -14.21875 9.765625 -14.21875 C 11.410156 -14.21875 12.695312 -13.582031 13.625 -12.3125 C 14.5625 -11.039062 15.03125 -9.269531 15.03125 -7 C 15.03125 -5.507812 14.8125 -4.210938 14.375 -3.109375 C 13.9375 -2.015625 13.3125 -1.179688 12.5 -0.609375 C 11.695312 -0.0351562 10.753906 0.25 9.671875 0.25 Z M 8.546875 -11.171875 C 7.597656 -11.171875 6.90625 -10.878906 6.46875 -10.296875 C 6.039062 -9.722656 5.820312 -8.769531 5.8125 -7.4375 L 5.8125 -7.03125 C 5.8125 -5.53125 6.03125 -4.453125 6.46875 -3.796875 C 6.914062 -3.148438 7.625 -2.828125 8.59375 -2.828125 C 10.300781 -2.828125 11.15625 -4.238281 11.15625 -7.0625 C 11.15625 -8.4375 10.941406 -9.460938 10.515625 -10.140625 C 10.097656 -10.828125 9.441406 -11.171875 8.546875 -11.171875 Z M 8.546875 -11.171875 "/></g></g></g><g fill="#b9e1c9" fill-opacity="1"><g transform="translate(467.93876, 59.674256)"><g><path d="M 7.78125 -11.515625 C 6.96875 -11.515625 6.332031 -11.257812 5.875 -10.75 C 5.425781 -10.238281 5.164062 -9.507812 5.09375 -8.5625 L 10.4375 -8.5625 C 10.425781 -9.507812 10.179688 -10.238281 9.703125 -10.75 C 9.234375 -11.257812 8.59375 -11.515625 7.78125 -11.515625 Z M 8.3125 0.25 C 6.070312 0.25 4.316406 -0.367188 3.046875 -1.609375 C 1.785156 -2.847656 1.15625 -4.601562 1.15625 -6.875 C 1.15625 -9.21875 1.738281 -11.023438 2.90625 -12.296875 C 4.070312 -13.578125 5.6875 -14.21875 7.75 -14.21875 C 9.726562 -14.21875 11.265625 -13.65625 12.359375 -12.53125 C 13.460938 -11.414062 14.015625 -9.863281 14.015625 -7.875 L 14.015625 -6.03125 L 5.015625 -6.03125 C 5.054688 -4.945312 5.375 -4.097656 5.96875 -3.484375 C 6.570312 -2.878906 7.414062 -2.578125 8.5 -2.578125 C 9.332031 -2.578125 10.125 -2.664062 10.875 -2.84375 C 11.625 -3.019531 12.40625 -3.300781 13.21875 -3.6875 L 13.21875 -0.734375 C 12.5625 -0.398438 11.851562 -0.15625 11.09375 0 C 10.332031 0.164062 9.40625 0.25 8.3125 0.25 Z M 8.3125 0.25 "/></g></g></g><g fill="#b9e1c9" fill-opacity="1"><g transform="translate(483.045655, 59.674256)"><g/></g></g><g fill="#b9e1c9" fill-opacity="1"><g transform="translate(489.687694, 59.674256)"><g><path d="M 2.296875 -18.265625 L 7.984375 -18.265625 C 10.566406 -18.265625 12.441406 -17.894531 13.609375 -17.15625 C 14.785156 -16.414062 15.375 -15.242188 15.375 -13.640625 C 15.375 -12.546875 15.117188 -11.648438 14.609375 -10.953125 C 14.097656 -10.253906 13.414062 -9.832031 12.5625 -9.6875 L 12.5625 -9.5625 C 13.71875 -9.300781 14.550781 -8.816406 15.0625 -8.109375 C 15.582031 -7.410156 15.84375 -6.472656 15.84375 -5.296875 C 15.84375 -3.628906 15.238281 -2.328125 14.03125 -1.390625 C 12.832031 -0.460938 11.195312 0 9.125 0 L 2.296875 0 Z M 6.171875 -11.03125 L 8.421875 -11.03125 C 9.460938 -11.03125 10.21875 -11.191406 10.6875 -11.515625 C 11.164062 -11.835938 11.40625 -12.375 11.40625 -13.125 C 11.40625 -13.820312 11.144531 -14.320312 10.625 -14.625 C 10.113281 -14.9375 9.304688 -15.09375 8.203125 -15.09375 L 6.171875 -15.09375 Z M 6.171875 -7.953125 L 6.171875 -3.203125 L 8.6875 -3.203125 C 9.757812 -3.203125 10.546875 -3.40625 11.046875 -3.8125 C 11.554688 -4.21875 11.8125 -4.84375 11.8125 -5.6875 C 11.8125 -7.195312 10.726562 -7.953125 8.5625 -7.953125 Z M 6.171875 -7.953125 "/></g></g></g><g fill="#b9e1c9" fill-opacity="1"><g transform="translate(506.867104, 59.674256)"><g><path d="M 11.890625 0 L 11.375 -1.78125 L 11.171875 -1.78125 C 10.765625 -1.132812 10.1875 -0.632812 9.4375 -0.28125 C 8.6875 0.0703125 7.832031 0.25 6.875 0.25 C 5.238281 0.25 4.003906 -0.1875 3.171875 -1.0625 C 2.335938 -1.945312 1.921875 -3.210938 1.921875 -4.859375 L 1.921875 -13.96875 L 5.734375 -13.96875 L 5.734375 -5.8125 C 5.734375 -4.800781 5.910156 -4.039062 6.265625 -3.53125 C 6.628906 -3.03125 7.203125 -2.78125 7.984375 -2.78125 C 9.046875 -2.78125 9.8125 -3.132812 10.28125 -3.84375 C 10.757812 -4.5625 11 -5.742188 11 -7.390625 L 11 -13.96875 L 14.8125 -13.96875 L 14.8125 0 Z M 11.890625 0 "/></g></g></g><g fill="#b9e1c9" fill-opacity="1"><g transform="translate(523.671964, 59.674256)"><g><path d="M 1.828125 -17.578125 C 1.828125 -18.816406 2.519531 -19.4375 3.90625 -19.4375 C 5.289062 -19.4375 5.984375 -18.816406 5.984375 -17.578125 C 5.984375 -16.984375 5.8125 -16.519531 5.46875 -16.1875 C 5.125 -15.863281 4.601562 -15.703125 3.90625 -15.703125 C 2.519531 -15.703125 1.828125 -16.328125 1.828125 -17.578125 Z M 5.8125 0 L 2 0 L 2 -13.96875 L 5.8125 -13.96875 Z M 5.8125 0 "/></g></g></g><g fill="#b9e1c9" fill-opacity="1"><g transform="translate(531.475116, 59.674256)"><g><path d="M 5.8125 0 L 2 0 L 2 -19.4375 L 5.8125 -19.4375 Z M 5.8125 0 "/></g></g></g><g fill="#b9e1c9" fill-opacity="1"><g transform="translate(539.278268, 59.674256)"><g><path d="M 6.421875 0.25 C 4.773438 0.25 3.484375 -0.382812 2.546875 -1.65625 C 1.617188 -2.9375 1.15625 -4.703125 1.15625 -6.953125 C 1.15625 -9.242188 1.628906 -11.023438 2.578125 -12.296875 C 3.535156 -13.578125 4.847656 -14.21875 6.515625 -14.21875 C 8.273438 -14.21875 9.617188 -13.535156 10.546875 -12.171875 L 10.671875 -12.171875 C 10.472656 -13.210938 10.375 -14.144531 10.375 -14.96875 L 10.375 -19.4375 L 14.203125 -19.4375 L 14.203125 0 L 11.28125 0 L 10.546875 -1.8125 L 10.375 -1.8125 C 9.507812 -0.4375 8.191406 0.25 6.421875 0.25 Z M 7.75 -2.78125 C 8.726562 -2.78125 9.441406 -3.0625 9.890625 -3.625 C 10.347656 -4.195312 10.597656 -5.160156 10.640625 -6.515625 L 10.640625 -6.9375 C 10.640625 -8.425781 10.40625 -9.492188 9.9375 -10.140625 C 9.476562 -10.796875 8.726562 -11.125 7.6875 -11.125 C 6.84375 -11.125 6.1875 -10.765625 5.71875 -10.046875 C 5.25 -9.328125 5.015625 -8.28125 5.015625 -6.90625 C 5.015625 -5.53125 5.25 -4.5 5.71875 -3.8125 C 6.195312 -3.125 6.875 -2.78125 7.75 -2.78125 Z M 7.75 -2.78125 "/></g></g></g><g fill="#b9e1c9" fill-opacity="1"><g transform="translate(555.458876, 59.674256)"><g><path d="M 7.78125 -11.515625 C 6.96875 -11.515625 6.332031 -11.257812 5.875 -10.75 C 5.425781 -10.238281 5.164062 -9.507812 5.09375 -8.5625 L 10.4375 -8.5625 C 10.425781 -9.507812 10.179688 -10.238281 9.703125 -10.75 C 9.234375 -11.257812 8.59375 -11.515625 7.78125 -11.515625 Z M 8.3125 0.25 C 6.070312 0.25 4.316406 -0.367188 3.046875 -1.609375 C 1.785156 -2.847656 1.15625 -4.601562 1.15625 -6.875 C 1.15625 -9.21875 1.738281 -11.023438 2.90625 -12.296875 C 4.070312 -13.578125 5.6875 -14.21875 7.75 -14.21875 C 9.726562 -14.21875 11.265625 -13.65625 12.359375 -12.53125 C 13.460938 -11.414062 14.015625 -9.863281 14.015625 -7.875 L 14.015625 -6.03125 L 5.015625 -6.03125 C 5.054688 -4.945312 5.375 -4.097656 5.96875 -3.484375 C 6.570312 -2.878906 7.414062 -2.578125 8.5 -2.578125 C 9.332031 -2.578125 10.125 -2.664062 10.875 -2.84375 C 11.625 -3.019531 12.40625 -3.300781 13.21875 -3.6875 L 13.21875 -0.734375 C 12.5625 -0.398438 11.851562 -0.15625 11.09375 0 C 10.332031 0.164062 9.40625 0.25 8.3125 0.25 Z M 8.3125 0.25 "/></g></g></g><g fill="#b9e1c9" fill-opacity="1"><g transform="translate(570.565779, 59.674256)"><g><path d="M 9.796875 -14.21875 C 10.304688 -14.21875 10.734375 -14.179688 11.078125 -14.109375 L 10.796875 -10.546875 C 10.484375 -10.628906 10.109375 -10.671875 9.671875 -10.671875 C 8.453125 -10.671875 7.503906 -10.359375 6.828125 -9.734375 C 6.148438 -9.109375 5.8125 -8.234375 5.8125 -7.109375 L 5.8125 0 L 2 0 L 2 -13.96875 L 4.890625 -13.96875 L 5.453125 -11.609375 L 5.625 -11.609375 C 6.0625 -12.398438 6.648438 -13.03125 7.390625 -13.5 C 8.128906 -13.976562 8.929688 -14.21875 9.796875 -14.21875 Z M 9.796875 -14.21875 "/></g></g></g></svg>