<svg xmlns="http://www.w3.org/2000/svg" xmlns:xlink="http://www.w3.org/1999/xlink" width="1080" zoomAndPan="magnify" viewBox="0 0 810 1439.999935" height="1920" preserveAspectRatio="xMidYMid meet" version="1.0"><defs><g/></defs><rect x="-81" width="972" fill="#ffffff" y="-143.999994" height="1727.999922" fill-opacity="1"/><rect x="-81" width="972" fill="#ffffff" y="-143.999994" height="1727.999922" fill-opacity="1"/><path fill="#ffffff" d="M 726.132812 253.746094 L 726.132812 283.234375 C 726.132812 286.402344 723.5625 288.976562 720.394531 288.976562 L 709.976562 288.976562 C 710.394531 276.902344 710.792969 259.480469 710.792969 248.003906 L 720.394531 248.003906 C 723.5625 248.003906 726.132812 250.578125 726.132812 253.746094 Z M 726.132812 253.746094 " fill-opacity="1" fill-rule="nonzero"/><path fill="#ffffff" d="M 232.9375 454.085938 C 232.773438 454.085938 232.605469 454.078125 232.4375 454.0625 C 230.929688 454.0625 229.800781 452.726562 229.910156 451.503906 C 233.671875 407.457031 228.15625 378.878906 227.679688 342.550781 C 227.5 330.117188 223.730469 316.949219 216.78125 304.472656 C 216.148438 303.335938 216.558594 301.902344 217.691406 301.269531 C 218.832031 300.636719 220.257812 301.046875 220.890625 302.179688 C 228.21875 315.335938 232.195312 329.273438 232.386719 342.484375 C 232.847656 377.882812 238.265625 406.625 234.726562 450.355469 C 235.019531 450.742188 235.199219 451.21875 235.199219 451.726562 C 235.199219 453.027344 234.238281 454.085938 232.9375 454.085938 Z M 232.9375 454.085938 " fill-opacity="1" fill-rule="nonzero"/><path fill="#ffffff" d="M 234.148438 454.121094 C 233.804688 454.121094 233.464844 454.109375 233.121094 454.0625 C 231.835938 453.871094 230.945312 452.675781 231.132812 451.394531 C 231.320312 450.109375 232.539062 449.238281 233.800781 449.40625 C 233.921875 449.421875 234.035156 449.414062 234.148438 449.414062 C 235.445312 449.414062 236.5 450.46875 236.5 451.765625 C 236.5 453.066406 235.445312 454.121094 234.148438 454.121094 Z M 234.148438 454.121094 " fill-opacity="1" fill-rule="nonzero"/><path fill="#ffffff" d="M 444.988281 449.1875 C 443.71875 449.1875 442.671875 448.175781 442.632812 446.902344 C 442.597656 445.601562 443.621094 444.519531 444.917969 444.480469 L 517.199219 442.410156 C 585.527344 440.433594 593.886719 441.941406 602.042969 441.984375 C 624.742188 442.746094 648.210938 443.523438 670.011719 437.507812 C 695.472656 430.46875 698.765625 403.613281 701.617188 377.964844 C 706.160156 336.914062 707.523438 299.238281 708.324219 260.902344 C 709.097656 203.972656 707.753906 216.183594 710.523438 186.761719 C 713.210938 158.144531 716.261719 125.710938 703.039062 105.191406 C 690.570312 85.878906 655.277344 86.65625 638.285156 87.042969 C 578.449219 88.382812 516.953125 89.144531 457.484375 89.886719 C 313.445312 91.667969 297.585938 92.460938 262 92.867188 C 241.890625 93.097656 221.097656 93.335938 200.824219 94.6875 C 175.222656 96.402344 169.417969 109.128906 167.664062 132.019531 C 167.074219 139.996094 166.683594 146.472656 166.441406 152.390625 C 166.386719 153.691406 165.265625 154.765625 163.992188 154.640625 C 162.695312 154.589844 161.683594 153.492188 161.742188 152.195312 C 161.984375 146.226562 162.378906 139.703125 162.96875 131.664062 C 164.835938 107.363281 171.769531 91.914062 200.511719 89.996094 C 229.09375 88.085938 258.257812 88.386719 286.953125 87.796875 C 343.589844 86.59375 401.460938 85.878906 457.425781 85.183594 C 516.882812 84.445312 578.367188 83.675781 638.183594 82.335938 C 656.015625 81.929688 693.097656 81.117188 706.996094 102.640625 C 725.59375 131.511719 714.199219 180.65625 713.363281 212.113281 C 713.363281 333.113281 706.714844 370.648438 706.097656 380.226562 C 703.574219 402.949219 700.113281 434.066406 671.265625 442.042969 C 646.8125 448.785156 620.511719 447.3125 594.710938 446.457031 C 562.707031 445.449219 535.839844 446.574219 445.054688 449.1875 C 445.03125 449.1875 445.007812 449.1875 444.988281 449.1875 Z M 444.988281 449.1875 " fill-opacity="1" fill-rule="nonzero"/><path fill="#ffffff" d="M 263.609375 131.417969 C 263.609375 132.15625 263.535156 132.886719 263.390625 133.613281 C 263.246094 134.335938 263.03125 135.039062 262.75 135.722656 C 262.464844 136.402344 262.117188 137.050781 261.703125 137.664062 C 261.292969 138.28125 260.824219 138.847656 260.300781 139.371094 C 259.777344 139.890625 259.207031 140.359375 258.589844 140.769531 C 257.972656 141.179688 257.324219 141.523438 256.636719 141.808594 C 255.953125 142.089844 255.246094 142.304688 254.519531 142.449219 C 253.792969 142.59375 253.058594 142.664062 252.316406 142.664062 C 251.574219 142.664062 250.839844 142.59375 250.113281 142.449219 C 249.386719 142.304688 248.679688 142.089844 247.996094 141.808594 C 247.3125 141.523438 246.660156 141.179688 246.042969 140.769531 C 245.429688 140.359375 244.859375 139.890625 244.332031 139.371094 C 243.808594 138.847656 243.339844 138.28125 242.929688 137.664062 C 242.519531 137.050781 242.167969 136.402344 241.886719 135.722656 C 241.601562 135.039062 241.386719 134.335938 241.242188 133.613281 C 241.097656 132.886719 241.027344 132.15625 241.027344 131.417969 C 241.027344 130.679688 241.097656 129.949219 241.242188 129.222656 C 241.386719 128.5 241.601562 127.796875 241.886719 127.113281 C 242.167969 126.429688 242.519531 125.785156 242.929688 125.167969 C 243.339844 124.554688 243.808594 123.988281 244.332031 123.464844 C 244.859375 122.941406 245.429688 122.476562 246.042969 122.066406 C 246.660156 121.65625 247.3125 121.308594 247.996094 121.027344 C 248.679688 120.746094 249.386719 120.53125 250.113281 120.386719 C 250.839844 120.242188 251.574219 120.171875 252.316406 120.171875 C 253.058594 120.171875 253.792969 120.242188 254.519531 120.386719 C 255.246094 120.53125 255.953125 120.746094 256.636719 121.027344 C 257.324219 121.308594 257.972656 121.65625 258.589844 122.066406 C 259.207031 122.476562 259.777344 122.941406 260.300781 123.464844 C 260.824219 123.988281 261.292969 124.554688 261.703125 125.167969 C 262.117188 125.785156 262.464844 126.429688 262.75 127.113281 C 263.03125 127.796875 263.246094 128.5 263.390625 129.222656 C 263.535156 129.949219 263.609375 130.679688 263.609375 131.417969 Z M 263.609375 131.417969 " fill-opacity="1" fill-rule="nonzero"/><path fill="#ffffff" d="M 313.175781 131.417969 C 313.175781 132.15625 313.105469 132.886719 312.960938 133.613281 C 312.816406 134.335938 312.601562 135.039062 312.316406 135.722656 C 312.035156 136.402344 311.6875 137.050781 311.273438 137.664062 C 310.863281 138.28125 310.394531 138.847656 309.871094 139.371094 C 309.347656 139.890625 308.777344 140.359375 308.160156 140.769531 C 307.542969 141.179688 306.890625 141.523438 306.207031 141.808594 C 305.523438 142.089844 304.816406 142.304688 304.089844 142.449219 C 303.363281 142.59375 302.628906 142.664062 301.886719 142.664062 C 301.144531 142.664062 300.410156 142.59375 299.683594 142.449219 C 298.957031 142.304688 298.25 142.089844 297.566406 141.808594 C 296.882812 141.523438 296.230469 141.179688 295.613281 140.769531 C 294.996094 140.359375 294.425781 139.890625 293.902344 139.371094 C 293.378906 138.847656 292.910156 138.28125 292.5 137.664062 C 292.085938 137.050781 291.738281 136.402344 291.457031 135.722656 C 291.171875 135.039062 290.957031 134.335938 290.8125 133.613281 C 290.667969 132.886719 290.597656 132.15625 290.597656 131.417969 C 290.597656 130.679688 290.667969 129.949219 290.8125 129.222656 C 290.957031 128.5 291.171875 127.796875 291.457031 127.113281 C 291.738281 126.429688 292.085938 125.785156 292.5 125.167969 C 292.910156 124.554688 293.378906 123.988281 293.902344 123.464844 C 294.425781 122.941406 294.996094 122.476562 295.613281 122.066406 C 296.230469 121.65625 296.882812 121.308594 297.566406 121.027344 C 298.25 120.746094 298.957031 120.53125 299.683594 120.386719 C 300.410156 120.242188 301.144531 120.171875 301.886719 120.171875 C 302.628906 120.171875 303.363281 120.242188 304.089844 120.386719 C 304.816406 120.53125 305.523438 120.746094 306.207031 121.027344 C 306.890625 121.308594 307.542969 121.65625 308.160156 122.066406 C 308.777344 122.476562 309.347656 122.941406 309.871094 123.464844 C 310.394531 123.988281 310.863281 124.554688 311.273438 125.167969 C 311.6875 125.785156 312.035156 126.429688 312.316406 127.113281 C 312.601562 127.796875 312.816406 128.5 312.960938 129.222656 C 313.105469 129.949219 313.175781 130.679688 313.175781 131.417969 Z M 313.175781 131.417969 " fill-opacity="1" fill-rule="nonzero"/><path fill="#b9e1c9" d="M 357.832031 131.988281 C 357.832031 132.726562 357.761719 133.457031 357.617188 134.183594 C 357.472656 134.90625 357.257812 135.609375 356.972656 136.292969 C 356.691406 136.972656 356.34375 137.621094 355.929688 138.238281 C 355.519531 138.851562 355.050781 139.417969 354.527344 139.941406 C 354.003906 140.464844 353.433594 140.929688 352.816406 141.339844 C 352.199219 141.75 351.546875 142.097656 350.863281 142.378906 C 350.179688 142.660156 349.472656 142.875 348.746094 143.019531 C 348.019531 143.164062 347.285156 143.234375 346.542969 143.234375 C 345.800781 143.234375 345.066406 143.164062 344.339844 143.019531 C 343.613281 142.875 342.90625 142.660156 342.222656 142.378906 C 341.539062 142.097656 340.886719 141.75 340.269531 141.339844 C 339.652344 140.929688 339.082031 140.464844 338.558594 139.941406 C 338.035156 139.417969 337.566406 138.851562 337.15625 138.238281 C 336.742188 137.621094 336.394531 136.972656 336.113281 136.292969 C 335.828125 135.609375 335.613281 134.90625 335.46875 134.183594 C 335.324219 133.457031 335.253906 132.726562 335.253906 131.988281 C 335.253906 131.25 335.324219 130.519531 335.46875 129.792969 C 335.613281 129.070312 335.828125 128.367188 336.113281 127.683594 C 336.394531 127.003906 336.742188 126.355469 337.15625 125.742188 C 337.566406 125.125 338.035156 124.558594 338.558594 124.035156 C 339.082031 123.515625 339.652344 123.046875 340.269531 122.636719 C 340.886719 122.226562 341.539062 121.878906 342.222656 121.597656 C 342.90625 121.316406 343.613281 121.101562 344.339844 120.957031 C 345.066406 120.8125 345.800781 120.742188 346.542969 120.742188 C 347.285156 120.742188 348.019531 120.8125 348.746094 120.957031 C 349.472656 121.101562 350.179688 121.316406 350.863281 121.597656 C 351.546875 121.878906 352.199219 122.226562 352.816406 122.636719 C 353.433594 123.046875 354.003906 123.515625 354.527344 124.035156 C 355.050781 124.558594 355.519531 125.125 355.929688 125.742188 C 356.34375 126.355469 356.691406 127.003906 356.972656 127.683594 C 357.257812 128.367188 357.472656 129.070312 357.617188 129.792969 C 357.761719 130.519531 357.832031 131.25 357.832031 131.988281 Z M 357.832031 131.988281 " fill-opacity="1" fill-rule="nonzero"/><path fill="#ffffff" d="M 256.765625 176.953125 C 255.476562 176.953125 254.425781 175.914062 254.414062 174.621094 C 254.402344 173.320312 255.445312 172.257812 256.746094 172.246094 L 660.484375 168.59375 C 660.492188 168.59375 660.5 168.59375 660.507812 168.59375 C 661.796875 168.59375 662.847656 169.632812 662.859375 170.925781 C 662.871094 172.222656 661.828125 173.289062 660.527344 173.300781 L 256.789062 176.953125 C 256.78125 176.953125 256.773438 176.953125 256.765625 176.953125 Z M 256.765625 176.953125 " fill-opacity="1" fill-rule="nonzero"/><path fill="#b9e1c9" d="M 628.3125 411.789062 L 502.617188 411.789062 C 493.851562 411.789062 486.722656 404.660156 486.722656 395.894531 L 486.722656 330.601562 C 486.722656 321.835938 493.851562 314.707031 502.617188 314.707031 L 628.3125 314.707031 C 637.074219 314.707031 644.203125 321.835938 644.203125 330.601562 L 644.203125 395.894531 C 644.203125 404.660156 637.074219 411.789062 628.3125 411.789062 Z M 502.617188 319.414062 C 496.445312 319.414062 491.425781 324.433594 491.425781 330.601562 L 491.425781 395.894531 C 491.425781 402.066406 496.445312 407.085938 502.617188 407.085938 L 628.3125 407.085938 C 634.480469 407.085938 639.5 402.066406 639.5 395.894531 L 639.5 330.601562 C 639.5 324.433594 634.480469 319.414062 628.3125 319.414062 Z M 502.617188 319.414062 " fill-opacity="1" fill-rule="nonzero"/><path fill="#ffffff" d="M 565.742188 337.03125 C 551.953125 337.03125 540.773438 348.167969 540.773438 361.90625 C 540.773438 375.617188 551.953125 386.753906 565.742188 386.753906 C 579.535156 386.753906 590.714844 375.617188 590.714844 361.90625 C 590.714844 348.167969 579.535156 337.03125 565.742188 337.03125 Z M 558.011719 372.550781 L 558.011719 352.4375 L 580.960938 361.5625 Z M 558.011719 372.550781 " fill-opacity="1" fill-rule="nonzero"/><path fill="#b9e1c9" d="M 311.136719 366.390625 C 290.761719 365.675781 273.589844 365.058594 263.824219 364.730469 C 258.734375 364.539062 254.195312 368.308594 252.824219 373.839844 L 249.132812 388.703125 C 247.828125 393.289062 246.390625 398.589844 244.890625 404.347656 C 235.09375 397.027344 225.757812 388.960938 220.042969 378.261719 L 197.125 279.066406 C 286.472656 348.152344 269.804688 334.738281 311.136719 366.390625 Z M 311.136719 366.390625 " fill-opacity="1" fill-rule="nonzero"/><path fill="#b9e1c9" d="M 256.199219 760.53125 C 261.0625 745.332031 278.804688 732.613281 294.011719 729.234375 C 295.117188 728.992188 296.222656 728.871094 297.324219 728.835938 C 298.050781 684.140625 277.039062 643.894531 241.261719 617.117188 C 241.261719 617.117188 241.261719 617.085938 241.234375 617.117188 C 202.667969 588.492188 153.367188 581.335938 109.660156 593.746094 C 45.226562 612.003906 0.0820312 670.792969 4.570312 737.175781 C 9.746094 813.84375 79.453125 871.753906 160.199219 866.328125 C 194.363281 864.039062 225.042969 850.800781 248.699219 830.472656 C 248.636719 828.308594 248.699219 826.140625 249.011719 824.007812 C 249.042969 824.386719 249.074219 824.792969 249.074219 825.199219 C 250.1875 820.945312 245.054688 840.558594 259.898438 783.855469 C 255.078125 777.175781 253.621094 768.601562 256.199219 760.53125 Z M 109.566406 789.941406 L 101.976562 677.445312 L 239.820312 719.480469 Z M 109.566406 789.941406 " fill-opacity="1" fill-rule="nonzero"/><path fill="#ffffff" d="M 363.160156 826.039062 C 361.863281 825.945312 360.886719 824.820312 360.980469 823.523438 L 362.175781 806.996094 C 362.265625 805.691406 363.492188 804.738281 364.691406 804.816406 C 365.984375 804.910156 366.964844 806.035156 366.867188 807.332031 L 365.671875 823.863281 C 365.585938 825.097656 364.542969 826.117188 363.160156 826.039062 Z M 363.160156 826.039062 " fill-opacity="1" fill-rule="nonzero"/><path fill="#ffffff" d="M 410.519531 819.9375 L 409.300781 807.390625 C 409.171875 806.097656 410.117188 804.949219 411.414062 804.820312 C 412.679688 804.664062 413.859375 805.640625 413.980469 806.9375 L 415.203125 819.484375 C 415.332031 820.777344 414.382812 821.925781 413.089844 822.050781 C 411.871094 822.199219 410.648438 821.277344 410.519531 819.9375 Z M 410.519531 819.9375 " fill-opacity="1" fill-rule="nonzero"/><path fill="#ffffff" d="M 435.628906 832.222656 C 434.742188 837.21875 431.707031 841.496094 427.742188 843.75 C 429.496094 844.484375 431.398438 845.234375 433.253906 845.570312 C 440.421875 846.867188 447.1875 842.132812 447.902344 836.417969 C 447.972656 835.851562 448.265625 835.382812 448.648438 835.019531 C 444.398438 834.554688 440.523438 833.757812 435.617188 831.667969 C 435.628906 831.851562 435.664062 832.03125 435.628906 832.222656 Z M 435.628906 832.222656 " fill-opacity="1" fill-rule="nonzero"/><path fill="#ffffff" d="M 413.65625 837.371094 C 416.308594 838.707031 419.011719 839.957031 421.753906 841.167969 C 422.054688 840.914062 422.398438 840.703125 422.816406 840.628906 C 426.730469 839.917969 430.171875 836.035156 431 831.398438 C 431.109375 830.769531 431.46875 830.25 431.953125 829.90625 C 429.785156 828.753906 427.683594 827.429688 425.667969 825.941406 C 423.378906 829.6875 417.121094 834.671875 413.65625 837.371094 Z M 413.65625 837.371094 " fill-opacity="1" fill-rule="nonzero"/><path fill="#ffffff" d="M 409.113281 834.960938 C 412.109375 832.714844 419.875 826.585938 421.78125 823.304688 C 421.847656 823.191406 421.953125 823.117188 422.035156 823.019531 C 419.917969 821.148438 418.492188 819.007812 416.769531 817.683594 C 415.292969 816.550781 415.871094 816.597656 414.519531 817.929688 C 413.761719 818.671875 413.105469 819.542969 412.324219 820.261719 C 408.117188 824.132812 402.863281 826.09375 397.078125 826.816406 C 400.871094 829.945312 404.902344 832.605469 409.113281 834.960938 Z M 409.113281 834.960938 " fill-opacity="1" fill-rule="nonzero"/><path fill="#ffffff" d="M 485.925781 873.136719 C 485.894531 873.386719 485.832031 873.605469 485.832031 873.859375 C 485.429688 873.859375 364.410156 880.578125 364.019531 880.632812 C 364.390625 876.488281 364.113281 872.359375 363.234375 868.648438 C 363.75 868.621094 483.671875 861.558594 483.792969 861.496094 L 484.484375 861.464844 L 484.324219 859.207031 C 485.003906 861.578125 485.5625 863.585938 485.863281 867.175781 C 486.085938 869.859375 485.925781 872.332031 485.925781 873.136719 Z M 485.925781 873.136719 " fill-opacity="1" fill-rule="nonzero"/><path fill="#ffffff" d="M 483.542969 856.824219 C 482.972656 856.824219 450.390625 858.710938 361.886719 864.007812 C 360.675781 860.679688 359.070312 857.703125 356.773438 854.878906 C 357.179688 846.25 358.496094 837.59375 359.816406 829.152344 C 360.191406 826.832031 359.816406 824.917969 360.820312 822.878906 C 368.285156 825.484375 376.066406 826.363281 383.75 826.894531 C 386.292969 827.050781 388.832031 827.175781 391.34375 827.144531 C 391.375 827.773438 391.625 828.371094 392.125 828.839844 C 401.976562 837.5625 413.332031 842.738281 425.066406 847.726562 C 428.734375 849.296875 431.800781 850.484375 435.640625 850.484375 C 443.867188 850.484375 451.601562 844.824219 452.578125 836.996094 C 452.640625 836.402344 452.484375 835.804688 452.140625 835.363281 C 454.835938 835.585938 457.566406 835.773438 460.234375 836.210938 C 470.03125 837.882812 478.882812 844.527344 483.542969 856.824219 Z M 483.542969 856.824219 " fill-opacity="1" fill-rule="nonzero"/><path fill="#ffffff" d="M 199.832031 498.210938 L 178.121094 498.210938 C 179.773438 495.472656 191.53125 497.9375 195.164062 498.046875 C 196.730469 498.113281 198.300781 498.175781 199.832031 498.210938 Z M 199.832031 498.210938 " fill-opacity="1" fill-rule="nonzero"/><path fill="#ffffff" d="M 235.367188 616.300781 C 238.382812 617.03125 240.949219 617.320312 242.894531 617.617188 C 242.394531 617.398438 237.507812 616.554688 235.367188 616.300781 Z M 235.367188 616.300781 " fill-opacity="1" fill-rule="nonzero"/><path fill="#ffffff" d="M 300.660156 823.558594 C 299.367188 823.445312 298.414062 822.304688 298.527344 821.007812 L 300.910156 794.125 C 301.023438 792.828125 302.164062 791.875 303.460938 791.988281 C 304.753906 792.101562 305.710938 793.246094 305.597656 794.539062 L 303.214844 821.421875 C 303.101562 822.699219 301.976562 823.671875 300.660156 823.558594 Z M 300.660156 823.558594 " fill-opacity="1" fill-rule="nonzero"/><path fill="#ffffff" d="M 250.867188 818.378906 C 249.605469 818.050781 248.855469 816.765625 249.183594 815.507812 L 255.488281 791.414062 C 255.820312 790.152344 257.125 789.414062 258.359375 789.734375 C 259.617188 790.0625 260.371094 791.347656 260.042969 792.605469 L 253.738281 816.695312 C 253.40625 817.964844 252.113281 818.703125 250.867188 818.378906 Z M 250.867188 818.378906 " fill-opacity="1" fill-rule="nonzero"/><path fill="#ffffff" d="M 320.992188 837.648438 C 319.203125 842.402344 315.433594 846.054688 311.121094 847.550781 C 312.714844 848.589844 314.449219 849.671875 316.210938 850.339844 C 322.550781 852.742188 330.410156 849.902344 332.289062 844 C 332.460938 843.460938 332.828125 843.054688 333.265625 842.769531 C 329.273438 841.578125 325.59375 840.101562 321.078125 837.105469 C 321.058594 837.289062 321.058594 837.46875 320.992188 837.648438 Z M 320.992188 837.648438 " fill-opacity="1" fill-rule="nonzero"/><path fill="#ffffff" d="M 298.441406 838.726562 C 300.804688 840.515625 303.234375 842.238281 305.707031 843.925781 C 306.046875 843.730469 306.425781 843.589844 306.84375 843.589844 C 306.859375 843.59375 306.863281 843.589844 306.871094 843.589844 C 310.847656 843.589844 314.929688 840.398438 316.585938 835.992188 C 316.808594 835.394531 317.253906 834.949219 317.789062 834.695312 C 315.875 833.175781 314.058594 831.492188 312.351562 829.664062 C 309.417969 832.925781 302.328125 836.707031 298.441406 838.726562 Z M 298.441406 838.726562 " fill-opacity="1" fill-rule="nonzero"/><path fill="#ffffff" d="M 237.324219 859.597656 L 237.242188 857.457031 C 236.84375 861.144531 236.660156 864.855469 236.839844 868.585938 C 236.902344 869.746094 237.46875 870.910156 238.125 871.785156 C 242.023438 872.285156 361.386719 887.519531 362.761719 887.691406 C 362.804688 887.367188 364.472656 882.675781 364.109375 875.242188 C 363.71875 875.273438 237.011719 859.558594 237.324219 859.597656 Z M 237.324219 859.597656 " fill-opacity="1" fill-rule="nonzero"/><path fill="#ffffff" d="M 294.417969 835.527344 C 297.820312 833.835938 306.535156 829.238281 309.003906 826.363281 C 309.09375 826.261719 309.210938 826.207031 309.3125 826.125 C 307.296875 823.527344 306.609375 821.597656 305.105469 819.929688 C 303.847656 818.550781 304.414062 818.707031 302.84375 819.773438 C 301.964844 820.371094 301.152344 821.089844 300.273438 821.65625 C 295.378906 824.742188 289.871094 825.667969 284.070312 825.339844 C 287.226562 829.101562 290.707031 832.453125 294.417969 835.527344 Z M 294.417969 835.527344 " fill-opacity="1" fill-rule="nonzero"/><path fill="#ffffff" d="M 237.644531 854.898438 C 238.832031 855.046875 256.277344 857.222656 258.273438 857.441406 C 255.679688 857.125 310.042969 863.886719 363.59375 870.527344 C 361.589844 859.253906 355.085938 849.902344 344.472656 846.0625 C 341.910156 845.125 339.277344 844.433594 336.652344 843.726562 C 336.890625 844.242188 336.960938 844.839844 336.773438 845.425781 C 334.6875 851.972656 327.875 855.917969 320.972656 855.917969 C 315.675781 855.917969 312.152344 853.875 307.761719 850.972656 C 297.136719 843.953125 286.929688 836.789062 278.835938 826.414062 C 278.425781 825.886719 278.28125 825.246094 278.371094 824.632812 C 275.886719 824.1875 273.417969 823.617188 270.972656 822.972656 C 263.472656 821.058594 256.007812 818.800781 249.136719 814.878906 C 247.789062 816.699219 247.789062 818.644531 247.003906 820.871094 C 242.871094 832.527344 238.707031 844.585938 237.289062 856.917969 Z M 237.644531 854.898438 " fill-opacity="1" fill-rule="nonzero"/><path fill="#ffffff" d="M 405.492188 562.15625 C 396.015625 554.84375 385.164062 549.574219 374.214844 544.679688 C 360.316406 538.4375 346.136719 532.761719 331.769531 527.617188 L 230.566406 527.617188 C 264.628906 538.589844 284.066406 543.820312 300.585938 554.910156 C 315.894531 565.136719 325.902344 579.535156 328.035156 594.375 C 328.191406 595.660156 327.316406 596.851562 326.027344 597.039062 L 325.683594 597.039062 C 324.554688 597.039062 323.519531 596.191406 323.363281 595.03125 C 321.417969 581.511719 312.160156 568.304688 297.980469 558.796875 C 284.964844 550.078125 269.6875 545.152344 254.910156 540.414062 L 223.382812 530.21875 C 222.285156 529.875 221.59375 528.746094 221.78125 527.617188 L 151.007812 527.617188 C 144.890625 527.617188 139.933594 522.0625 139.933594 515.160156 L 139.933594 510.675781 C 139.933594 503.804688 144.890625 498.222656 151.007812 498.222656 L 186.019531 498.222656 C 155.828125 488.625 121.589844 484.5 90.621094 492.824219 C 85.695312 494.144531 80.863281 495.773438 76.285156 497.90625 C 70.511719 500.667969 73.367188 517.042969 73.585938 521.9375 C 74.410156 546.335938 81.511719 565.238281 95.734375 582.921875 C 102.039062 590.777344 111.015625 594.839844 120.453125 598.355469 C 157.234375 611.675781 166.496094 605.246094 193.769531 609.652344 C 235.386719 616.355469 235.035156 616.300781 235.367188 616.300781 C 237.5 616.550781 239.507812 616.710938 241.234375 617.117188 L 241.261719 617.117188 C 244.53125 617.804688 246.238281 619.640625 246.347656 623.546875 C 247.160156 654.792969 244.871094 686.382812 244.148438 717.628906 C 243.554688 742.128906 242.957031 766.695312 242.363281 791.226562 C 269.375 792.601562 303.828125 794.355469 318.78125 795.117188 C 318.78125 795.117188 323.769531 650.308594 324.617188 625.746094 C 327.628906 626.214844 330.640625 626.683594 333.621094 627.1875 C 336.191406 627.625 345.605469 627.75 347.171875 629.789062 C 348.019531 630.890625 347.328125 633.964844 347.328125 635.25 C 347.339844 636.382812 343.855469 806.84375 343.847656 807.164062 L 421.113281 807.164062 C 421.992188 807.445312 422.777344 808.167969 423.71875 808.167969 L 430.429688 637.195312 C 435.542969 606.890625 429.550781 580.671875 405.492188 562.15625 Z M 309.277344 777.203125 L 309.121094 777.203125 L 287.914062 775.886719 L 261.75 774.253906 C 260.460938 774.160156 259.457031 773.03125 259.554688 771.746094 C 259.648438 770.457031 260.746094 769.484375 262.03125 769.546875 L 289.667969 771.273438 L 309.433594 772.496094 C 310.71875 772.59375 311.691406 773.691406 311.628906 774.976562 C 311.535156 776.230469 310.5 777.203125 309.277344 777.203125 Z M 405.679688 781.878906 C 405.648438 781.878906 405.617188 781.878906 405.617188 781.878906 L 367.53125 780.621094 C 366.214844 780.589844 365.210938 779.492188 365.242188 778.207031 C 365.273438 776.921875 366.371094 775.855469 367.65625 775.917969 L 405.742188 777.171875 C 407.058594 777.203125 408.0625 778.300781 408.03125 779.585938 C 408 780.875 406.933594 781.878906 405.679688 781.878906 Z M 405.679688 781.878906 " fill-opacity="1" fill-rule="nonzero"/><path fill="#b9e1c9" d="M 232.253906 451.699219 C 231.914062 455.816406 231.894531 460.289062 230.738281 464.242188 C 229.625 468.042969 228.035156 471.753906 226.878906 475.5625 C 225.742188 479.308594 224.605469 483.058594 223.46875 486.804688 C 222.550781 489.832031 221.601562 492.929688 219.710938 495.46875 C 215.066406 501.71875 205.019531 499.992188 198.113281 500.054688 C 159.410156 500.421875 112.347656 500.867188 73.742188 501.234375 C 73.742188 491.085938 73.21875 481.070312 73.644531 470.921875 C 75.472656 425.488281 83.210938 380.441406 94.929688 336.535156 C 101.460938 312.042969 111.875 285.246094 135.90625 274.871094 C 137.734375 274.089844 139.59375 273.375 141.554688 272.722656 C 141.195312 276.039062 140.804688 279.390625 140.445312 282.707031 C 148.738281 293.082031 162.449219 297.960938 174.890625 294.96875 C 178.285156 294.15625 181.386719 291.878906 183.671875 289.082031 C 185.957031 286.21875 185.628906 282.449219 185.988281 278.835938 C 186.183594 276.660156 186.480469 274.511719 186.742188 272.363281 C 193.695312 274.804688 199.996094 278.640625 204.957031 284.074219 C 219.292969 299.816406 229.738281 321.183594 230.035156 342.519531 C 230.5 378.417969 236.023438 407.570312 232.253906 451.699219 Z M 232.253906 451.699219 " fill-opacity="1" fill-rule="nonzero"/><path fill="#ffffff" d="M 138.605469 284.179688 C 138.214844 283.691406 138.039062 283.074219 138.105469 282.453125 C 138.148438 282.082031 142.308594 245.394531 142.347656 245.027344 C 142.484375 243.734375 143.675781 242.816406 144.933594 242.929688 C 146.226562 243.066406 147.164062 244.222656 147.03125 245.515625 C 146.785156 247.851562 142.949219 281.460938 142.890625 281.980469 C 150.632812 291.082031 163.144531 295.363281 174.339844 292.679688 C 176.992188 292.046875 179.726562 290.191406 181.851562 287.59375 C 183.570312 285.4375 183.292969 282.203125 183.648438 278.605469 C 184.332031 270.949219 185.011719 269.695312 185.105469 260.953125 C 185.121094 259.664062 186.171875 258.628906 187.460938 258.628906 C 187.46875 258.628906 187.476562 258.628906 187.488281 258.628906 C 188.785156 258.644531 189.828125 259.710938 189.8125 261.011719 C 189.710938 269.871094 188.773438 274.101562 188.332031 279.046875 C 187.964844 282.726562 188.320312 287.027344 185.511719 290.546875 C 182.691406 294 179.125 296.371094 175.4375 297.257812 C 162.242188 300.429688 147.429688 295.214844 138.605469 284.179688 Z M 138.605469 284.179688 " fill-opacity="1" fill-rule="nonzero"/><path fill="#ffffff" d="M 142.96875 247.058594 C 137.648438 241.457031 134.089844 234.777344 132.132812 226.691406 C 125.632812 228.878906 117.734375 226.480469 114.265625 220.011719 C 112.542969 216.792969 112.0625 212.851562 112.839844 208.304688 C 115.394531 193.25 129.011719 191.191406 137.304688 199.300781 C 138.234375 200.207031 138.253906 201.699219 137.34375 202.628906 C 136.433594 203.558594 134.945312 203.570312 134.015625 202.664062 C 131.824219 200.523438 128.765625 199.238281 126.195312 199.335938 C 121.027344 199.441406 118.347656 203.96875 117.476562 209.089844 C 116.878906 212.589844 117.195312 215.515625 118.414062 217.789062 C 119.644531 220.082031 121.933594 221.820312 124.53125 222.4375 C 127.414062 223.121094 130.515625 222.6875 132.457031 221.335938 C 133.835938 220.382812 135.789062 221.128906 136.113281 222.820312 L 134.105469 223.699219 L 134.132812 223.742188 L 136.210938 223.332031 C 137.839844 231.628906 141.164062 238.332031 146.378906 243.816406 C 147.273438 244.761719 147.234375 246.25 146.292969 247.144531 C 145.347656 248.039062 143.859375 248 142.96875 247.058594 Z M 142.96875 247.058594 " fill-opacity="1" fill-rule="nonzero"/><path fill="#ffffff" d="M 178.277344 264.640625 C 172.230469 264.640625 166.046875 262.816406 160.550781 260.191406 C 159.375 259.632812 158.878906 258.226562 159.441406 257.054688 C 160 255.882812 161.394531 255.382812 162.578125 255.945312 C 167.183594 258.144531 171.828125 259.492188 176.011719 259.84375 C 184.3125 260.507812 193.015625 257.414062 200 251.292969 C 212.449219 240.378906 218.613281 221.03125 219.320312 204.203125 C 219.917969 189.925781 215.253906 174.75 207.144531 164.597656 C 206.332031 163.585938 206.496094 162.105469 207.511719 161.292969 C 208.519531 160.492188 210.007812 160.648438 210.820312 161.664062 C 219.605469 172.664062 224.664062 189.039062 224.019531 204.398438 C 223.257812 222.511719 216.539062 243.042969 203.101562 254.832031 C 195.894531 261.144531 186.984375 264.640625 178.277344 264.640625 Z M 178.277344 264.640625 " fill-opacity="1" fill-rule="nonzero"/><path fill="#ffffff" d="M 216.628906 203.074219 C 215.992188 202.503906 214.828125 202.234375 213.789062 202.027344 C 209.960938 201.277344 206.902344 201.101562 204.171875 201.492188 C 202.867188 201.683594 201.691406 200.78125 201.507812 199.496094 C 201.324219 198.210938 202.214844 197.019531 203.503906 196.832031 C 206.777344 196.359375 210.335938 196.546875 214.703125 197.414062 C 216.363281 197.742188 218.257812 198.210938 219.777344 199.582031 C 220.742188 200.453125 220.820312 201.9375 219.949219 202.902344 C 219.078125 203.871094 217.582031 203.945312 216.628906 203.074219 Z M 216.628906 203.074219 " fill-opacity="1" fill-rule="nonzero"/><path fill="#ffffff" d="M 125.558594 215.332031 C 124.261719 215.226562 123.300781 214.089844 123.40625 212.796875 C 123.527344 211.292969 123.746094 209.691406 124.503906 208.15625 C 127.035156 202.984375 133.386719 203.308594 135.070312 207.316406 C 135.570312 208.515625 135.007812 209.894531 133.808594 210.394531 C 132.617188 210.898438 131.246094 210.339844 130.742188 209.160156 C 130.648438 209.0625 130.320312 208.933594 130.046875 209 C 128.550781 209.339844 128.21875 211.644531 128.09375 213.179688 C 127.984375 214.511719 126.796875 215.449219 125.558594 215.332031 Z M 130.746094 209.164062 Z M 130.746094 209.164062 " fill-opacity="1" fill-rule="nonzero"/><path fill="#ffffff" d="M 188.6875 227.757812 C 187.398438 227.605469 186.476562 226.4375 186.625 225.144531 C 186.777344 223.855469 187.917969 222.953125 189.238281 223.082031 C 193.28125 223.558594 194.617188 222.808594 195.027344 222.09375 C 195.773438 220.785156 194.230469 218.171875 193.339844 215.964844 C 191.648438 211.8125 191.75 206.96875 193.613281 202.679688 C 194.128906 201.488281 195.535156 200.941406 196.707031 201.460938 C 197.898438 201.976562 198.445312 203.363281 197.925781 204.554688 C 196.5625 207.691406 196.480469 211.207031 197.695312 214.195312 C 198.980469 217.320312 201.152344 220.847656 199.113281 224.425781 C 197.09375 227.964844 192.71875 228.21875 188.6875 227.757812 Z M 188.6875 227.757812 " fill-opacity="1" fill-rule="nonzero"/><path fill="#ffffff" d="M 175.046875 201.191406 C 175.25 201.230469 175.441406 201.304688 175.625 201.414062 C 175.808594 201.527344 175.980469 201.671875 176.140625 201.855469 C 176.296875 202.035156 176.441406 202.25 176.570312 202.492188 C 176.699219 202.738281 176.808594 203.007812 176.898438 203.304688 C 176.992188 203.605469 177.0625 203.921875 177.117188 204.261719 C 177.167969 204.601562 177.199219 204.953125 177.210938 205.324219 C 177.222656 205.691406 177.210938 206.066406 177.179688 206.449219 C 177.148438 206.832031 177.097656 207.214844 177.027344 207.601562 C 176.953125 207.984375 176.863281 208.359375 176.753906 208.726562 C 176.644531 209.09375 176.519531 209.449219 176.375 209.789062 C 176.230469 210.128906 176.074219 210.445312 175.902344 210.742188 C 175.730469 211.042969 175.546875 211.3125 175.355469 211.554688 C 175.160156 211.800781 174.960938 212.011719 174.753906 212.195312 C 174.546875 212.375 174.335938 212.523438 174.121094 212.636719 C 173.910156 212.746094 173.695312 212.820312 173.484375 212.859375 C 173.273438 212.898438 173.066406 212.898438 172.863281 212.859375 C 172.660156 212.820312 172.46875 212.746094 172.285156 212.632812 C 172.101562 212.523438 171.929688 212.375 171.769531 212.195312 C 171.613281 212.011719 171.46875 211.800781 171.339844 211.554688 C 171.214844 211.3125 171.105469 211.042969 171.011719 210.742188 C 170.917969 210.445312 170.847656 210.128906 170.796875 209.789062 C 170.742188 209.449219 170.710938 209.09375 170.699219 208.726562 C 170.6875 208.359375 170.699219 207.980469 170.730469 207.597656 C 170.761719 207.214844 170.8125 206.832031 170.882812 206.449219 C 170.957031 206.066406 171.046875 205.691406 171.15625 205.324219 C 171.265625 204.953125 171.390625 204.601562 171.535156 204.261719 C 171.679688 203.921875 171.835938 203.601562 172.007812 203.304688 C 172.179688 203.007812 172.363281 202.738281 172.554688 202.492188 C 172.75 202.25 172.949219 202.035156 173.15625 201.855469 C 173.363281 201.671875 173.574219 201.527344 173.789062 201.414062 C 174.003906 201.304688 174.214844 201.226562 174.425781 201.191406 C 174.640625 201.152344 174.84375 201.152344 175.046875 201.191406 Z M 175.046875 201.191406 " fill-opacity="1" fill-rule="nonzero"/><path fill="#ffffff" d="M 211.144531 207.878906 C 211.34375 207.917969 211.539062 207.992188 211.722656 208.105469 C 211.90625 208.214844 212.074219 208.363281 212.234375 208.542969 C 212.394531 208.726562 212.539062 208.9375 212.664062 209.183594 C 212.792969 209.425781 212.902344 209.699219 212.996094 209.996094 C 213.085938 210.292969 213.160156 210.609375 213.210938 210.949219 C 213.261719 211.289062 213.296875 211.644531 213.304688 212.011719 C 213.316406 212.378906 213.308594 212.757812 213.277344 213.140625 C 213.246094 213.523438 213.195312 213.90625 213.121094 214.289062 C 213.050781 214.671875 212.960938 215.046875 212.851562 215.414062 C 212.742188 215.785156 212.613281 216.136719 212.46875 216.476562 C 212.328125 216.816406 212.167969 217.136719 211.996094 217.433594 C 211.828125 217.730469 211.644531 218 211.449219 218.246094 C 211.257812 218.488281 211.058594 218.703125 210.847656 218.882812 C 210.640625 219.066406 210.429688 219.210938 210.21875 219.324219 C 210.003906 219.433594 209.789062 219.511719 209.578125 219.546875 C 209.367188 219.585938 209.160156 219.585938 208.960938 219.546875 C 208.757812 219.511719 208.566406 219.433594 208.382812 219.324219 C 208.195312 219.210938 208.027344 219.066406 207.867188 218.882812 C 207.707031 218.703125 207.566406 218.488281 207.4375 218.246094 C 207.308594 218 207.199219 217.730469 207.105469 217.433594 C 207.015625 217.136719 206.941406 216.816406 206.890625 216.476562 C 206.839844 216.136719 206.804688 215.785156 206.796875 215.414062 C 206.785156 215.046875 206.792969 214.671875 206.824219 214.289062 C 206.855469 213.90625 206.90625 213.523438 206.980469 213.140625 C 207.050781 212.757812 207.140625 212.378906 207.25 212.011719 C 207.363281 211.644531 207.488281 211.289062 207.632812 210.949219 C 207.773438 210.609375 207.933594 210.292969 208.105469 209.996094 C 208.277344 209.695312 208.457031 209.425781 208.652344 209.183594 C 208.84375 208.9375 209.046875 208.726562 209.253906 208.542969 C 209.460938 208.363281 209.671875 208.214844 209.882812 208.105469 C 210.097656 207.992188 210.3125 207.917969 210.523438 207.878906 C 210.734375 207.84375 210.941406 207.84375 211.144531 207.878906 Z M 211.144531 207.878906 " fill-opacity="1" fill-rule="nonzero"/><path fill="#ffffff" d="M 158.886719 196.585938 C 158.148438 195.515625 158.417969 194.050781 159.484375 193.3125 C 165.917969 188.875 174.984375 187.855469 182.570312 190.710938 C 183.785156 191.167969 184.402344 192.523438 183.945312 193.738281 C 183.484375 194.957031 182.132812 195.566406 180.914062 195.117188 C 174.808594 192.820312 167.277344 193.65625 162.15625 197.1875 C 161.089844 197.925781 159.621094 197.65625 158.886719 196.585938 Z M 158.886719 196.585938 " fill-opacity="1" fill-rule="nonzero"/><path fill="#ffffff" d="M 90.328125 212.644531 C 92.199219 216.609375 95.261719 220.078125 98.976562 222.441406 C 105.1875 226.394531 114.855469 228.480469 121.976562 226.15625 C 117.296875 222.472656 114.804688 217.007812 115.074219 211.035156 C 115.644531 198.546875 128.257812 193.066406 137.054688 202.8125 C 146.285156 195.992188 152.90625 185.757812 155.328125 174.566406 C 162.605469 176.472656 170.144531 177.828125 177.640625 177.167969 C 185.136719 176.507812 192.648438 173.664062 197.808594 168.207031 C 196.804688 169.265625 209.527344 179.304688 210.796875 180.140625 C 215.574219 183.292969 221.53125 186.707031 227.335938 186.988281 C 239.160156 187.558594 251.585938 179.402344 257.507812 169.628906 C 249.835938 167.410156 244.691406 160.101562 242.007812 152.605469 C 239.324219 145.109375 238.480469 137.066406 235.917969 129.527344 C 227.6875 105.316406 202.625 93.152344 183.316406 111.328125 C 180.375 114.101562 181.199219 114.234375 178.332031 111.042969 C 176.1875 108.652344 174.09375 106.394531 171.484375 104.476562 C 154.214844 91.761719 124.445312 94.433594 118.640625 114.878906 C 116.375 122.855469 119.023438 130.140625 118.375 137.933594 C 111.699219 136.25 105.25 136.292969 99.054688 139.703125 C 89.761719 144.816406 84.28125 155.753906 84.425781 163.195312 C 84.53125 168.804688 87.632812 174.023438 91.710938 177.898438 C 95.785156 181.769531 100.796875 184.496094 105.746094 187.175781 C 94.816406 186.070312 83.734375 198.683594 90.328125 212.644531 Z M 90.328125 212.644531 " fill-opacity="1" fill-rule="nonzero"/><path fill="#ffffff" d="M 174.933594 239.210938 C 174.011719 238.300781 174.003906 236.808594 174.921875 235.886719 C 175.832031 234.964844 177.320312 234.953125 178.246094 235.875 C 180.796875 238.402344 185.246094 240.671875 188.484375 239.890625 C 189.738281 239.601562 191.019531 240.367188 191.320312 241.632812 C 191.621094 242.898438 190.839844 244.167969 189.578125 244.46875 C 184.492188 245.683594 178.605469 242.855469 174.933594 239.210938 Z M 174.933594 239.210938 " fill-opacity="1" fill-rule="nonzero"/><path fill="#b9e1c9" d="M 238.847656 427.761719 C 232.972656 451.179688 227.09375 475.929688 223.992188 488.972656 C 222.6875 494.402344 218.3125 498.210938 213.285156 498.210938 L 210.867188 498.210938 C 200.152344 497.433594 191.207031 496.671875 175.476562 491.964844 C 162.101562 487.917969 155.792969 486.117188 143.21875 471.539062 C 123.042969 448.125 109.425781 419.175781 104.269531 388.765625 L 169.566406 325.640625 L 181.679688 416.445312 C 186.25 417.875 191.015625 418.785156 195.359375 420.867188 C 196.566406 421.0625 197.808594 421.257812 199.050781 421.453125 C 212.304688 423.566406 225.59375 425.648438 238.847656 427.761719 Z M 238.847656 427.761719 " fill-opacity="1" fill-rule="nonzero"/><path fill="#ffffff" d="M 238.609375 430.992188 L 193.144531 424.277344 C 192.09375 424.121094 191.28125 423.285156 191.152344 422.230469 L 185.898438 378.699219 C 185.726562 378.492188 185.597656 378.296875 185.492188 378.140625 C 184.59375 377.207031 184.5625 375.625 185.5 374.722656 C 186.433594 373.820312 187.859375 373.761719 188.765625 374.699219 C 189 374.945312 189.207031 375.230469 189.40625 375.523438 C 189.457031 375.601562 189.472656 375.628906 189.464844 375.628906 C 190.015625 376.011719 190.386719 376.613281 190.464844 377.289062 L 195.609375 419.882812 L 239.296875 426.335938 C 240.582031 426.527344 241.46875 427.722656 241.28125 429.007812 C 241.097656 430.230469 239.980469 431.171875 238.609375 430.992188 Z M 238.609375 430.992188 " fill-opacity="1" fill-rule="nonzero"/><path fill="#ffffff" d="M 203.90625 497.753906 C 192.105469 497.023438 179.902344 496.269531 168.160156 493.191406 C 154.851562 489.699219 143.898438 483.460938 136.488281 475.15625 C 122.941406 459.972656 120.683594 438.714844 119.417969 416.433594 C 119.34375 415.136719 120.335938 414.023438 121.632812 413.949219 C 122.90625 413.808594 124.042969 414.867188 124.117188 416.164062 C 125.332031 437.585938 127.460938 457.972656 140 472.027344 C 146.789062 479.636719 156.941406 485.382812 169.355469 488.640625 C 180.652344 491.601562 192.617188 492.339844 204.191406 493.054688 C 205.492188 493.136719 206.476562 494.253906 206.398438 495.546875 C 206.316406 496.863281 205.179688 497.832031 203.90625 497.753906 Z M 203.90625 497.753906 " fill-opacity="1" fill-rule="nonzero"/><path fill="#ffffff" d="M 412.894531 529.96875 L 151.007812 529.96875 C 143.605469 529.96875 137.582031 523.324219 137.582031 515.160156 L 137.582031 510.675781 C 137.582031 502.511719 143.605469 495.867188 151.007812 495.867188 L 213.277344 495.867188 C 217.191406 495.867188 220.648438 492.804688 221.6875 488.425781 C 243.128906 398.984375 239.808594 415.59375 250.523438 373.273438 C 252.179688 366.628906 257.601562 362.171875 263.90625 362.386719 C 266.757812 362.476562 452.175781 368.894531 452.628906 368.910156 C 452.953125 369 458.632812 368.816406 462.726562 374.542969 C 465.535156 378.476562 466.359375 383.660156 464.929688 388.410156 L 425.628906 519.785156 C 423.859375 525.867188 418.742188 529.96875 412.894531 529.96875 Z M 151.007812 500.574219 C 146.199219 500.574219 142.285156 505.101562 142.285156 510.675781 L 142.285156 515.160156 C 142.285156 520.730469 146.199219 525.261719 151.007812 525.261719 L 412.894531 525.261719 C 416.628906 525.261719 419.929688 522.527344 421.117188 518.457031 L 460.425781 387.058594 C 462.304688 380.808594 458.484375 373.84375 452.460938 373.613281 C 451.9375 373.59375 264.253906 367.105469 263.742188 367.089844 C 259.8125 366.847656 256.203125 369.953125 255.089844 374.40625 C 245.40625 412.496094 245.460938 409.414062 228.769531 479.089844 L 226.261719 489.519531 C 224.722656 496.023438 219.382812 500.574219 213.277344 500.574219 Z M 151.007812 500.574219 " fill-opacity="1" fill-rule="nonzero"/><path fill="#ffffff" d="M 359.957031 433.8125 L 362.066406 443.808594 C 362.289062 444.867188 363.019531 445.648438 364.019531 445.890625 L 373.464844 448.191406 C 375.984375 448.808594 376.207031 452.382812 373.835938 454.242188 L 364.964844 461.21875 C 364.023438 461.957031 363.410156 463.078125 363.324219 464.214844 L 362.492188 474.960938 C 362.273438 477.828125 359.027344 479.777344 357 478.261719 L 349.410156 472.574219 C 348.605469 471.972656 347.496094 471.886719 346.4375 472.347656 L 336.484375 476.6875 C 333.824219 477.84375 331.597656 475.472656 332.714844 472.675781 L 336.894531 462.1875 C 337.339844 461.078125 337.265625 459.902344 336.703125 459.046875 L 331.378906 450.984375 C 329.957031 448.832031 331.828125 445.417969 334.542969 445.207031 L 344.71875 444.410156 C 345.796875 444.324219 346.863281 443.683594 347.570312 442.695312 L 354.234375 433.375 C 356.015625 430.886719 359.398438 431.148438 359.957031 433.8125 Z M 359.957031 433.8125 " fill-opacity="1" fill-rule="nonzero"/><path fill="#ffffff" d="M 230.390625 393.039062 C 230.109375 387.183594 229.058594 381.378906 227.269531 375.800781 C 226.871094 374.5625 227.550781 373.238281 228.789062 372.84375 C 230.023438 372.449219 231.355469 373.121094 231.75 374.363281 C 233.667969 380.335938 234.792969 386.546875 235.089844 392.820312 C 235.148438 394.117188 234.148438 395.21875 232.847656 395.28125 C 231.683594 395.378906 230.453125 394.417969 230.390625 393.039062 Z M 230.390625 393.039062 " fill-opacity="1" fill-rule="nonzero"/><path fill="#ffffff" d="M 584.769531 293.433594 C 584.261719 292.804688 583.375 292.867188 582.5625 292.867188 L 499.996094 293.199219 C 498.109375 293.324219 496.027344 293.339844 494.542969 292.167969 C 493.050781 290.996094 492.621094 288.945312 492.441406 287.058594 C 492.105469 283.546875 491.476562 276.730469 493.988281 273.773438 C 496.707031 270.578125 504.511719 269.335938 508.402344 268.28125 C 543.4375 258.800781 572.453125 272.136719 584.769531 293.433594 Z M 584.769531 293.433594 " fill-opacity="1" fill-rule="nonzero"/><path fill="#ffffff" d="M 603.097656 262.539062 C 608.546875 260.800781 614.074219 259.171875 619.75 258.378906 C 622.976562 257.929688 631.28125 256.375 633.4375 259.433594 C 634.46875 260.894531 634.203125 264.519531 634.367188 266.226562 C 635.144531 274.390625 635.023438 282.71875 632.375 290.503906 C 631.4375 293.246094 630.519531 294.234375 627.417969 294.960938 C 617.429688 297.296875 607.03125 294.585938 596.773438 294.402344 C 590.121094 294.28125 583.429688 295.230469 576.828125 294.398438 C 570.632812 294.398438 567.605469 290.210938 566.1875 284.992188 C 565.78125 283.488281 565.910156 282.976562 567.050781 281.941406 C 578.808594 271.246094 589.882812 266.753906 603.097656 262.539062 Z M 603.097656 262.539062 " fill-opacity="1" fill-rule="nonzero"/><path fill="#b9e1c9" d="M 622.746094 296.378906 L 503.796875 296.378906 C 496 296.378906 489.652344 290.035156 489.652344 282.234375 L 489.652344 209.960938 C 489.652344 202.164062 496 195.820312 503.796875 195.820312 L 622.746094 195.820312 C 630.542969 195.820312 636.886719 202.164062 636.886719 209.960938 L 636.886719 282.234375 C 636.886719 290.035156 630.542969 296.378906 622.746094 296.378906 Z M 503.796875 200.527344 C 498.59375 200.527344 494.359375 204.757812 494.359375 209.960938 L 494.359375 282.234375 C 494.359375 287.4375 498.59375 291.671875 503.796875 291.671875 L 622.746094 291.671875 C 627.945312 291.671875 632.179688 287.4375 632.179688 282.234375 L 632.179688 209.960938 C 632.179688 204.757812 627.945312 200.527344 622.746094 200.527344 Z M 503.796875 200.527344 " fill-opacity="1" fill-rule="nonzero"/><path fill="#ffffff" d="M 585.679688 229.691406 C 582.777344 227.210938 579.917969 225.027344 576.914062 225.1875 C 575.652344 225.351562 574.496094 224.285156 574.417969 222.992188 C 574.332031 221.691406 575.316406 220.574219 576.613281 220.492188 C 580.621094 220.253906 583.90625 222.222656 586.945312 224.625 C 588.652344 223.21875 590.984375 222.4375 593.503906 222.554688 C 596.472656 222.699219 599.125 223.957031 601.324219 225.167969 C 602.464844 225.796875 602.878906 227.226562 602.253906 228.363281 C 601.625 229.503906 600.191406 229.910156 599.058594 229.292969 C 597.324219 228.339844 595.285156 227.351562 593.28125 227.253906 C 591.566406 227.234375 589.898438 227.910156 589.265625 229.046875 C 588.921875 229.664062 588.320312 230.09375 587.625 230.21875 C 586.910156 230.34375 586.199219 230.136719 585.679688 229.691406 Z M 585.679688 229.691406 " fill-opacity="1" fill-rule="nonzero"/><path fill="#b9e1c9" d="M 540.902344 229.890625 C 540.902344 230.5625 540.835938 231.230469 540.703125 231.886719 C 540.574219 232.546875 540.378906 233.1875 540.121094 233.808594 C 539.863281 234.429688 539.546875 235.019531 539.171875 235.578125 C 538.796875 236.136719 538.371094 236.652344 537.890625 237.128906 C 537.414062 237.605469 536.894531 238.027344 536.335938 238.402344 C 535.773438 238.777344 535.179688 239.089844 534.558594 239.347656 C 533.933594 239.605469 533.292969 239.800781 532.628906 239.929688 C 531.96875 240.0625 531.300781 240.128906 530.625 240.128906 C 529.949219 240.128906 529.28125 240.0625 528.621094 239.929688 C 527.957031 239.800781 527.316406 239.605469 526.691406 239.347656 C 526.070312 239.089844 525.476562 238.777344 524.914062 238.402344 C 524.355469 238.027344 523.835938 237.605469 523.359375 237.128906 C 522.882812 236.652344 522.453125 236.136719 522.078125 235.578125 C 521.707031 235.019531 521.386719 234.429688 521.128906 233.808594 C 520.871094 233.1875 520.675781 232.546875 520.546875 231.886719 C 520.414062 231.230469 520.347656 230.5625 520.347656 229.890625 C 520.347656 229.21875 520.414062 228.554688 520.546875 227.894531 C 520.675781 227.234375 520.871094 226.59375 521.128906 225.972656 C 521.386719 225.351562 521.707031 224.761719 522.078125 224.203125 C 522.453125 223.644531 522.882812 223.128906 523.359375 222.652344 C 523.835938 222.175781 524.355469 221.753906 524.914062 221.378906 C 525.476562 221.007812 526.070312 220.691406 526.691406 220.433594 C 527.316406 220.175781 527.957031 219.984375 528.621094 219.851562 C 529.28125 219.71875 529.949219 219.65625 530.625 219.65625 C 531.300781 219.65625 531.96875 219.71875 532.628906 219.851562 C 533.292969 219.984375 533.933594 220.175781 534.558594 220.433594 C 535.179688 220.691406 535.773438 221.007812 536.335938 221.378906 C 536.894531 221.753906 537.414062 222.175781 537.890625 222.652344 C 538.371094 223.128906 538.796875 223.644531 539.171875 224.203125 C 539.546875 224.761719 539.863281 225.351562 540.121094 225.972656 C 540.378906 226.59375 540.574219 227.234375 540.703125 227.894531 C 540.835938 228.554688 540.902344 229.21875 540.902344 229.890625 Z M 540.902344 229.890625 " fill-opacity="1" fill-rule="nonzero"/><path fill="#ffffff" d="M 517.074219 725.933594 C 501.457031 723.996094 478.9375 719.675781 463.789062 704.601562 C 451.019531 691.894531 444.28125 672.195312 444.828125 649.125 C 445.175781 634.414062 448.203125 619.835938 451.132812 605.734375 C 454.40625 589.96875 456.824219 580.320312 454.160156 572.695312 C 453.140625 569.777344 451.382812 567.328125 449.210938 565.789062 C 441.554688 560.386719 429.96875 565.601562 419.394531 564.777344 C 409.640625 564.042969 400.550781 557.296875 396.230469 547.59375 C 394.195312 543.019531 395.496094 536.976562 394.203125 534.214844 C 392.996094 531.621094 386.425781 530.128906 382.898438 529.328125 L 381.238281 528.945312 C 379.976562 528.644531 379.199219 527.371094 379.503906 526.105469 C 379.808594 524.84375 381.078125 524.085938 382.34375 524.371094 C 387.859375 525.625 396.101562 527.15625 398.46875 532.226562 C 400.351562 536.257812 398.945312 542.121094 400.527344 545.675781 C 404.101562 553.699219 411.820312 559.488281 419.746094 560.082031 C 429.882812 560.878906 442.351562 555.175781 451.925781 561.949219 C 454.894531 564.046875 457.265625 567.3125 458.601562 571.144531 C 460.980469 577.957031 459.941406 585.210938 458.667969 592.058594 C 455.179688 610.839844 449.984375 630.078125 449.53125 649.234375 C 449.234375 661.84375 451.121094 685.359375 467.113281 701.265625 C 481.234375 715.324219 502.722656 719.410156 517.65625 721.261719 C 540.863281 724.144531 564.679688 723.222656 586.964844 721.796875 C 602.46875 720.804688 623.332031 716.214844 634.660156 700 C 643.222656 687.734375 644.828125 670.113281 638.949219 652.859375 C 633.886719 637.996094 624.597656 625.121094 612.210938 610.367188 C 601.191406 597.253906 589.570312 580.242188 597.59375 564.996094 C 602.917969 554.867188 614.679688 551.101562 623.910156 550.957031 C 643.253906 550.8125 657.769531 561.804688 706.03125 567.433594 C 717.894531 568.8125 730.308594 569.398438 740.703125 564.386719 C 759.492188 555.324219 765.066406 530.144531 759.457031 512.011719 C 754 494.367188 740.371094 479.496094 736.277344 460.761719 C 730.535156 434.523438 744.507812 409.027344 760.457031 385.382812 C 781.296875 354.492188 803.375 319.625 777.492188 292.273438 C 773.59375 288.152344 768.664062 285.144531 763.53125 282.175781 C 749.6875 274.160156 733.410156 266.402344 717.667969 269.621094 C 716.398438 269.882812 715.152344 269.0625 714.890625 267.789062 C 714.628906 266.515625 715.453125 265.273438 716.722656 265.015625 C 734.03125 261.472656 751.28125 269.648438 765.890625 278.101562 C 771.117188 281.128906 776.582031 284.464844 780.910156 289.039062 C 810.226562 320.019531 782.914062 360.503906 764.84375 387.292969 L 764.359375 388.011719 C 748.992188 410.792969 735.511719 435.246094 740.871094 459.757812 C 744.714844 477.324219 758.398438 492.660156 763.953125 510.621094 C 770.273438 531.058594 764.074219 558.34375 742.75 568.625 C 731.273438 574.164062 718.054688 573.570312 705.484375 572.105469 C 657.316406 566.488281 642.007812 555.507812 623.980469 555.660156 C 614.082031 555.816406 605.355469 560.34375 601.757812 567.183594 C 595.039062 579.957031 605.742188 595.351562 615.816406 607.339844 C 626.074219 619.5625 637.515625 634.046875 643.40625 651.339844 C 649.761719 670.007812 647.9375 689.207031 638.519531 702.695312 C 626.117188 720.445312 603.800781 725.433594 587.265625 726.488281 C 564 727.984375 540.285156 728.820312 517.074219 725.933594 Z M 517.074219 725.933594 " fill-opacity="1" fill-rule="nonzero"/><path fill="#ffffff" d="M 455.191406 241.941406 L 248.582031 241.941406 C 247.28125 241.941406 246.226562 240.886719 246.226562 239.589844 C 246.226562 238.289062 247.28125 237.238281 248.582031 237.238281 L 455.191406 237.238281 C 456.492188 237.238281 457.542969 238.289062 457.542969 239.589844 C 457.542969 240.886719 456.492188 241.941406 455.191406 241.941406 Z M 455.191406 241.941406 " fill-opacity="1" fill-rule="nonzero"/><path fill="#ffffff" d="M 396.632812 270.304688 L 251.023438 270.304688 C 249.722656 270.304688 248.667969 269.25 248.667969 267.953125 C 248.667969 266.652344 249.722656 265.597656 251.023438 265.597656 L 396.632812 265.597656 C 397.933594 265.597656 398.988281 266.652344 398.988281 267.953125 C 398.988281 269.25 397.933594 270.304688 396.632812 270.304688 Z M 396.632812 270.304688 " fill-opacity="1" fill-rule="nonzero"/><path fill="#b9e1c9" d="M 433.070312 330.589844 L 266.6875 330.589844 C 265.386719 330.589844 264.332031 329.535156 264.332031 328.238281 C 264.332031 326.9375 265.386719 325.882812 266.6875 325.882812 L 433.070312 325.882812 C 434.367188 325.882812 435.421875 326.9375 435.421875 328.238281 C 435.421875 329.535156 434.367188 330.589844 433.070312 330.589844 Z M 433.070312 330.589844 " fill-opacity="1" fill-rule="nonzero"/><g fill="#b9e1c9" fill-opacity="1"><g transform="translate(405.011702, 141.721388)"><g><path d="M 8.125 0 L 3.0625 0 L 3.0625 -24.265625 L 16.96875 -24.265625 L 16.96875 -20.0625 L 8.125 -20.0625 L 8.125 -13.796875 L 16.359375 -13.796875 L 16.359375 -9.59375 L 8.125 -9.59375 Z M 8.125 0 "/></g></g></g><g fill="#b9e1c9" fill-opacity="1"><g transform="translate(423.669713, 141.721388)"><g><path d="M 13.015625 -18.90625 C 13.703125 -18.90625 14.269531 -18.859375 14.71875 -18.765625 L 14.34375 -14.015625 C 13.9375 -14.117188 13.4375 -14.171875 12.84375 -14.171875 C 11.226562 -14.171875 9.96875 -13.753906 9.0625 -12.921875 C 8.164062 -12.097656 7.71875 -10.941406 7.71875 -9.453125 L 7.71875 0 L 2.65625 0 L 2.65625 -18.5625 L 6.484375 -18.5625 L 7.234375 -15.4375 L 7.484375 -15.4375 C 8.054688 -16.476562 8.832031 -17.316406 9.8125 -17.953125 C 10.800781 -18.585938 11.867188 -18.90625 13.015625 -18.90625 Z M 13.015625 -18.90625 "/></g></g></g><g fill="#b9e1c9" fill-opacity="1"><g transform="translate(439.10739, 141.721388)"><g><path d="M 14.4375 0 L 13.46875 -2.53125 L 13.328125 -2.53125 C 12.472656 -1.445312 11.59375 -0.695312 10.6875 -0.28125 C 9.789062 0.125 8.617188 0.328125 7.171875 0.328125 C 5.390625 0.328125 3.984375 -0.175781 2.953125 -1.1875 C 1.929688 -2.207031 1.421875 -3.660156 1.421875 -5.546875 C 1.421875 -7.515625 2.109375 -8.96875 3.484375 -9.90625 C 4.867188 -10.84375 6.953125 -11.359375 9.734375 -11.453125 L 12.953125 -11.5625 L 12.953125 -12.375 C 12.953125 -14.25 11.988281 -15.1875 10.0625 -15.1875 C 8.582031 -15.1875 6.835938 -14.738281 4.828125 -13.84375 L 3.15625 -17.265625 C 5.289062 -18.378906 7.660156 -18.9375 10.265625 -18.9375 C 12.753906 -18.9375 14.660156 -18.394531 15.984375 -17.3125 C 17.316406 -16.226562 17.984375 -14.582031 17.984375 -12.375 L 17.984375 0 Z M 12.953125 -8.59375 L 10.984375 -8.53125 C 9.515625 -8.488281 8.421875 -8.222656 7.703125 -7.734375 C 6.984375 -7.242188 6.625 -6.503906 6.625 -5.515625 C 6.625 -4.085938 7.441406 -3.375 9.078125 -3.375 C 10.253906 -3.375 11.191406 -3.707031 11.890625 -4.375 C 12.597656 -5.050781 12.953125 -5.953125 12.953125 -7.078125 Z M 12.953125 -8.59375 "/></g></g></g><g fill="#b9e1c9" fill-opacity="1"><g transform="translate(459.641168, 141.721388)"><g><path d="M 12.84375 0.328125 C 10.664062 0.328125 8.957031 -0.460938 7.71875 -2.046875 L 7.453125 -2.046875 C 7.628906 -0.492188 7.71875 0.398438 7.71875 0.640625 L 7.71875 8.171875 L 2.65625 8.171875 L 2.65625 -18.5625 L 6.78125 -18.5625 L 7.484375 -16.15625 L 7.71875 -16.15625 C 8.90625 -17.988281 10.660156 -18.90625 12.984375 -18.90625 C 15.171875 -18.90625 16.882812 -18.054688 18.125 -16.359375 C 19.363281 -14.671875 19.984375 -12.320312 19.984375 -9.3125 C 19.984375 -7.332031 19.691406 -5.609375 19.109375 -4.140625 C 18.535156 -2.679688 17.710938 -1.570312 16.640625 -0.8125 C 15.566406 -0.0507812 14.300781 0.328125 12.84375 0.328125 Z M 11.359375 -14.859375 C 10.109375 -14.859375 9.191406 -14.472656 8.609375 -13.703125 C 8.035156 -12.929688 7.738281 -11.660156 7.71875 -9.890625 L 7.71875 -9.34375 C 7.71875 -7.351562 8.015625 -5.925781 8.609375 -5.0625 C 9.203125 -4.195312 10.140625 -3.765625 11.421875 -3.765625 C 13.691406 -3.765625 14.828125 -5.632812 14.828125 -9.375 C 14.828125 -11.207031 14.546875 -12.578125 13.984375 -13.484375 C 13.429688 -14.398438 12.554688 -14.859375 11.359375 -14.859375 Z M 11.359375 -14.859375 "/></g></g></g><g fill="#b9e1c9" fill-opacity="1"><g transform="translate(481.154319, 141.721388)"><g><path d="M 12.84375 0.328125 C 10.664062 0.328125 8.957031 -0.460938 7.71875 -2.046875 L 7.453125 -2.046875 C 7.628906 -0.492188 7.71875 0.398438 7.71875 0.640625 L 7.71875 8.171875 L 2.65625 8.171875 L 2.65625 -18.5625 L 6.78125 -18.5625 L 7.484375 -16.15625 L 7.71875 -16.15625 C 8.90625 -17.988281 10.660156 -18.90625 12.984375 -18.90625 C 15.171875 -18.90625 16.882812 -18.054688 18.125 -16.359375 C 19.363281 -14.671875 19.984375 -12.320312 19.984375 -9.3125 C 19.984375 -7.332031 19.691406 -5.609375 19.109375 -4.140625 C 18.535156 -2.679688 17.710938 -1.570312 16.640625 -0.8125 C 15.566406 -0.0507812 14.300781 0.328125 12.84375 0.328125 Z M 11.359375 -14.859375 C 10.109375 -14.859375 9.191406 -14.472656 8.609375 -13.703125 C 8.035156 -12.929688 7.738281 -11.660156 7.71875 -9.890625 L 7.71875 -9.34375 C 7.71875 -7.351562 8.015625 -5.925781 8.609375 -5.0625 C 9.203125 -4.195312 10.140625 -3.765625 11.421875 -3.765625 C 13.691406 -3.765625 14.828125 -5.632812 14.828125 -9.375 C 14.828125 -11.207031 14.546875 -12.578125 13.984375 -13.484375 C 13.429688 -14.398438 12.554688 -14.859375 11.359375 -14.859375 Z M 11.359375 -14.859375 "/></g></g></g><g fill="#b9e1c9" fill-opacity="1"><g transform="translate(502.66747, 141.721388)"><g><path d="M 10.34375 -15.3125 C 9.269531 -15.3125 8.425781 -14.96875 7.8125 -14.28125 C 7.207031 -13.601562 6.863281 -12.640625 6.78125 -11.390625 L 13.875 -11.390625 C 13.851562 -12.640625 13.523438 -13.601562 12.890625 -14.28125 C 12.265625 -14.96875 11.414062 -15.3125 10.34375 -15.3125 Z M 11.0625 0.328125 C 8.070312 0.328125 5.734375 -0.492188 4.046875 -2.140625 C 2.367188 -3.785156 1.53125 -6.117188 1.53125 -9.140625 C 1.53125 -12.253906 2.304688 -14.660156 3.859375 -16.359375 C 5.410156 -18.054688 7.5625 -18.90625 10.3125 -18.90625 C 12.9375 -18.90625 14.976562 -18.15625 16.4375 -16.65625 C 17.894531 -15.164062 18.625 -13.101562 18.625 -10.46875 L 18.625 -8.015625 L 6.65625 -8.015625 C 6.707031 -6.578125 7.128906 -5.453125 7.921875 -4.640625 C 8.722656 -3.835938 9.847656 -3.4375 11.296875 -3.4375 C 12.410156 -3.4375 13.460938 -3.550781 14.453125 -3.78125 C 15.453125 -4.019531 16.492188 -4.390625 17.578125 -4.890625 L 17.578125 -0.984375 C 16.691406 -0.535156 15.742188 -0.207031 14.734375 0 C 13.734375 0.21875 12.507812 0.328125 11.0625 0.328125 Z M 11.0625 0.328125 "/></g></g></g><g fill="#b9e1c9" fill-opacity="1"><g transform="translate(522.753051, 141.721388)"><g/></g></g><g fill="#b9e1c9" fill-opacity="1"><g transform="translate(531.584067, 141.721388)"><g><path d="M 3.0625 -24.265625 L 10.609375 -24.265625 C 14.046875 -24.265625 16.539062 -23.773438 18.09375 -22.796875 C 19.65625 -21.816406 20.4375 -20.257812 20.4375 -18.125 C 20.4375 -16.675781 20.09375 -15.488281 19.40625 -14.5625 C 18.726562 -13.632812 17.828125 -13.078125 16.703125 -12.890625 L 16.703125 -12.71875 C 18.242188 -12.375 19.351562 -11.726562 20.03125 -10.78125 C 20.707031 -9.84375 21.046875 -8.597656 21.046875 -7.046875 C 21.046875 -4.828125 20.242188 -3.097656 18.640625 -1.859375 C 17.046875 -0.617188 14.878906 0 12.140625 0 L 3.0625 0 Z M 8.203125 -14.65625 L 11.1875 -14.65625 C 12.582031 -14.65625 13.59375 -14.867188 14.21875 -15.296875 C 14.84375 -15.734375 15.15625 -16.453125 15.15625 -17.453125 C 15.15625 -18.378906 14.8125 -19.046875 14.125 -19.453125 C 13.445312 -19.859375 12.375 -20.0625 10.90625 -20.0625 L 8.203125 -20.0625 Z M 8.203125 -10.578125 L 8.203125 -4.25 L 11.5625 -4.25 C 12.976562 -4.25 14.019531 -4.519531 14.6875 -5.0625 C 15.363281 -5.601562 15.703125 -6.429688 15.703125 -7.546875 C 15.703125 -9.566406 14.265625 -10.578125 11.390625 -10.578125 Z M 8.203125 -10.578125 "/></g></g></g><g fill="#b9e1c9" fill-opacity="1"><g transform="translate(554.42519, 141.721388)"><g><path d="M 15.8125 0 L 15.125 -2.375 L 14.859375 -2.375 C 14.316406 -1.507812 13.546875 -0.84375 12.546875 -0.375 C 11.554688 0.09375 10.421875 0.328125 9.140625 0.328125 C 6.960938 0.328125 5.320312 -0.253906 4.21875 -1.421875 C 3.113281 -2.585938 2.5625 -4.265625 2.5625 -6.453125 L 2.5625 -18.5625 L 7.625 -18.5625 L 7.625 -7.71875 C 7.625 -6.382812 7.859375 -5.378906 8.328125 -4.703125 C 8.804688 -4.035156 9.566406 -3.703125 10.609375 -3.703125 C 12.023438 -3.703125 13.046875 -4.175781 13.671875 -5.125 C 14.304688 -6.070312 14.625 -7.640625 14.625 -9.828125 L 14.625 -18.5625 L 19.6875 -18.5625 L 19.6875 0 Z M 15.8125 0 "/></g></g></g><g fill="#b9e1c9" fill-opacity="1"><g transform="translate(576.768324, 141.721388)"><g><path d="M 2.4375 -23.359375 C 2.4375 -25.003906 3.359375 -25.828125 5.203125 -25.828125 C 7.035156 -25.828125 7.953125 -25.003906 7.953125 -23.359375 C 7.953125 -22.578125 7.722656 -21.96875 7.265625 -21.53125 C 6.804688 -21.09375 6.117188 -20.875 5.203125 -20.875 C 3.359375 -20.875 2.4375 -21.703125 2.4375 -23.359375 Z M 7.71875 0 L 2.65625 0 L 2.65625 -18.5625 L 7.71875 -18.5625 Z M 7.71875 0 "/></g></g></g><g fill="#b9e1c9" fill-opacity="1"><g transform="translate(587.143114, 141.721388)"><g><path d="M 7.71875 0 L 2.65625 0 L 2.65625 -25.828125 L 7.71875 -25.828125 Z M 7.71875 0 "/></g></g></g><g fill="#b9e1c9" fill-opacity="1"><g transform="translate(597.517903, 141.721388)"><g><path d="M 8.53125 0.328125 C 6.351562 0.328125 4.640625 -0.515625 3.390625 -2.203125 C 2.148438 -3.898438 1.53125 -6.25 1.53125 -9.25 C 1.53125 -12.289062 2.160156 -14.660156 3.421875 -16.359375 C 4.691406 -18.054688 6.441406 -18.90625 8.671875 -18.90625 C 11.003906 -18.90625 12.785156 -18 14.015625 -16.1875 L 14.171875 -16.1875 C 13.921875 -17.570312 13.796875 -18.804688 13.796875 -19.890625 L 13.796875 -25.828125 L 18.875 -25.828125 L 18.875 0 L 14.984375 0 L 14.015625 -2.40625 L 13.796875 -2.40625 C 12.640625 -0.582031 10.882812 0.328125 8.53125 0.328125 Z M 10.3125 -3.703125 C 11.601562 -3.703125 12.550781 -4.078125 13.15625 -4.828125 C 13.757812 -5.578125 14.085938 -6.859375 14.140625 -8.671875 L 14.140625 -9.21875 C 14.140625 -11.207031 13.832031 -12.632812 13.21875 -13.5 C 12.601562 -14.363281 11.609375 -14.796875 10.234375 -14.796875 C 9.097656 -14.796875 8.21875 -14.316406 7.59375 -13.359375 C 6.96875 -12.398438 6.65625 -11.007812 6.65625 -9.1875 C 6.65625 -7.351562 6.96875 -5.976562 7.59375 -5.0625 C 8.226562 -4.15625 9.132812 -3.703125 10.3125 -3.703125 Z M 10.3125 -3.703125 "/></g></g></g><g fill="#b9e1c9" fill-opacity="1"><g transform="translate(619.031054, 141.721388)"><g><path d="M 10.34375 -15.3125 C 9.269531 -15.3125 8.425781 -14.96875 7.8125 -14.28125 C 7.207031 -13.601562 6.863281 -12.640625 6.78125 -11.390625 L 13.875 -11.390625 C 13.851562 -12.640625 13.523438 -13.601562 12.890625 -14.28125 C 12.265625 -14.96875 11.414062 -15.3125 10.34375 -15.3125 Z M 11.0625 0.328125 C 8.070312 0.328125 5.734375 -0.492188 4.046875 -2.140625 C 2.367188 -3.785156 1.53125 -6.117188 1.53125 -9.140625 C 1.53125 -12.253906 2.304688 -14.660156 3.859375 -16.359375 C 5.410156 -18.054688 7.5625 -18.90625 10.3125 -18.90625 C 12.9375 -18.90625 14.976562 -18.15625 16.4375 -16.65625 C 17.894531 -15.164062 18.625 -13.101562 18.625 -10.46875 L 18.625 -8.015625 L 6.65625 -8.015625 C 6.707031 -6.578125 7.128906 -5.453125 7.921875 -4.640625 C 8.722656 -3.835938 9.847656 -3.4375 11.296875 -3.4375 C 12.410156 -3.4375 13.460938 -3.550781 14.453125 -3.78125 C 15.453125 -4.019531 16.492188 -4.390625 17.578125 -4.890625 L 17.578125 -0.984375 C 16.691406 -0.535156 15.742188 -0.207031 14.734375 0 C 13.734375 0.21875 12.507812 0.328125 11.0625 0.328125 Z M 11.0625 0.328125 "/></g></g></g><g fill="#b9e1c9" fill-opacity="1"><g transform="translate(639.116646, 141.721388)"><g><path d="M 13.015625 -18.90625 C 13.703125 -18.90625 14.269531 -18.859375 14.71875 -18.765625 L 14.34375 -14.015625 C 13.9375 -14.117188 13.4375 -14.171875 12.84375 -14.171875 C 11.226562 -14.171875 9.96875 -13.753906 9.0625 -12.921875 C 8.164062 -12.097656 7.71875 -10.941406 7.71875 -9.453125 L 7.71875 0 L 2.65625 0 L 2.65625 -18.5625 L 6.484375 -18.5625 L 7.234375 -15.4375 L 7.484375 -15.4375 C 8.054688 -16.476562 8.832031 -17.316406 9.8125 -17.953125 C 10.800781 -18.585938 11.867188 -18.90625 13.015625 -18.90625 Z M 13.015625 -18.90625 "/></g></g></g></svg>